<?xml version="1.0" encoding="utf-8" standalone="no"?>
<!DOCTYPE svg PUBLIC "-//W3C//DTD SVG 1.1//EN"
  "http://www.w3.org/Graphics/SVG/1.1/DTD/svg11.dtd">
<!-- Created with matplotlib (https://matplotlib.org/) -->
<svg height="432pt" version="1.1" viewBox="0 0 720 432" width="720pt" xmlns="http://www.w3.org/2000/svg" xmlns:xlink="http://www.w3.org/1999/xlink">
 <metadata>
  <rdf:RDF xmlns:cc="http://creativecommons.org/ns#" xmlns:dc="http://purl.org/dc/elements/1.1/" xmlns:rdf="http://www.w3.org/1999/02/22-rdf-syntax-ns#">
   <cc:Work>
    <dc:type rdf:resource="http://purl.org/dc/dcmitype/StillImage"/>
    <dc:date>2025-04-15T11:57:26.612459</dc:date>
    <dc:format>image/svg+xml</dc:format>
    <dc:creator>
     <cc:Agent>
      <dc:title>Matplotlib v3.3.4, https://matplotlib.org/</dc:title>
     </cc:Agent>
    </dc:creator>
   </cc:Work>
  </rdf:RDF>
 </metadata>
 <defs>
  <style type="text/css">*{stroke-linecap:butt;stroke-linejoin:round;}</style>
 </defs>
 <g id="figure_1">
  <g id="patch_1">
   <path d="M 0 432 
L 720 432 
L 720 0 
L 0 0 
z
" style="fill:#ffffff;"/>
  </g>
  <g id="axes_1">
   <g id="patch_2">
    <path d="M 67.39 191.47 
L 707.569487 191.47 
L 707.569487 28.32 
L 67.39 28.32 
z
" style="fill:#ffffff;"/>
   </g>
   <g id="matplotlib.axis_1">
    <g id="xtick_1">
     <g id="line2d_1">
      <defs>
       <path d="M 0 0 
L 0 3.5 
" id="m4db4b5d26e" style="stroke:#000000;stroke-width:0.8;"/>
      </defs>
      <g>
       <use style="stroke:#000000;stroke-width:0.8;" x="96.489068" xlink:href="#m4db4b5d26e" y="191.47"/>
      </g>
     </g>
    </g>
    <g id="xtick_2">
     <g id="line2d_2">
      <g>
       <use style="stroke:#000000;stroke-width:0.8;" x="171.288086" xlink:href="#m4db4b5d26e" y="191.47"/>
      </g>
     </g>
    </g>
    <g id="xtick_3">
     <g id="line2d_3">
      <g>
       <use style="stroke:#000000;stroke-width:0.8;" x="246.087104" xlink:href="#m4db4b5d26e" y="191.47"/>
      </g>
     </g>
    </g>
    <g id="xtick_4">
     <g id="line2d_4">
      <g>
       <use style="stroke:#000000;stroke-width:0.8;" x="320.886122" xlink:href="#m4db4b5d26e" y="191.47"/>
      </g>
     </g>
    </g>
    <g id="xtick_5">
     <g id="line2d_5">
      <g>
       <use style="stroke:#000000;stroke-width:0.8;" x="395.68514" xlink:href="#m4db4b5d26e" y="191.47"/>
      </g>
     </g>
    </g>
    <g id="xtick_6">
     <g id="line2d_6">
      <g>
       <use style="stroke:#000000;stroke-width:0.8;" x="470.484159" xlink:href="#m4db4b5d26e" y="191.47"/>
      </g>
     </g>
    </g>
    <g id="xtick_7">
     <g id="line2d_7">
      <g>
       <use style="stroke:#000000;stroke-width:0.8;" x="545.283177" xlink:href="#m4db4b5d26e" y="191.47"/>
      </g>
     </g>
    </g>
    <g id="xtick_8">
     <g id="line2d_8">
      <g>
       <use style="stroke:#000000;stroke-width:0.8;" x="620.082195" xlink:href="#m4db4b5d26e" y="191.47"/>
      </g>
     </g>
    </g>
    <g id="xtick_9">
     <g id="line2d_9">
      <g>
       <use style="stroke:#000000;stroke-width:0.8;" x="694.881213" xlink:href="#m4db4b5d26e" y="191.47"/>
      </g>
     </g>
    </g>
   </g>
   <g id="matplotlib.axis_2">
    <g id="ytick_1">
     <g id="line2d_10">
      <defs>
       <path d="M 0 0 
L -3.5 0 
" id="m5b97d1460e" style="stroke:#000000;stroke-width:0.8;"/>
      </defs>
      <g>
       <use style="stroke:#000000;stroke-width:0.8;" x="67.39" xlink:href="#m5b97d1460e" y="172.804399"/>
      </g>
     </g>
     <g id="text_1">
      <!-- 500 -->
      <g transform="translate(41.3025 176.603617)scale(0.1 -0.1)">
       <defs>
        <path d="M 10.796875 72.90625 
L 49.515625 72.90625 
L 49.515625 64.59375 
L 19.828125 64.59375 
L 19.828125 46.734375 
Q 21.96875 47.46875 24.109375 47.828125 
Q 26.265625 48.1875 28.421875 48.1875 
Q 40.625 48.1875 47.75 41.5 
Q 54.890625 34.8125 54.890625 23.390625 
Q 54.890625 11.625 47.5625 5.09375 
Q 40.234375 -1.421875 26.90625 -1.421875 
Q 22.3125 -1.421875 17.546875 -0.640625 
Q 12.796875 0.140625 7.71875 1.703125 
L 7.71875 11.625 
Q 12.109375 9.234375 16.796875 8.0625 
Q 21.484375 6.890625 26.703125 6.890625 
Q 35.15625 6.890625 40.078125 11.328125 
Q 45.015625 15.765625 45.015625 23.390625 
Q 45.015625 31 40.078125 35.4375 
Q 35.15625 39.890625 26.703125 39.890625 
Q 22.75 39.890625 18.8125 39.015625 
Q 14.890625 38.140625 10.796875 36.28125 
z
" id="DejaVuSans-53"/>
        <path d="M 31.78125 66.40625 
Q 24.171875 66.40625 20.328125 58.90625 
Q 16.5 51.421875 16.5 36.375 
Q 16.5 21.390625 20.328125 13.890625 
Q 24.171875 6.390625 31.78125 6.390625 
Q 39.453125 6.390625 43.28125 13.890625 
Q 47.125 21.390625 47.125 36.375 
Q 47.125 51.421875 43.28125 58.90625 
Q 39.453125 66.40625 31.78125 66.40625 
z
M 31.78125 74.21875 
Q 44.046875 74.21875 50.515625 64.515625 
Q 56.984375 54.828125 56.984375 36.375 
Q 56.984375 17.96875 50.515625 8.265625 
Q 44.046875 -1.421875 31.78125 -1.421875 
Q 19.53125 -1.421875 13.0625 8.265625 
Q 6.59375 17.96875 6.59375 36.375 
Q 6.59375 54.828125 13.0625 64.515625 
Q 19.53125 74.21875 31.78125 74.21875 
z
" id="DejaVuSans-48"/>
       </defs>
       <use xlink:href="#DejaVuSans-53"/>
       <use x="63.623047" xlink:href="#DejaVuSans-48"/>
       <use x="127.246094" xlink:href="#DejaVuSans-48"/>
      </g>
     </g>
    </g>
    <g id="ytick_2">
     <g id="line2d_11">
      <g>
       <use style="stroke:#000000;stroke-width:0.8;" x="67.39" xlink:href="#m5b97d1460e" y="147.735777"/>
      </g>
     </g>
     <g id="text_2">
      <!-- 1000 -->
      <g transform="translate(34.94 151.534996)scale(0.1 -0.1)">
       <defs>
        <path d="M 12.40625 8.296875 
L 28.515625 8.296875 
L 28.515625 63.921875 
L 10.984375 60.40625 
L 10.984375 69.390625 
L 28.421875 72.90625 
L 38.28125 72.90625 
L 38.28125 8.296875 
L 54.390625 8.296875 
L 54.390625 0 
L 12.40625 0 
z
" id="DejaVuSans-49"/>
       </defs>
       <use xlink:href="#DejaVuSans-49"/>
       <use x="63.623047" xlink:href="#DejaVuSans-48"/>
       <use x="127.246094" xlink:href="#DejaVuSans-48"/>
       <use x="190.869141" xlink:href="#DejaVuSans-48"/>
      </g>
     </g>
    </g>
    <g id="ytick_3">
     <g id="line2d_12">
      <g>
       <use style="stroke:#000000;stroke-width:0.8;" x="67.39" xlink:href="#m5b97d1460e" y="122.667156"/>
      </g>
     </g>
     <g id="text_3">
      <!-- 1500 -->
      <g transform="translate(34.94 126.466375)scale(0.1 -0.1)">
       <use xlink:href="#DejaVuSans-49"/>
       <use x="63.623047" xlink:href="#DejaVuSans-53"/>
       <use x="127.246094" xlink:href="#DejaVuSans-48"/>
       <use x="190.869141" xlink:href="#DejaVuSans-48"/>
      </g>
     </g>
    </g>
    <g id="ytick_4">
     <g id="line2d_13">
      <g>
       <use style="stroke:#000000;stroke-width:0.8;" x="67.39" xlink:href="#m5b97d1460e" y="97.598535"/>
      </g>
     </g>
     <g id="text_4">
      <!-- 2000 -->
      <g transform="translate(34.94 101.397754)scale(0.1 -0.1)">
       <defs>
        <path d="M 19.1875 8.296875 
L 53.609375 8.296875 
L 53.609375 0 
L 7.328125 0 
L 7.328125 8.296875 
Q 12.9375 14.109375 22.625 23.890625 
Q 32.328125 33.6875 34.8125 36.53125 
Q 39.546875 41.84375 41.421875 45.53125 
Q 43.3125 49.21875 43.3125 52.78125 
Q 43.3125 58.59375 39.234375 62.25 
Q 35.15625 65.921875 28.609375 65.921875 
Q 23.96875 65.921875 18.8125 64.3125 
Q 13.671875 62.703125 7.8125 59.421875 
L 7.8125 69.390625 
Q 13.765625 71.78125 18.9375 73 
Q 24.125 74.21875 28.421875 74.21875 
Q 39.75 74.21875 46.484375 68.546875 
Q 53.21875 62.890625 53.21875 53.421875 
Q 53.21875 48.921875 51.53125 44.890625 
Q 49.859375 40.875 45.40625 35.40625 
Q 44.1875 33.984375 37.640625 27.21875 
Q 31.109375 20.453125 19.1875 8.296875 
z
" id="DejaVuSans-50"/>
       </defs>
       <use xlink:href="#DejaVuSans-50"/>
       <use x="63.623047" xlink:href="#DejaVuSans-48"/>
       <use x="127.246094" xlink:href="#DejaVuSans-48"/>
       <use x="190.869141" xlink:href="#DejaVuSans-48"/>
      </g>
     </g>
    </g>
    <g id="ytick_5">
     <g id="line2d_14">
      <g>
       <use style="stroke:#000000;stroke-width:0.8;" x="67.39" xlink:href="#m5b97d1460e" y="72.529914"/>
      </g>
     </g>
     <g id="text_5">
      <!-- 2500 -->
      <g transform="translate(34.94 76.329133)scale(0.1 -0.1)">
       <use xlink:href="#DejaVuSans-50"/>
       <use x="63.623047" xlink:href="#DejaVuSans-53"/>
       <use x="127.246094" xlink:href="#DejaVuSans-48"/>
       <use x="190.869141" xlink:href="#DejaVuSans-48"/>
      </g>
     </g>
    </g>
    <g id="ytick_6">
     <g id="line2d_15">
      <g>
       <use style="stroke:#000000;stroke-width:0.8;" x="67.39" xlink:href="#m5b97d1460e" y="47.461293"/>
      </g>
     </g>
     <g id="text_6">
      <!-- 3000 -->
      <g transform="translate(34.94 51.260511)scale(0.1 -0.1)">
       <defs>
        <path d="M 40.578125 39.3125 
Q 47.65625 37.796875 51.625 33 
Q 55.609375 28.21875 55.609375 21.1875 
Q 55.609375 10.40625 48.1875 4.484375 
Q 40.765625 -1.421875 27.09375 -1.421875 
Q 22.515625 -1.421875 17.65625 -0.515625 
Q 12.796875 0.390625 7.625 2.203125 
L 7.625 11.71875 
Q 11.71875 9.328125 16.59375 8.109375 
Q 21.484375 6.890625 26.8125 6.890625 
Q 36.078125 6.890625 40.9375 10.546875 
Q 45.796875 14.203125 45.796875 21.1875 
Q 45.796875 27.640625 41.28125 31.265625 
Q 36.765625 34.90625 28.71875 34.90625 
L 20.21875 34.90625 
L 20.21875 43.015625 
L 29.109375 43.015625 
Q 36.375 43.015625 40.234375 45.921875 
Q 44.09375 48.828125 44.09375 54.296875 
Q 44.09375 59.90625 40.109375 62.90625 
Q 36.140625 65.921875 28.71875 65.921875 
Q 24.65625 65.921875 20.015625 65.03125 
Q 15.375 64.15625 9.8125 62.3125 
L 9.8125 71.09375 
Q 15.4375 72.65625 20.34375 73.4375 
Q 25.25 74.21875 29.59375 74.21875 
Q 40.828125 74.21875 47.359375 69.109375 
Q 53.90625 64.015625 53.90625 55.328125 
Q 53.90625 49.265625 50.4375 45.09375 
Q 46.96875 40.921875 40.578125 39.3125 
z
" id="DejaVuSans-51"/>
       </defs>
       <use xlink:href="#DejaVuSans-51"/>
       <use x="63.623047" xlink:href="#DejaVuSans-48"/>
       <use x="127.246094" xlink:href="#DejaVuSans-48"/>
       <use x="190.869141" xlink:href="#DejaVuSans-48"/>
      </g>
     </g>
    </g>
   </g>
   <g id="line2d_16">
    <path clip-path="url(#p8beb328e4b)" d="M 96.489068 183.640213 
L 108.17544 183.717031 
L 110.512715 183.782517 
L 112.849989 181.642106 
L 119.861813 182.081804 
L 122.199087 179.334914 
L 126.873636 179.809478 
L 129.210911 176.471743 
L 133.88546 177.099705 
L 136.222734 173.234056 
L 140.897283 174.006091 
L 143.234558 169.645754 
L 147.909107 170.541079 
L 150.246381 165.738478 
L 154.92093 166.7246 
L 157.258205 161.509824 
L 164.270028 163.003472 
L 166.607303 157.438993 
L 171.281852 158.322098 
L 173.619126 152.34095 
L 178.293675 152.947665 
L 180.63095 146.463664 
L 185.305499 146.801733 
L 187.642773 140.278255 
L 189.980048 140.928562 
L 192.317322 136.80637 
L 194.654597 134.491915 
L 196.991871 126.456654 
L 199.329146 126.711719 
L 201.66642 127.41693 
L 204.003695 121.709766 
L 206.340969 112.980271 
L 208.678244 114.658816 
L 211.015518 109.498253 
L 213.352793 107.935927 
L 215.690067 110.077515 
L 218.027342 104.270194 
L 220.364616 103.192807 
L 222.701891 105.559585 
L 225.039165 89.205699 
L 227.37644 88.847976 
L 229.713714 91.630171 
L 232.050989 82.064537 
L 234.388263 81.686902 
L 236.725538 84.881107 
L 239.062812 74.804317 
L 241.400087 72.757094 
L 243.737361 74.837684 
L 246.074636 70.914089 
L 248.41191 73.748462 
L 250.749185 73.672859 
L 253.086459 77.127501 
L 255.423734 64.29162 
L 257.761008 61.869833 
L 260.098283 61.914279 
L 262.435557 64.156471 
L 264.772832 49.876203 
L 267.110106 48.349957 
L 269.447381 48.098874 
L 271.784655 51.916825 
L 274.12193 37.491228 
L 276.459204 35.735909 
L 278.796479 50.090674 
L 281.133754 50.623403 
L 283.471028 54.101193 
L 285.808303 40.99324 
L 290.482852 38.207747 
L 292.820126 36.548722 
L 295.157401 52.541358 
L 297.494675 51.297949 
L 299.83195 50.434099 
L 302.169224 51.601151 
L 304.506499 54.631345 
L 306.843773 40.945349 
L 309.181048 38.954197 
L 311.518322 56.374232 
L 316.192871 52.705158 
L 318.530146 50.744505 
L 320.86742 48.599184 
L 323.204695 66.077363 
L 327.879244 62.288951 
L 332.553793 58.546203 
L 337.228342 55.013971 
L 339.565616 73.524433 
L 344.240165 71.031237 
L 346.57744 69.869416 
L 348.914714 68.877475 
L 353.589263 67.171874 
L 355.926538 85.925947 
L 360.601087 85.011993 
L 365.275636 84.250775 
L 369.950185 83.761511 
L 374.624734 83.422383 
L 376.962008 101.146967 
L 381.636557 100.926971 
L 386.311106 100.772477 
L 390.985655 100.42445 
L 395.660204 99.841176 
L 397.997479 99.475821 
L 400.334753 115.184427 
L 407.346577 114.330929 
L 421.370224 112.906003 
L 426.044773 112.559253 
L 430.719322 112.40021 
L 433.056596 126.731378 
L 440.06842 126.741254 
L 447.080243 127.019533 
L 454.092067 127.543844 
L 458.766616 127.984868 
L 461.10389 140.055521 
L 472.790263 140.894264 
L 493.825733 142.107837 
L 496.163008 151.67622 
L 505.512106 152.684603 
L 517.198479 154.206546 
L 521.873028 154.412702 
L 526.547577 154.303456 
L 528.884851 154.047991 
L 531.222126 153.597229 
L 533.5594 152.963916 
L 538.233949 150.782619 
L 545.245773 152.362066 
L 547.583047 152.804295 
L 549.920322 160.281605 
L 559.26942 161.701253 
L 566.281243 163.058529 
L 570.955792 163.986508 
L 573.293067 164.371221 
L 575.630341 164.637326 
L 577.967616 164.74996 
L 580.30489 164.697277 
L 582.642165 164.4933 
L 584.979439 164.145614 
L 587.316714 163.599108 
L 589.653988 163.41919 
L 591.991263 168.815346 
L 594.328537 169.377671 
L 596.665812 169.796238 
L 599.003086 170.053686 
L 601.340361 170.120648 
L 603.677635 169.980547 
L 606.01491 169.623791 
L 608.352184 169.028339 
L 610.689459 169.277554 
L 615.364008 170.328447 
L 617.701282 170.680486 
L 620.038557 170.885189 
L 622.375831 170.930038 
L 624.713106 170.819995 
L 629.387655 170.23912 
L 634.062204 169.441614 
L 636.399478 168.855423 
L 638.736753 169.122726 
L 645.748576 171.047267 
L 650.423125 172.130273 
L 652.7604 172.561783 
L 655.097674 175.443646 
L 657.434949 173.119428 
L 659.772223 173.201026 
L 662.109498 173.151776 
L 664.446772 172.973158 
L 666.784047 175.200306 
L 669.121321 175.299596 
L 673.79587 176.182329 
L 676.133145 176.452108 
L 678.470419 176.587928 
L 678.470419 176.587928 
" style="fill:none;stroke:#000000;stroke-linecap:square;stroke-width:1.5;"/>
   </g>
   <g id="line2d_17">
    <path clip-path="url(#p8beb328e4b)" d="M 96.489068 183.954302 
L 105.838166 183.984765 
L 108.17544 184.054091 
L 110.512715 181.588738 
L 115.187264 181.965266 
L 117.524538 179.049253 
L 122.199087 179.72682 
L 124.536362 176.468667 
L 129.210911 177.442665 
L 131.548185 173.930133 
L 133.88546 174.553842 
L 136.222734 170.768303 
L 138.560009 171.52452 
L 140.897283 167.542987 
L 143.234558 168.434631 
L 145.571832 164.342025 
L 147.909107 165.363708 
L 150.246381 161.272878 
L 152.583656 162.418773 
L 154.92093 158.414719 
L 157.258205 159.664419 
L 159.595479 155.87227 
L 161.932754 157.203788 
L 164.270028 153.710634 
L 166.607303 155.07133 
L 168.944577 151.94991 
L 171.281852 153.283178 
L 173.619126 150.611574 
L 175.956401 148.445417 
L 178.293675 149.662548 
L 180.63095 148.211791 
L 182.968224 149.613626 
L 185.305499 149.576741 
L 187.642773 150.013076 
L 189.980048 149.347906 
L 192.317322 149.967094 
L 194.654597 151.062247 
L 196.991871 152.744119 
L 199.329146 152.763033 
L 201.66642 155.408169 
L 204.003695 156.339362 
L 206.340969 159.297102 
L 208.678244 159.45549 
L 211.015518 160.345222 
L 213.352793 164.174194 
L 215.690067 164.088543 
L 220.364616 164.715378 
L 222.701891 168.325087 
L 225.039165 167.912484 
L 227.37644 167.983005 
L 229.713714 167.539691 
L 232.050989 166.499953 
L 234.388263 165.624609 
L 236.725538 165.244257 
L 239.062812 159.835782 
L 241.400087 157.916147 
L 243.737361 156.147082 
L 246.074636 154.639546 
L 248.41191 154.012594 
L 250.749185 146.842036 
L 253.086459 143.732548 
L 255.423734 140.8863 
L 257.761008 138.58067 
L 260.098283 132.690059 
L 264.772832 123.992712 
L 267.110106 116.552692 
L 269.447381 114.962355 
L 271.784655 110.484367 
L 274.12193 102.800049 
L 276.459204 98.063716 
L 278.796479 93.818823 
L 281.133754 91.771991 
L 283.471028 92.37981 
L 285.808303 86.782918 
L 288.145577 81.688022 
L 290.482852 77.275844 
L 292.820126 77.739764 
L 297.494675 70.488227 
L 299.83195 73.897799 
L 304.506499 67.130817 
L 306.843773 72.946077 
L 311.518322 66.456786 
L 313.855597 74.211018 
L 318.530146 67.902404 
L 320.86742 77.472129 
L 325.541969 71.414052 
L 327.879244 82.397563 
L 330.216518 79.90019 
L 332.553793 77.628 
L 334.891067 75.655112 
L 337.228342 88.982509 
L 339.565616 88.931676 
L 341.902891 90.392682 
L 344.240165 87.618231 
L 346.57744 84.16405 
L 348.914714 81.577824 
L 351.251989 95.1294 
L 353.589263 94.043784 
L 358.263812 92.488739 
L 362.938361 91.132824 
L 365.275636 105.485318 
L 369.950185 104.712193 
L 374.624734 104.288822 
L 379.299283 104.114475 
L 381.636557 117.986869 
L 390.985655 117.779018 
L 395.660204 117.500498 
L 397.997479 117.282589 
L 400.334753 129.664485 
L 407.346577 129.055806 
L 412.021126 128.840545 
L 419.032949 128.583319 
L 421.370224 128.365938 
L 426.044773 127.57512 
L 428.382047 138.653719 
L 430.719322 138.360551 
L 433.056596 138.182677 
L 435.393871 138.131288 
L 440.06842 138.351283 
L 444.742969 138.841034 
L 449.417518 139.57855 
L 451.754792 149.752026 
L 456.429341 150.622309 
L 463.441165 152.016737 
L 465.778439 152.085561 
L 468.115714 151.131716 
L 470.452988 149.514123 
L 472.790263 148.689158 
L 475.127537 148.592672 
L 477.464812 148.899818 
L 484.476635 150.305776 
L 486.81391 158.657552 
L 505.512106 160.526849 
L 507.849381 160.614053 
L 510.186655 160.555061 
L 512.52393 160.209003 
L 514.861204 158.910747 
L 517.198479 157.821614 
L 519.535753 157.388015 
L 521.873028 157.433465 
L 524.210302 157.758597 
L 528.884851 158.739077 
L 531.222126 159.267129 
L 533.5594 166.187094 
L 538.233949 167.020992 
L 542.908498 167.661102 
L 547.583047 168.14237 
L 552.257596 168.366371 
L 561.606694 168.47303 
L 568.618518 169.001296 
L 570.955792 168.975518 
L 573.293067 168.395993 
L 575.630341 167.649385 
L 577.967616 167.337541 
L 580.30489 167.397652 
L 584.979439 168.017782 
L 589.653988 168.717491 
L 591.991263 173.576296 
L 599.003086 174.153514 
L 603.677635 174.329811 
L 606.01491 174.300021 
L 608.352184 174.109552 
L 610.689459 168.937361 
L 613.026733 168.421586 
L 615.364008 173.079933 
L 617.701282 173.384244 
L 627.05038 175.166805 
L 629.387655 175.441948 
L 631.724929 175.396828 
L 634.062204 174.993753 
L 636.399478 174.854533 
L 638.736753 174.992747 
L 650.423125 176.328667 
L 652.7604 176.375313 
L 655.097674 176.107675 
L 657.434949 175.34651 
L 659.772223 174.842242 
L 662.109498 174.66187 
L 664.446772 174.688316 
L 669.121321 175.03346 
L 678.470419 176.050078 
L 678.470419 176.050078 
" style="fill:none;stroke:#ff0000;stroke-dasharray:5.55,2.4;stroke-dashoffset:0;stroke-width:1.5;"/>
   </g>
   <g id="patch_3">
    <path d="M 67.39 191.47 
L 67.39 28.32 
" style="fill:none;stroke:#000000;stroke-linecap:square;stroke-linejoin:miter;stroke-width:0.8;"/>
   </g>
   <g id="patch_4">
    <path d="M 707.569487 191.47 
L 707.569487 28.32 
" style="fill:none;stroke:#000000;stroke-linecap:square;stroke-linejoin:miter;stroke-width:0.8;"/>
   </g>
   <g id="patch_5">
    <path d="M 67.39 191.47 
L 707.569487 191.47 
" style="fill:none;stroke:#000000;stroke-linecap:square;stroke-linejoin:miter;stroke-width:0.8;"/>
   </g>
   <g id="patch_6">
    <path d="M 67.39 28.32 
L 707.569487 28.32 
" style="fill:none;stroke:#000000;stroke-linecap:square;stroke-linejoin:miter;stroke-width:0.8;"/>
   </g>
   <g id="text_7">
    <!-- Apex -->
    <g transform="translate(367.410993 22.32)scale(0.16 -0.16)">
     <defs>
      <path d="M 34.1875 63.1875 
L 20.796875 26.90625 
L 47.609375 26.90625 
z
M 28.609375 72.90625 
L 39.796875 72.90625 
L 67.578125 0 
L 57.328125 0 
L 50.6875 18.703125 
L 17.828125 18.703125 
L 11.1875 0 
L 0.78125 0 
z
" id="DejaVuSans-65"/>
      <path d="M 18.109375 8.203125 
L 18.109375 -20.796875 
L 9.078125 -20.796875 
L 9.078125 54.6875 
L 18.109375 54.6875 
L 18.109375 46.390625 
Q 20.953125 51.265625 25.265625 53.625 
Q 29.59375 56 35.59375 56 
Q 45.5625 56 51.78125 48.09375 
Q 58.015625 40.1875 58.015625 27.296875 
Q 58.015625 14.40625 51.78125 6.484375 
Q 45.5625 -1.421875 35.59375 -1.421875 
Q 29.59375 -1.421875 25.265625 0.953125 
Q 20.953125 3.328125 18.109375 8.203125 
z
M 48.6875 27.296875 
Q 48.6875 37.203125 44.609375 42.84375 
Q 40.53125 48.484375 33.40625 48.484375 
Q 26.265625 48.484375 22.1875 42.84375 
Q 18.109375 37.203125 18.109375 27.296875 
Q 18.109375 17.390625 22.1875 11.75 
Q 26.265625 6.109375 33.40625 6.109375 
Q 40.53125 6.109375 44.609375 11.75 
Q 48.6875 17.390625 48.6875 27.296875 
z
" id="DejaVuSans-112"/>
      <path d="M 56.203125 29.59375 
L 56.203125 25.203125 
L 14.890625 25.203125 
Q 15.484375 15.921875 20.484375 11.0625 
Q 25.484375 6.203125 34.421875 6.203125 
Q 39.59375 6.203125 44.453125 7.46875 
Q 49.3125 8.734375 54.109375 11.28125 
L 54.109375 2.78125 
Q 49.265625 0.734375 44.1875 -0.34375 
Q 39.109375 -1.421875 33.890625 -1.421875 
Q 20.796875 -1.421875 13.15625 6.1875 
Q 5.515625 13.8125 5.515625 26.8125 
Q 5.515625 40.234375 12.765625 48.109375 
Q 20.015625 56 32.328125 56 
Q 43.359375 56 49.78125 48.890625 
Q 56.203125 41.796875 56.203125 29.59375 
z
M 47.21875 32.234375 
Q 47.125 39.59375 43.09375 43.984375 
Q 39.0625 48.390625 32.421875 48.390625 
Q 24.90625 48.390625 20.390625 44.140625 
Q 15.875 39.890625 15.1875 32.171875 
z
" id="DejaVuSans-101"/>
      <path d="M 54.890625 54.6875 
L 35.109375 28.078125 
L 55.90625 0 
L 45.3125 0 
L 29.390625 21.484375 
L 13.484375 0 
L 2.875 0 
L 24.125 28.609375 
L 4.6875 54.6875 
L 15.28125 54.6875 
L 29.78125 35.203125 
L 44.28125 54.6875 
z
" id="DejaVuSans-120"/>
     </defs>
     <use xlink:href="#DejaVuSans-65"/>
     <use x="68.408203" xlink:href="#DejaVuSans-112"/>
     <use x="131.884766" xlink:href="#DejaVuSans-101"/>
     <use x="191.658203" xlink:href="#DejaVuSans-120"/>
    </g>
   </g>
   <g id="legend_1">
    <g id="patch_7">
     <path d="M 647.878862 65.67625 
L 700.569487 65.67625 
Q 702.569487 65.67625 702.569487 63.67625 
L 702.569487 35.32 
Q 702.569487 33.32 700.569487 33.32 
L 647.878862 33.32 
Q 645.878862 33.32 645.878862 35.32 
L 645.878862 63.67625 
Q 645.878862 65.67625 647.878862 65.67625 
z
" style="fill:#ffffff;opacity:0.8;stroke:#cccccc;stroke-linejoin:miter;"/>
    </g>
    <g id="line2d_18">
     <path d="M 649.878862 41.418437 
L 669.878862 41.418437 
" style="fill:none;stroke:#000000;stroke-linecap:square;stroke-width:1.5;"/>
    </g>
    <g id="line2d_19"/>
    <g id="text_8">
     <!-- SH -->
     <g transform="translate(677.878862 44.918437)scale(0.1 -0.1)">
      <defs>
       <path d="M 53.515625 70.515625 
L 53.515625 60.890625 
Q 47.90625 63.578125 42.921875 64.890625 
Q 37.9375 66.21875 33.296875 66.21875 
Q 25.25 66.21875 20.875 63.09375 
Q 16.5 59.96875 16.5 54.203125 
Q 16.5 49.359375 19.40625 46.890625 
Q 22.3125 44.4375 30.421875 42.921875 
L 36.375 41.703125 
Q 47.40625 39.59375 52.65625 34.296875 
Q 57.90625 29 57.90625 20.125 
Q 57.90625 9.515625 50.796875 4.046875 
Q 43.703125 -1.421875 29.984375 -1.421875 
Q 24.8125 -1.421875 18.96875 -0.25 
Q 13.140625 0.921875 6.890625 3.21875 
L 6.890625 13.375 
Q 12.890625 10.015625 18.65625 8.296875 
Q 24.421875 6.59375 29.984375 6.59375 
Q 38.421875 6.59375 43.015625 9.90625 
Q 47.609375 13.234375 47.609375 19.390625 
Q 47.609375 24.75 44.3125 27.78125 
Q 41.015625 30.8125 33.5 32.328125 
L 27.484375 33.5 
Q 16.453125 35.6875 11.515625 40.375 
Q 6.59375 45.0625 6.59375 53.421875 
Q 6.59375 63.09375 13.40625 68.65625 
Q 20.21875 74.21875 32.171875 74.21875 
Q 37.3125 74.21875 42.625 73.28125 
Q 47.953125 72.359375 53.515625 70.515625 
z
" id="DejaVuSans-83"/>
       <path d="M 9.8125 72.90625 
L 19.671875 72.90625 
L 19.671875 43.015625 
L 55.515625 43.015625 
L 55.515625 72.90625 
L 65.375 72.90625 
L 65.375 0 
L 55.515625 0 
L 55.515625 34.71875 
L 19.671875 34.71875 
L 19.671875 0 
L 9.8125 0 
z
" id="DejaVuSans-72"/>
      </defs>
      <use xlink:href="#DejaVuSans-83"/>
      <use x="63.476562" xlink:href="#DejaVuSans-72"/>
     </g>
    </g>
    <g id="line2d_20">
     <path d="M 649.878862 56.096563 
L 669.878862 56.096563 
" style="fill:none;stroke:#ff0000;stroke-dasharray:5.55,2.4;stroke-dashoffset:0;stroke-width:1.5;"/>
    </g>
    <g id="line2d_21"/>
    <g id="text_9">
     <!-- SNB -->
     <g transform="translate(677.878862 59.596563)scale(0.1 -0.1)">
      <defs>
       <path d="M 9.8125 72.90625 
L 23.09375 72.90625 
L 55.421875 11.921875 
L 55.421875 72.90625 
L 64.984375 72.90625 
L 64.984375 0 
L 51.703125 0 
L 19.390625 60.984375 
L 19.390625 0 
L 9.8125 0 
z
" id="DejaVuSans-78"/>
       <path d="M 19.671875 34.8125 
L 19.671875 8.109375 
L 35.5 8.109375 
Q 43.453125 8.109375 47.28125 11.40625 
Q 51.125 14.703125 51.125 21.484375 
Q 51.125 28.328125 47.28125 31.5625 
Q 43.453125 34.8125 35.5 34.8125 
z
M 19.671875 64.796875 
L 19.671875 42.828125 
L 34.28125 42.828125 
Q 41.5 42.828125 45.03125 45.53125 
Q 48.578125 48.25 48.578125 53.8125 
Q 48.578125 59.328125 45.03125 62.0625 
Q 41.5 64.796875 34.28125 64.796875 
z
M 9.8125 72.90625 
L 35.015625 72.90625 
Q 46.296875 72.90625 52.390625 68.21875 
Q 58.5 63.53125 58.5 54.890625 
Q 58.5 48.1875 55.375 44.234375 
Q 52.25 40.28125 46.1875 39.3125 
Q 53.46875 37.75 57.5 32.78125 
Q 61.53125 27.828125 61.53125 20.40625 
Q 61.53125 10.640625 54.890625 5.3125 
Q 48.25 0 35.984375 0 
L 9.8125 0 
z
" id="DejaVuSans-66"/>
      </defs>
      <use xlink:href="#DejaVuSans-83"/>
      <use x="63.476562" xlink:href="#DejaVuSans-78"/>
      <use x="138.28125" xlink:href="#DejaVuSans-66"/>
     </g>
    </g>
   </g>
  </g>
  <g id="axes_2">
   <g id="patch_8">
    <path d="M 67.39 386.44 
L 707.569487 386.44 
L 707.569487 223.29 
L 67.39 223.29 
z
" style="fill:#ffffff;"/>
   </g>
   <g id="matplotlib.axis_3">
    <g id="xtick_10">
     <g id="line2d_22">
      <g>
       <use style="stroke:#000000;stroke-width:0.8;" x="96.489068" xlink:href="#m4db4b5d26e" y="386.44"/>
      </g>
     </g>
     <g id="text_10">
      <!-- 0 -->
      <g transform="translate(93.307818 401.038437)scale(0.1 -0.1)">
       <use xlink:href="#DejaVuSans-48"/>
      </g>
     </g>
    </g>
    <g id="xtick_11">
     <g id="line2d_23">
      <g>
       <use style="stroke:#000000;stroke-width:0.8;" x="171.288086" xlink:href="#m4db4b5d26e" y="386.44"/>
      </g>
     </g>
     <g id="text_11">
      <!-- 200 -->
      <g transform="translate(161.744336 401.038437)scale(0.1 -0.1)">
       <use xlink:href="#DejaVuSans-50"/>
       <use x="63.623047" xlink:href="#DejaVuSans-48"/>
       <use x="127.246094" xlink:href="#DejaVuSans-48"/>
      </g>
     </g>
    </g>
    <g id="xtick_12">
     <g id="line2d_24">
      <g>
       <use style="stroke:#000000;stroke-width:0.8;" x="246.087104" xlink:href="#m4db4b5d26e" y="386.44"/>
      </g>
     </g>
     <g id="text_12">
      <!-- 400 -->
      <g transform="translate(236.543354 401.038437)scale(0.1 -0.1)">
       <defs>
        <path d="M 37.796875 64.3125 
L 12.890625 25.390625 
L 37.796875 25.390625 
z
M 35.203125 72.90625 
L 47.609375 72.90625 
L 47.609375 25.390625 
L 58.015625 25.390625 
L 58.015625 17.1875 
L 47.609375 17.1875 
L 47.609375 0 
L 37.796875 0 
L 37.796875 17.1875 
L 4.890625 17.1875 
L 4.890625 26.703125 
z
" id="DejaVuSans-52"/>
       </defs>
       <use xlink:href="#DejaVuSans-52"/>
       <use x="63.623047" xlink:href="#DejaVuSans-48"/>
       <use x="127.246094" xlink:href="#DejaVuSans-48"/>
      </g>
     </g>
    </g>
    <g id="xtick_13">
     <g id="line2d_25">
      <g>
       <use style="stroke:#000000;stroke-width:0.8;" x="320.886122" xlink:href="#m4db4b5d26e" y="386.44"/>
      </g>
     </g>
     <g id="text_13">
      <!-- 600 -->
      <g transform="translate(311.342372 401.038437)scale(0.1 -0.1)">
       <defs>
        <path d="M 33.015625 40.375 
Q 26.375 40.375 22.484375 35.828125 
Q 18.609375 31.296875 18.609375 23.390625 
Q 18.609375 15.53125 22.484375 10.953125 
Q 26.375 6.390625 33.015625 6.390625 
Q 39.65625 6.390625 43.53125 10.953125 
Q 47.40625 15.53125 47.40625 23.390625 
Q 47.40625 31.296875 43.53125 35.828125 
Q 39.65625 40.375 33.015625 40.375 
z
M 52.59375 71.296875 
L 52.59375 62.3125 
Q 48.875 64.0625 45.09375 64.984375 
Q 41.3125 65.921875 37.59375 65.921875 
Q 27.828125 65.921875 22.671875 59.328125 
Q 17.53125 52.734375 16.796875 39.40625 
Q 19.671875 43.65625 24.015625 45.921875 
Q 28.375 48.1875 33.59375 48.1875 
Q 44.578125 48.1875 50.953125 41.515625 
Q 57.328125 34.859375 57.328125 23.390625 
Q 57.328125 12.15625 50.6875 5.359375 
Q 44.046875 -1.421875 33.015625 -1.421875 
Q 20.359375 -1.421875 13.671875 8.265625 
Q 6.984375 17.96875 6.984375 36.375 
Q 6.984375 53.65625 15.1875 63.9375 
Q 23.390625 74.21875 37.203125 74.21875 
Q 40.921875 74.21875 44.703125 73.484375 
Q 48.484375 72.75 52.59375 71.296875 
z
" id="DejaVuSans-54"/>
       </defs>
       <use xlink:href="#DejaVuSans-54"/>
       <use x="63.623047" xlink:href="#DejaVuSans-48"/>
       <use x="127.246094" xlink:href="#DejaVuSans-48"/>
      </g>
     </g>
    </g>
    <g id="xtick_14">
     <g id="line2d_26">
      <g>
       <use style="stroke:#000000;stroke-width:0.8;" x="395.68514" xlink:href="#m4db4b5d26e" y="386.44"/>
      </g>
     </g>
     <g id="text_14">
      <!-- 800 -->
      <g transform="translate(386.14139 401.038437)scale(0.1 -0.1)">
       <defs>
        <path d="M 31.78125 34.625 
Q 24.75 34.625 20.71875 30.859375 
Q 16.703125 27.09375 16.703125 20.515625 
Q 16.703125 13.921875 20.71875 10.15625 
Q 24.75 6.390625 31.78125 6.390625 
Q 38.8125 6.390625 42.859375 10.171875 
Q 46.921875 13.96875 46.921875 20.515625 
Q 46.921875 27.09375 42.890625 30.859375 
Q 38.875 34.625 31.78125 34.625 
z
M 21.921875 38.8125 
Q 15.578125 40.375 12.03125 44.71875 
Q 8.5 49.078125 8.5 55.328125 
Q 8.5 64.0625 14.71875 69.140625 
Q 20.953125 74.21875 31.78125 74.21875 
Q 42.671875 74.21875 48.875 69.140625 
Q 55.078125 64.0625 55.078125 55.328125 
Q 55.078125 49.078125 51.53125 44.71875 
Q 48 40.375 41.703125 38.8125 
Q 48.828125 37.15625 52.796875 32.3125 
Q 56.78125 27.484375 56.78125 20.515625 
Q 56.78125 9.90625 50.3125 4.234375 
Q 43.84375 -1.421875 31.78125 -1.421875 
Q 19.734375 -1.421875 13.25 4.234375 
Q 6.78125 9.90625 6.78125 20.515625 
Q 6.78125 27.484375 10.78125 32.3125 
Q 14.796875 37.15625 21.921875 38.8125 
z
M 18.3125 54.390625 
Q 18.3125 48.734375 21.84375 45.5625 
Q 25.390625 42.390625 31.78125 42.390625 
Q 38.140625 42.390625 41.71875 45.5625 
Q 45.3125 48.734375 45.3125 54.390625 
Q 45.3125 60.0625 41.71875 63.234375 
Q 38.140625 66.40625 31.78125 66.40625 
Q 25.390625 66.40625 21.84375 63.234375 
Q 18.3125 60.0625 18.3125 54.390625 
z
" id="DejaVuSans-56"/>
       </defs>
       <use xlink:href="#DejaVuSans-56"/>
       <use x="63.623047" xlink:href="#DejaVuSans-48"/>
       <use x="127.246094" xlink:href="#DejaVuSans-48"/>
      </g>
     </g>
    </g>
    <g id="xtick_15">
     <g id="line2d_27">
      <g>
       <use style="stroke:#000000;stroke-width:0.8;" x="470.484159" xlink:href="#m4db4b5d26e" y="386.44"/>
      </g>
     </g>
     <g id="text_15">
      <!-- 1000 -->
      <g transform="translate(457.759159 401.038437)scale(0.1 -0.1)">
       <use xlink:href="#DejaVuSans-49"/>
       <use x="63.623047" xlink:href="#DejaVuSans-48"/>
       <use x="127.246094" xlink:href="#DejaVuSans-48"/>
       <use x="190.869141" xlink:href="#DejaVuSans-48"/>
      </g>
     </g>
    </g>
    <g id="xtick_16">
     <g id="line2d_28">
      <g>
       <use style="stroke:#000000;stroke-width:0.8;" x="545.283177" xlink:href="#m4db4b5d26e" y="386.44"/>
      </g>
     </g>
     <g id="text_16">
      <!-- 1200 -->
      <g transform="translate(532.558177 401.038437)scale(0.1 -0.1)">
       <use xlink:href="#DejaVuSans-49"/>
       <use x="63.623047" xlink:href="#DejaVuSans-50"/>
       <use x="127.246094" xlink:href="#DejaVuSans-48"/>
       <use x="190.869141" xlink:href="#DejaVuSans-48"/>
      </g>
     </g>
    </g>
    <g id="xtick_17">
     <g id="line2d_29">
      <g>
       <use style="stroke:#000000;stroke-width:0.8;" x="620.082195" xlink:href="#m4db4b5d26e" y="386.44"/>
      </g>
     </g>
     <g id="text_17">
      <!-- 1400 -->
      <g transform="translate(607.357195 401.038437)scale(0.1 -0.1)">
       <use xlink:href="#DejaVuSans-49"/>
       <use x="63.623047" xlink:href="#DejaVuSans-52"/>
       <use x="127.246094" xlink:href="#DejaVuSans-48"/>
       <use x="190.869141" xlink:href="#DejaVuSans-48"/>
      </g>
     </g>
    </g>
    <g id="xtick_18">
     <g id="line2d_30">
      <g>
       <use style="stroke:#000000;stroke-width:0.8;" x="694.881213" xlink:href="#m4db4b5d26e" y="386.44"/>
      </g>
     </g>
     <g id="text_18">
      <!-- 1600 -->
      <g transform="translate(682.156213 401.038437)scale(0.1 -0.1)">
       <use xlink:href="#DejaVuSans-49"/>
       <use x="63.623047" xlink:href="#DejaVuSans-54"/>
       <use x="127.246094" xlink:href="#DejaVuSans-48"/>
       <use x="190.869141" xlink:href="#DejaVuSans-48"/>
      </g>
     </g>
    </g>
    <g id="text_19">
     <!-- Time [s] -->
     <g transform="translate(359.019275 417.755938)scale(0.14 -0.14)">
      <defs>
       <path d="M -0.296875 72.90625 
L 61.375 72.90625 
L 61.375 64.59375 
L 35.5 64.59375 
L 35.5 0 
L 25.59375 0 
L 25.59375 64.59375 
L -0.296875 64.59375 
z
" id="DejaVuSans-84"/>
       <path d="M 9.421875 54.6875 
L 18.40625 54.6875 
L 18.40625 0 
L 9.421875 0 
z
M 9.421875 75.984375 
L 18.40625 75.984375 
L 18.40625 64.59375 
L 9.421875 64.59375 
z
" id="DejaVuSans-105"/>
       <path d="M 52 44.1875 
Q 55.375 50.25 60.0625 53.125 
Q 64.75 56 71.09375 56 
Q 79.640625 56 84.28125 50.015625 
Q 88.921875 44.046875 88.921875 33.015625 
L 88.921875 0 
L 79.890625 0 
L 79.890625 32.71875 
Q 79.890625 40.578125 77.09375 44.375 
Q 74.3125 48.1875 68.609375 48.1875 
Q 61.625 48.1875 57.5625 43.546875 
Q 53.515625 38.921875 53.515625 30.90625 
L 53.515625 0 
L 44.484375 0 
L 44.484375 32.71875 
Q 44.484375 40.625 41.703125 44.40625 
Q 38.921875 48.1875 33.109375 48.1875 
Q 26.21875 48.1875 22.15625 43.53125 
Q 18.109375 38.875 18.109375 30.90625 
L 18.109375 0 
L 9.078125 0 
L 9.078125 54.6875 
L 18.109375 54.6875 
L 18.109375 46.1875 
Q 21.1875 51.21875 25.484375 53.609375 
Q 29.78125 56 35.6875 56 
Q 41.65625 56 45.828125 52.96875 
Q 50 49.953125 52 44.1875 
z
" id="DejaVuSans-109"/>
       <path id="DejaVuSans-32"/>
       <path d="M 8.59375 75.984375 
L 29.296875 75.984375 
L 29.296875 69 
L 17.578125 69 
L 17.578125 -6.203125 
L 29.296875 -6.203125 
L 29.296875 -13.1875 
L 8.59375 -13.1875 
z
" id="DejaVuSans-91"/>
       <path d="M 44.28125 53.078125 
L 44.28125 44.578125 
Q 40.484375 46.53125 36.375 47.5 
Q 32.28125 48.484375 27.875 48.484375 
Q 21.1875 48.484375 17.84375 46.4375 
Q 14.5 44.390625 14.5 40.28125 
Q 14.5 37.15625 16.890625 35.375 
Q 19.28125 33.59375 26.515625 31.984375 
L 29.59375 31.296875 
Q 39.15625 29.25 43.1875 25.515625 
Q 47.21875 21.78125 47.21875 15.09375 
Q 47.21875 7.46875 41.1875 3.015625 
Q 35.15625 -1.421875 24.609375 -1.421875 
Q 20.21875 -1.421875 15.453125 -0.5625 
Q 10.6875 0.296875 5.421875 2 
L 5.421875 11.28125 
Q 10.40625 8.6875 15.234375 7.390625 
Q 20.0625 6.109375 24.8125 6.109375 
Q 31.15625 6.109375 34.5625 8.28125 
Q 37.984375 10.453125 37.984375 14.40625 
Q 37.984375 18.0625 35.515625 20.015625 
Q 33.0625 21.96875 24.703125 23.78125 
L 21.578125 24.515625 
Q 13.234375 26.265625 9.515625 29.90625 
Q 5.8125 33.546875 5.8125 39.890625 
Q 5.8125 47.609375 11.28125 51.796875 
Q 16.75 56 26.8125 56 
Q 31.78125 56 36.171875 55.265625 
Q 40.578125 54.546875 44.28125 53.078125 
z
" id="DejaVuSans-115"/>
       <path d="M 30.421875 75.984375 
L 30.421875 -13.1875 
L 9.71875 -13.1875 
L 9.71875 -6.203125 
L 21.390625 -6.203125 
L 21.390625 69 
L 9.71875 69 
L 9.71875 75.984375 
z
" id="DejaVuSans-93"/>
      </defs>
      <use xlink:href="#DejaVuSans-84"/>
      <use x="57.958984" xlink:href="#DejaVuSans-105"/>
      <use x="85.742188" xlink:href="#DejaVuSans-109"/>
      <use x="183.154297" xlink:href="#DejaVuSans-101"/>
      <use x="244.677734" xlink:href="#DejaVuSans-32"/>
      <use x="276.464844" xlink:href="#DejaVuSans-91"/>
      <use x="315.478516" xlink:href="#DejaVuSans-115"/>
      <use x="367.578125" xlink:href="#DejaVuSans-93"/>
     </g>
    </g>
   </g>
   <g id="matplotlib.axis_4">
    <g id="ytick_7">
     <g id="line2d_31">
      <g>
       <use style="stroke:#000000;stroke-width:0.8;" x="67.39" xlink:href="#m5b97d1460e" y="379.024091"/>
      </g>
     </g>
     <g id="text_20">
      <!-- 0 -->
      <g transform="translate(54.0275 382.82331)scale(0.1 -0.1)">
       <use xlink:href="#DejaVuSans-48"/>
      </g>
     </g>
    </g>
    <g id="ytick_8">
     <g id="line2d_32">
      <g>
       <use style="stroke:#000000;stroke-width:0.8;" x="67.39" xlink:href="#m5b97d1460e" y="348.401273"/>
      </g>
     </g>
     <g id="text_21">
      <!-- 10000 -->
      <g transform="translate(28.5775 352.200492)scale(0.1 -0.1)">
       <use xlink:href="#DejaVuSans-49"/>
       <use x="63.623047" xlink:href="#DejaVuSans-48"/>
       <use x="127.246094" xlink:href="#DejaVuSans-48"/>
       <use x="190.869141" xlink:href="#DejaVuSans-48"/>
       <use x="254.492188" xlink:href="#DejaVuSans-48"/>
      </g>
     </g>
    </g>
    <g id="ytick_9">
     <g id="line2d_33">
      <g>
       <use style="stroke:#000000;stroke-width:0.8;" x="67.39" xlink:href="#m5b97d1460e" y="317.778455"/>
      </g>
     </g>
     <g id="text_22">
      <!-- 20000 -->
      <g transform="translate(28.5775 321.577674)scale(0.1 -0.1)">
       <use xlink:href="#DejaVuSans-50"/>
       <use x="63.623047" xlink:href="#DejaVuSans-48"/>
       <use x="127.246094" xlink:href="#DejaVuSans-48"/>
       <use x="190.869141" xlink:href="#DejaVuSans-48"/>
       <use x="254.492188" xlink:href="#DejaVuSans-48"/>
      </g>
     </g>
    </g>
    <g id="ytick_10">
     <g id="line2d_34">
      <g>
       <use style="stroke:#000000;stroke-width:0.8;" x="67.39" xlink:href="#m5b97d1460e" y="287.155637"/>
      </g>
     </g>
     <g id="text_23">
      <!-- 30000 -->
      <g transform="translate(28.5775 290.954856)scale(0.1 -0.1)">
       <use xlink:href="#DejaVuSans-51"/>
       <use x="63.623047" xlink:href="#DejaVuSans-48"/>
       <use x="127.246094" xlink:href="#DejaVuSans-48"/>
       <use x="190.869141" xlink:href="#DejaVuSans-48"/>
       <use x="254.492188" xlink:href="#DejaVuSans-48"/>
      </g>
     </g>
    </g>
    <g id="ytick_11">
     <g id="line2d_35">
      <g>
       <use style="stroke:#000000;stroke-width:0.8;" x="67.39" xlink:href="#m5b97d1460e" y="256.532819"/>
      </g>
     </g>
     <g id="text_24">
      <!-- 40000 -->
      <g transform="translate(28.5775 260.332038)scale(0.1 -0.1)">
       <use xlink:href="#DejaVuSans-52"/>
       <use x="63.623047" xlink:href="#DejaVuSans-48"/>
       <use x="127.246094" xlink:href="#DejaVuSans-48"/>
       <use x="190.869141" xlink:href="#DejaVuSans-48"/>
       <use x="254.492188" xlink:href="#DejaVuSans-48"/>
      </g>
     </g>
    </g>
    <g id="ytick_12">
     <g id="line2d_36">
      <g>
       <use style="stroke:#000000;stroke-width:0.8;" x="67.39" xlink:href="#m5b97d1460e" y="225.910002"/>
      </g>
     </g>
     <g id="text_25">
      <!-- 50000 -->
      <g transform="translate(28.5775 229.70922)scale(0.1 -0.1)">
       <use xlink:href="#DejaVuSans-53"/>
       <use x="63.623047" xlink:href="#DejaVuSans-48"/>
       <use x="127.246094" xlink:href="#DejaVuSans-48"/>
       <use x="190.869141" xlink:href="#DejaVuSans-48"/>
       <use x="254.492188" xlink:href="#DejaVuSans-48"/>
      </g>
     </g>
    </g>
   </g>
   <g id="line2d_37">
    <path clip-path="url(#p40a801ee3f)" d="M 96.489068 379.022336 
L 140.897283 379.019166 
L 143.234558 378.71803 
L 145.571832 378.179721 
L 150.246381 375.916221 
L 152.583656 377.59292 
L 154.92093 339.267565 
L 157.258205 295.854112 
L 159.595479 285.17732 
L 161.932754 295.052485 
L 164.270028 259.196285 
L 166.607303 254.93318 
L 168.944577 255.097366 
L 171.281852 277.346732 
L 173.619126 255.873881 
L 175.956401 254.346012 
L 178.293675 275.178935 
L 180.63095 257.874979 
L 182.968224 253.371322 
L 185.305499 255.596754 
L 187.642773 264.255401 
L 189.980048 253.983183 
L 192.317322 254.323949 
L 194.654597 282.034036 
L 196.991871 264.5141 
L 199.329146 262.676259 
L 201.66642 263.017831 
L 204.003695 283.556057 
L 206.340969 277.524125 
L 208.678244 278.134841 
L 211.015518 279.011932 
L 213.352793 293.950212 
L 215.690067 289.776491 
L 218.027342 295.915098 
L 220.364616 295.922358 
L 222.701891 309.695422 
L 225.039165 306.800622 
L 227.37644 307.183812 
L 229.713714 312.799648 
L 232.050989 321.914741 
L 234.388263 321.75071 
L 236.725538 322.483584 
L 239.062812 322.420029 
L 241.400087 322.099248 
L 243.737361 331.696876 
L 246.074636 329.013079 
L 248.41191 329.170615 
L 255.423734 328.187349 
L 260.098283 327.516904 
L 262.435557 335.228434 
L 264.772832 333.363973 
L 267.110106 329.045083 
L 274.12193 327.965889 
L 276.459204 327.633068 
L 292.820126 324.272551 
L 297.494675 323.254886 
L 299.83195 322.804011 
L 304.506499 321.690621 
L 309.181048 320.812237 
L 313.855597 319.833437 
L 316.192871 319.492916 
L 318.530146 313.793356 
L 323.204695 312.857135 
L 334.891067 311.178727 
L 337.228342 304.270967 
L 351.251989 302.6342 
L 358.263812 301.419024 
L 365.275636 300.426461 
L 367.61291 292.787582 
L 376.962008 291.590929 
L 381.636557 290.962752 
L 386.311106 290.547539 
L 400.334753 288.925559 
L 402.672028 281.263845 
L 407.346577 280.873473 
L 412.021126 280.837791 
L 419.032949 281.172925 
L 426.044773 281.981081 
L 430.719322 282.7897 
L 433.056596 282.865892 
L 435.393871 283.307537 
L 437.731145 283.966709 
L 440.06842 284.287701 
L 442.405694 284.467583 
L 444.742969 284.840145 
L 454.092067 287.853021 
L 456.429341 288.90939 
L 461.10389 290.594479 
L 463.441165 292.266375 
L 465.778439 294.292132 
L 468.115714 295.630575 
L 472.790263 297.385575 
L 477.464812 300.233045 
L 479.802086 301.503113 
L 482.139361 304.325755 
L 484.476635 309.988177 
L 486.81391 298.984767 
L 489.151184 290.358177 
L 491.488459 282.462522 
L 493.825733 281.084457 
L 496.163008 280.192782 
L 498.500282 274.836549 
L 500.837557 274.253315 
L 503.174831 273.794975 
L 505.512106 273.547105 
L 507.849381 273.425137 
L 510.186655 273.498216 
L 512.52393 273.816503 
L 514.861204 274.343454 
L 517.198479 272.366476 
L 519.535753 274.428153 
L 521.873028 277.474475 
L 524.210302 283.741543 
L 526.547577 287.239334 
L 531.222126 295.382622 
L 533.5594 300.747245 
L 535.896675 284.536576 
L 538.233949 279.097774 
L 540.571224 274.832376 
L 542.908498 275.557366 
L 545.245773 279.025355 
L 547.583047 283.651281 
L 552.257596 295.563784 
L 554.594871 291.604253 
L 556.932145 275.901318 
L 559.26942 272.203581 
L 561.606694 271.026165 
L 563.943969 272.774129 
L 566.281243 275.772722 
L 568.618518 279.066591 
L 570.955792 281.807932 
L 573.293067 284.767434 
L 575.630341 285.489575 
L 577.967616 287.466003 
L 580.30489 291.76777 
L 582.642165 305.812803 
L 584.979439 266.231611 
L 587.316714 265.333614 
L 589.653988 263.029869 
L 591.991263 262.680732 
L 594.328537 262.530564 
L 596.665812 265.924584 
L 599.003086 268.165157 
L 601.340361 272.013335 
L 603.677635 276.717933 
L 606.01491 282.228624 
L 608.352184 286.906248 
L 610.689459 294.397095 
L 613.026733 268.771239 
L 615.364008 267.106589 
L 617.701282 270.157719 
L 620.038557 272.047988 
L 622.375831 275.163032 
L 624.713106 278.561737 
L 627.05038 282.560243 
L 629.387655 283.043986 
L 631.724929 285.294156 
L 634.062204 289.686113 
L 636.399478 279.768324 
L 638.736753 268.641082 
L 641.074027 264.097611 
L 643.411302 266.226067 
L 645.748576 264.447 
L 648.085851 269.946412 
L 650.423125 269.438234 
L 655.097674 269.058061 
L 659.772223 268.65619 
L 666.784047 267.928616 
L 673.79587 266.702829 
L 676.133145 266.466185 
L 678.470419 266.469816 
L 678.470419 266.469816 
" style="fill:none;stroke:#000000;stroke-linecap:square;stroke-width:1.5;"/>
   </g>
   <g id="line2d_38">
    <path clip-path="url(#p40a801ee3f)" d="M 96.489068 379.024091 
L 157.258205 379.019052 
L 159.595479 378.209942 
L 161.932754 376.475473 
L 164.270028 375.209443 
L 166.607303 370.800637 
L 168.944577 318.024665 
L 171.281852 293.810162 
L 173.619126 295.637321 
L 175.956401 265.9697 
L 178.293675 242.43932 
L 180.63095 249.996915 
L 182.968224 261.159376 
L 185.305499 258.338614 
L 187.642773 244.541885 
L 189.980048 241.33416 
L 192.317322 250.870856 
L 194.654597 258.80913 
L 196.991871 243.941836 
L 199.329146 239.939284 
L 201.66642 237.27359 
L 204.003695 272.592218 
L 206.340969 244.910333 
L 208.678244 236.959425 
L 211.015518 232.999657 
L 213.352793 230.705909 
L 215.690067 272.999407 
L 218.027342 248.765995 
L 220.364616 240.489507 
L 222.701891 237.079673 
L 225.039165 234.809465 
L 227.37644 271.53991 
L 229.713714 255.279386 
L 232.050989 248.476313 
L 234.388263 245.913081 
L 236.725538 263.922685 
L 239.062812 273.776066 
L 241.400087 266.697953 
L 243.737361 258.555152 
L 246.074636 257.258777 
L 248.41191 261.256143 
L 250.749185 289.803205 
L 253.086459 282.51799 
L 255.423734 272.92804 
L 257.761008 271.741917 
L 260.098283 270.838596 
L 262.435557 270.268207 
L 267.110106 269.363148 
L 271.784655 268.310535 
L 276.459204 267.300798 
L 281.133754 266.117475 
L 285.808303 265.096452 
L 292.820126 263.358857 
L 297.494675 262.4348 
L 299.83195 261.899566 
L 302.169224 261.546055 
L 304.506499 264.772517 
L 306.843773 292.596546 
L 309.181048 289.845612 
L 311.518322 278.517403 
L 313.855597 277.980916 
L 316.192871 277.772497 
L 318.530146 270.93301 
L 327.879244 270.452928 
L 330.216518 270.511927 
L 334.891067 270.998617 
L 337.228342 271.439284 
L 341.902891 272.764691 
L 346.57744 274.279912 
L 353.589263 276.591922 
L 355.926538 277.296929 
L 358.263812 277.803844 
L 369.950185 279.279936 
L 372.287459 279.990659 
L 379.299283 282.611785 
L 381.636557 283.086505 
L 383.973832 283.148759 
L 386.311106 282.529904 
L 388.648381 281.526922 
L 390.985655 280.961841 
L 393.32293 280.643885 
L 395.660204 280.616993 
L 397.997479 281.085203 
L 400.334753 277.388173 
L 405.009302 279.315738 
L 407.346577 280.636703 
L 412.021126 284.41325 
L 414.3584 290.374313 
L 416.695675 292.736289 
L 419.032949 295.520763 
L 421.370224 299.047349 
L 423.707498 302.994824 
L 426.044773 306.708433 
L 428.382047 305.348397 
L 430.719322 285.464504 
L 433.056596 277.076547 
L 435.393871 273.671403 
L 437.731145 274.550827 
L 440.06842 276.4327 
L 442.405694 278.576256 
L 444.742969 279.659036 
L 447.080243 279.747678 
L 449.417518 281.375897 
L 451.754792 283.812281 
L 454.092067 285.694631 
L 456.429341 288.776616 
L 458.766616 289.76471 
L 463.441165 294.366339 
L 465.778439 295.386128 
L 468.115714 297.002556 
L 470.452988 300.586558 
L 472.790263 306.043386 
L 475.127537 276.486725 
L 477.464812 271.292922 
L 479.802086 266.82383 
L 482.139361 266.513114 
L 484.476635 266.724282 
L 486.81391 267.792183 
L 489.151184 269.041107 
L 491.488459 270.795065 
L 496.163008 276.493523 
L 500.837557 280.451804 
L 503.174831 282.940636 
L 505.512106 285.080299 
L 512.52393 286.965581 
L 514.861204 286.97501 
L 517.198479 287.442692 
L 519.535753 288.369833 
L 521.873028 290.165528 
L 524.210302 293.032907 
L 526.547577 296.614022 
L 528.884851 299.52857 
L 531.222126 282.996334 
L 533.5594 274.692327 
L 535.896675 272.804035 
L 538.233949 271.536293 
L 540.571224 276.304549 
L 542.908498 277.716156 
L 545.245773 279.595883 
L 547.583047 277.572352 
L 549.920322 279.390202 
L 552.257596 281.722361 
L 554.594871 284.306273 
L 556.932145 284.562608 
L 561.606694 288.678525 
L 563.943969 291.227523 
L 566.281243 294.214102 
L 568.618518 262.823926 
L 570.955792 266.446269 
L 573.293067 271.424186 
L 575.630341 273.962285 
L 577.967616 277.406754 
L 580.30489 281.160324 
L 582.642165 286.175409 
L 584.979439 293.453698 
L 587.316714 301.219089 
L 589.653988 265.378041 
L 591.991263 269.837569 
L 594.328537 278.079419 
L 599.003086 282.942118 
L 601.340361 286.240772 
L 603.677635 284.659712 
L 606.01491 289.664656 
L 608.352184 289.368693 
L 610.689459 292.466323 
L 613.026733 267.570986 
L 615.364008 266.575362 
L 617.701282 262.382878 
L 620.038557 268.960686 
L 622.375831 268.496887 
L 624.713106 269.166868 
L 627.05038 270.486302 
L 629.387655 272.141921 
L 636.399478 279.218843 
L 638.736753 281.088394 
L 641.074027 283.346037 
L 643.411302 285.872363 
L 645.748576 288.132845 
L 648.085851 283.890547 
L 650.423125 285.774862 
L 652.7604 286.740303 
L 655.097674 285.879057 
L 659.772223 282.146596 
L 662.109498 281.429838 
L 664.446772 288.744312 
L 666.784047 290.398113 
L 669.121321 292.773053 
L 671.458596 295.516745 
L 673.79587 291.688712 
L 676.133145 293.395822 
L 678.470419 294.695188 
L 678.470419 294.695188 
" style="fill:none;stroke:#ff0000;stroke-dasharray:5.55,2.4;stroke-dashoffset:0;stroke-width:1.5;"/>
   </g>
   <g id="patch_9">
    <path d="M 67.39 386.44 
L 67.39 223.29 
" style="fill:none;stroke:#000000;stroke-linecap:square;stroke-linejoin:miter;stroke-width:0.8;"/>
   </g>
   <g id="patch_10">
    <path d="M 707.569487 386.44 
L 707.569487 223.29 
" style="fill:none;stroke:#000000;stroke-linecap:square;stroke-linejoin:miter;stroke-width:0.8;"/>
   </g>
   <g id="patch_11">
    <path d="M 67.39 386.44 
L 707.569487 386.44 
" style="fill:none;stroke:#000000;stroke-linecap:square;stroke-linejoin:miter;stroke-width:0.8;"/>
   </g>
   <g id="patch_12">
    <path d="M 67.39 223.29 
L 707.569487 223.29 
" style="fill:none;stroke:#000000;stroke-linecap:square;stroke-linejoin:miter;stroke-width:0.8;"/>
   </g>
   <g id="text_26">
    <!-- Footpoint -->
    <g transform="translate(349.839743 217.29)scale(0.16 -0.16)">
     <defs>
      <path d="M 9.8125 72.90625 
L 51.703125 72.90625 
L 51.703125 64.59375 
L 19.671875 64.59375 
L 19.671875 43.109375 
L 48.578125 43.109375 
L 48.578125 34.8125 
L 19.671875 34.8125 
L 19.671875 0 
L 9.8125 0 
z
" id="DejaVuSans-70"/>
      <path d="M 30.609375 48.390625 
Q 23.390625 48.390625 19.1875 42.75 
Q 14.984375 37.109375 14.984375 27.296875 
Q 14.984375 17.484375 19.15625 11.84375 
Q 23.34375 6.203125 30.609375 6.203125 
Q 37.796875 6.203125 41.984375 11.859375 
Q 46.1875 17.53125 46.1875 27.296875 
Q 46.1875 37.015625 41.984375 42.703125 
Q 37.796875 48.390625 30.609375 48.390625 
z
M 30.609375 56 
Q 42.328125 56 49.015625 48.375 
Q 55.71875 40.765625 55.71875 27.296875 
Q 55.71875 13.875 49.015625 6.21875 
Q 42.328125 -1.421875 30.609375 -1.421875 
Q 18.84375 -1.421875 12.171875 6.21875 
Q 5.515625 13.875 5.515625 27.296875 
Q 5.515625 40.765625 12.171875 48.375 
Q 18.84375 56 30.609375 56 
z
" id="DejaVuSans-111"/>
      <path d="M 18.3125 70.21875 
L 18.3125 54.6875 
L 36.8125 54.6875 
L 36.8125 47.703125 
L 18.3125 47.703125 
L 18.3125 18.015625 
Q 18.3125 11.328125 20.140625 9.421875 
Q 21.96875 7.515625 27.59375 7.515625 
L 36.8125 7.515625 
L 36.8125 0 
L 27.59375 0 
Q 17.1875 0 13.234375 3.875 
Q 9.28125 7.765625 9.28125 18.015625 
L 9.28125 47.703125 
L 2.6875 47.703125 
L 2.6875 54.6875 
L 9.28125 54.6875 
L 9.28125 70.21875 
z
" id="DejaVuSans-116"/>
      <path d="M 54.890625 33.015625 
L 54.890625 0 
L 45.90625 0 
L 45.90625 32.71875 
Q 45.90625 40.484375 42.875 44.328125 
Q 39.84375 48.1875 33.796875 48.1875 
Q 26.515625 48.1875 22.3125 43.546875 
Q 18.109375 38.921875 18.109375 30.90625 
L 18.109375 0 
L 9.078125 0 
L 9.078125 54.6875 
L 18.109375 54.6875 
L 18.109375 46.1875 
Q 21.34375 51.125 25.703125 53.5625 
Q 30.078125 56 35.796875 56 
Q 45.21875 56 50.046875 50.171875 
Q 54.890625 44.34375 54.890625 33.015625 
z
" id="DejaVuSans-110"/>
     </defs>
     <use xlink:href="#DejaVuSans-70"/>
     <use x="53.894531" xlink:href="#DejaVuSans-111"/>
     <use x="115.076172" xlink:href="#DejaVuSans-111"/>
     <use x="176.257812" xlink:href="#DejaVuSans-116"/>
     <use x="215.466797" xlink:href="#DejaVuSans-112"/>
     <use x="278.943359" xlink:href="#DejaVuSans-111"/>
     <use x="340.125" xlink:href="#DejaVuSans-105"/>
     <use x="367.908203" xlink:href="#DejaVuSans-110"/>
     <use x="431.287109" xlink:href="#DejaVuSans-116"/>
    </g>
   </g>
   <g id="legend_2">
    <g id="patch_13">
     <path d="M 647.878862 381.44 
L 700.569487 381.44 
Q 702.569487 381.44 702.569487 379.44 
L 702.569487 351.08375 
Q 702.569487 349.08375 700.569487 349.08375 
L 647.878862 349.08375 
Q 645.878862 349.08375 645.878862 351.08375 
L 645.878862 379.44 
Q 645.878862 381.44 647.878862 381.44 
z
" style="fill:#ffffff;opacity:0.8;stroke:#cccccc;stroke-linejoin:miter;"/>
    </g>
    <g id="line2d_39">
     <path d="M 649.878862 357.182187 
L 669.878862 357.182187 
" style="fill:none;stroke:#000000;stroke-linecap:square;stroke-width:1.5;"/>
    </g>
    <g id="line2d_40"/>
    <g id="text_27">
     <!-- SH -->
     <g transform="translate(677.878862 360.682187)scale(0.1 -0.1)">
      <use xlink:href="#DejaVuSans-83"/>
      <use x="63.476562" xlink:href="#DejaVuSans-72"/>
     </g>
    </g>
    <g id="line2d_41">
     <path d="M 649.878862 371.860313 
L 669.878862 371.860313 
" style="fill:none;stroke:#ff0000;stroke-dasharray:5.55,2.4;stroke-dashoffset:0;stroke-width:1.5;"/>
    </g>
    <g id="line2d_42"/>
    <g id="text_28">
     <!-- SNB -->
     <g transform="translate(677.878862 375.360313)scale(0.1 -0.1)">
      <use xlink:href="#DejaVuSans-83"/>
      <use x="63.476562" xlink:href="#DejaVuSans-78"/>
      <use x="138.28125" xlink:href="#DejaVuSans-66"/>
     </g>
    </g>
   </g>
  </g>
  <g id="text_29">
   <!-- Emissivity [erg s$^{-1}$ cm$^{-3}$ $sr^{-1}$] -->
   <g transform="translate(19.94 321)rotate(-90)scale(0.14 -0.14)">
    <defs>
     <path d="M 9.8125 72.90625 
L 55.90625 72.90625 
L 55.90625 64.59375 
L 19.671875 64.59375 
L 19.671875 43.015625 
L 54.390625 43.015625 
L 54.390625 34.71875 
L 19.671875 34.71875 
L 19.671875 8.296875 
L 56.78125 8.296875 
L 56.78125 0 
L 9.8125 0 
z
" id="DejaVuSans-69"/>
     <path d="M 2.984375 54.6875 
L 12.5 54.6875 
L 29.59375 8.796875 
L 46.6875 54.6875 
L 56.203125 54.6875 
L 35.6875 0 
L 23.484375 0 
z
" id="DejaVuSans-118"/>
     <path d="M 32.171875 -5.078125 
Q 28.375 -14.84375 24.75 -17.8125 
Q 21.140625 -20.796875 15.09375 -20.796875 
L 7.90625 -20.796875 
L 7.90625 -13.28125 
L 13.1875 -13.28125 
Q 16.890625 -13.28125 18.9375 -11.515625 
Q 21 -9.765625 23.484375 -3.21875 
L 25.09375 0.875 
L 2.984375 54.6875 
L 12.5 54.6875 
L 29.59375 11.921875 
L 46.6875 54.6875 
L 56.203125 54.6875 
z
" id="DejaVuSans-121"/>
     <path d="M 41.109375 46.296875 
Q 39.59375 47.171875 37.8125 47.578125 
Q 36.03125 48 33.890625 48 
Q 26.265625 48 22.1875 43.046875 
Q 18.109375 38.09375 18.109375 28.8125 
L 18.109375 0 
L 9.078125 0 
L 9.078125 54.6875 
L 18.109375 54.6875 
L 18.109375 46.1875 
Q 20.953125 51.171875 25.484375 53.578125 
Q 30.03125 56 36.53125 56 
Q 37.453125 56 38.578125 55.875 
Q 39.703125 55.765625 41.0625 55.515625 
z
" id="DejaVuSans-114"/>
     <path d="M 45.40625 27.984375 
Q 45.40625 37.75 41.375 43.109375 
Q 37.359375 48.484375 30.078125 48.484375 
Q 22.859375 48.484375 18.828125 43.109375 
Q 14.796875 37.75 14.796875 27.984375 
Q 14.796875 18.265625 18.828125 12.890625 
Q 22.859375 7.515625 30.078125 7.515625 
Q 37.359375 7.515625 41.375 12.890625 
Q 45.40625 18.265625 45.40625 27.984375 
z
M 54.390625 6.78125 
Q 54.390625 -7.171875 48.1875 -13.984375 
Q 42 -20.796875 29.203125 -20.796875 
Q 24.46875 -20.796875 20.265625 -20.09375 
Q 16.0625 -19.390625 12.109375 -17.921875 
L 12.109375 -9.1875 
Q 16.0625 -11.328125 19.921875 -12.34375 
Q 23.78125 -13.375 27.78125 -13.375 
Q 36.625 -13.375 41.015625 -8.765625 
Q 45.40625 -4.15625 45.40625 5.171875 
L 45.40625 9.625 
Q 42.625 4.78125 38.28125 2.390625 
Q 33.9375 0 27.875 0 
Q 17.828125 0 11.671875 7.65625 
Q 5.515625 15.328125 5.515625 27.984375 
Q 5.515625 40.671875 11.671875 48.328125 
Q 17.828125 56 27.875 56 
Q 33.9375 56 38.28125 53.609375 
Q 42.625 51.21875 45.40625 46.390625 
L 45.40625 54.6875 
L 54.390625 54.6875 
z
" id="DejaVuSans-103"/>
     <path d="M 10.59375 35.5 
L 73.1875 35.5 
L 73.1875 27.203125 
L 10.59375 27.203125 
z
" id="DejaVuSans-8722"/>
     <path d="M 48.78125 52.59375 
L 48.78125 44.1875 
Q 44.96875 46.296875 41.140625 47.34375 
Q 37.3125 48.390625 33.40625 48.390625 
Q 24.65625 48.390625 19.8125 42.84375 
Q 14.984375 37.3125 14.984375 27.296875 
Q 14.984375 17.28125 19.8125 11.734375 
Q 24.65625 6.203125 33.40625 6.203125 
Q 37.3125 6.203125 41.140625 7.25 
Q 44.96875 8.296875 48.78125 10.40625 
L 48.78125 2.09375 
Q 45.015625 0.34375 40.984375 -0.53125 
Q 36.96875 -1.421875 32.421875 -1.421875 
Q 20.0625 -1.421875 12.78125 6.34375 
Q 5.515625 14.109375 5.515625 27.296875 
Q 5.515625 40.671875 12.859375 48.328125 
Q 20.21875 56 33.015625 56 
Q 37.15625 56 41.109375 55.140625 
Q 45.0625 54.296875 48.78125 52.59375 
z
" id="DejaVuSans-99"/>
     <path d="M 50 53.078125 
L 48.296875 44.578125 
Q 44.734375 46.53125 40.765625 47.5 
Q 36.8125 48.484375 32.625 48.484375 
Q 25.53125 48.484375 21.453125 46.0625 
Q 17.390625 43.65625 17.390625 39.5 
Q 17.390625 34.671875 26.859375 32.078125 
Q 27.59375 31.890625 27.9375 31.78125 
L 30.8125 30.90625 
Q 39.796875 28.421875 42.796875 25.6875 
Q 45.796875 22.953125 45.796875 18.21875 
Q 45.796875 9.515625 38.890625 4.046875 
Q 31.984375 -1.421875 20.796875 -1.421875 
Q 16.453125 -1.421875 11.671875 -0.578125 
Q 6.890625 0.25 1.125 2 
L 2.875 11.28125 
Q 7.8125 8.734375 12.59375 7.421875 
Q 17.390625 6.109375 21.78125 6.109375 
Q 28.375 6.109375 32.5 8.9375 
Q 36.625 11.765625 36.625 16.109375 
Q 36.625 20.796875 25.78125 23.6875 
L 24.859375 23.921875 
L 21.78125 24.703125 
Q 14.9375 26.515625 11.765625 29.46875 
Q 8.59375 32.421875 8.59375 37.015625 
Q 8.59375 45.75 15.15625 50.875 
Q 21.734375 56 33.015625 56 
Q 37.453125 56 41.671875 55.265625 
Q 45.90625 54.546875 50 53.078125 
z
" id="DejaVuSans-Oblique-115"/>
     <path d="M 44.578125 46.390625 
Q 43.21875 47.125 41.453125 47.515625 
Q 39.703125 47.90625 37.703125 47.90625 
Q 30.515625 47.90625 25.140625 42.453125 
Q 19.78125 37.015625 18.015625 27.875 
L 12.5 0 
L 3.515625 0 
L 14.203125 54.6875 
L 23.1875 54.6875 
L 21.484375 46.1875 
Q 25.046875 50.921875 30 53.453125 
Q 34.96875 56 40.578125 56 
Q 42.046875 56 43.453125 55.828125 
Q 44.875 55.671875 46.296875 55.28125 
z
" id="DejaVuSans-Oblique-114"/>
    </defs>
    <use transform="translate(0 0.765625)" xlink:href="#DejaVuSans-69"/>
    <use transform="translate(63.183594 0.765625)" xlink:href="#DejaVuSans-109"/>
    <use transform="translate(160.595703 0.765625)" xlink:href="#DejaVuSans-105"/>
    <use transform="translate(188.378906 0.765625)" xlink:href="#DejaVuSans-115"/>
    <use transform="translate(240.478516 0.765625)" xlink:href="#DejaVuSans-115"/>
    <use transform="translate(292.578125 0.765625)" xlink:href="#DejaVuSans-105"/>
    <use transform="translate(320.361328 0.765625)" xlink:href="#DejaVuSans-118"/>
    <use transform="translate(379.541016 0.765625)" xlink:href="#DejaVuSans-105"/>
    <use transform="translate(407.324219 0.765625)" xlink:href="#DejaVuSans-116"/>
    <use transform="translate(446.533203 0.765625)" xlink:href="#DejaVuSans-121"/>
    <use transform="translate(505.712891 0.765625)" xlink:href="#DejaVuSans-32"/>
    <use transform="translate(537.5 0.765625)" xlink:href="#DejaVuSans-91"/>
    <use transform="translate(576.513672 0.765625)" xlink:href="#DejaVuSans-101"/>
    <use transform="translate(638.037109 0.765625)" xlink:href="#DejaVuSans-114"/>
    <use transform="translate(679.150391 0.765625)" xlink:href="#DejaVuSans-103"/>
    <use transform="translate(742.626953 0.765625)" xlink:href="#DejaVuSans-32"/>
    <use transform="translate(774.414062 0.765625)" xlink:href="#DejaVuSans-115"/>
    <use transform="translate(827.470703 39.046875)scale(0.7)" xlink:href="#DejaVuSans-8722"/>
    <use transform="translate(886.123047 39.046875)scale(0.7)" xlink:href="#DejaVuSans-49"/>
    <use transform="translate(933.393555 0.765625)" xlink:href="#DejaVuSans-32"/>
    <use transform="translate(965.180664 0.765625)" xlink:href="#DejaVuSans-99"/>
    <use transform="translate(1020.161133 0.765625)" xlink:href="#DejaVuSans-109"/>
    <use transform="translate(1118.530273 39.046875)scale(0.7)" xlink:href="#DejaVuSans-8722"/>
    <use transform="translate(1177.182617 39.046875)scale(0.7)" xlink:href="#DejaVuSans-51"/>
    <use transform="translate(1224.453125 0.765625)" xlink:href="#DejaVuSans-32"/>
    <use transform="translate(1256.240234 0.765625)" xlink:href="#DejaVuSans-Oblique-115"/>
    <use transform="translate(1308.339844 0.765625)" xlink:href="#DejaVuSans-Oblique-114"/>
    <use transform="translate(1354.103021 39.046875)scale(0.7)" xlink:href="#DejaVuSans-8722"/>
    <use transform="translate(1412.755365 39.046875)scale(0.7)" xlink:href="#DejaVuSans-49"/>
    <use transform="translate(1460.025872 0.765625)" xlink:href="#DejaVuSans-93"/>
   </g>
  </g>
 </g>
 <defs>
  <clipPath id="p8beb328e4b">
   <rect height="163.15" width="640.179487" x="67.39" y="28.32"/>
  </clipPath>
  <clipPath id="p40a801ee3f">
   <rect height="163.15" width="640.179487" x="67.39" y="223.29"/>
  </clipPath>
 </defs>
</svg>
