<?xml version="1.0" encoding="utf-8" standalone="no"?>
<!DOCTYPE svg PUBLIC "-//W3C//DTD SVG 1.1//EN"
  "http://www.w3.org/Graphics/SVG/1.1/DTD/svg11.dtd">
<!-- Created with matplotlib (https://matplotlib.org/) -->
<svg height="288pt" version="1.1" viewBox="0 0 792 288" width="792pt" xmlns="http://www.w3.org/2000/svg" xmlns:xlink="http://www.w3.org/1999/xlink">
 <metadata>
  <rdf:RDF xmlns:cc="http://creativecommons.org/ns#" xmlns:dc="http://purl.org/dc/elements/1.1/" xmlns:rdf="http://www.w3.org/1999/02/22-rdf-syntax-ns#">
   <cc:Work>
    <dc:type rdf:resource="http://purl.org/dc/dcmitype/StillImage"/>
    <dc:date>2025-04-15T09:03:02.565130</dc:date>
    <dc:format>image/svg+xml</dc:format>
    <dc:creator>
     <cc:Agent>
      <dc:title>Matplotlib v3.3.4, https://matplotlib.org/</dc:title>
     </cc:Agent>
    </dc:creator>
   </cc:Work>
  </rdf:RDF>
 </metadata>
 <defs>
  <style type="text/css">*{stroke-linecap:butt;stroke-linejoin:round;}</style>
 </defs>
 <g id="figure_1">
  <g id="patch_1">
   <path d="M 0 288 
L 792 288 
L 792 0 
L 0 0 
z
" style="fill:#ffffff;"/>
  </g>
  <g id="axes_1">
   <g id="patch_2">
    <path d="M 106.319889 250.633333 
L 394.355293 250.633333 
L 394.355293 9 
L 106.319889 9 
z
" style="fill:#ffffff;"/>
   </g>
   <g id="matplotlib.axis_1">
    <g id="xtick_1">
     <g id="line2d_1">
      <defs>
       <path d="M 0 0 
L 0 3.5 
" id="m833f82f166" style="stroke:#000000;stroke-width:0.8;"/>
      </defs>
      <g>
       <use style="stroke:#000000;stroke-width:0.8;" x="119.412407" xlink:href="#m833f82f166" y="250.633333"/>
      </g>
     </g>
     <g id="text_1">
      <!-- 0 -->
      <g transform="translate(116.231157 265.231771)scale(0.1 -0.1)">
       <defs>
        <path d="M 31.78125 66.40625 
Q 24.171875 66.40625 20.328125 58.90625 
Q 16.5 51.421875 16.5 36.375 
Q 16.5 21.390625 20.328125 13.890625 
Q 24.171875 6.390625 31.78125 6.390625 
Q 39.453125 6.390625 43.28125 13.890625 
Q 47.125 21.390625 47.125 36.375 
Q 47.125 51.421875 43.28125 58.90625 
Q 39.453125 66.40625 31.78125 66.40625 
z
M 31.78125 74.21875 
Q 44.046875 74.21875 50.515625 64.515625 
Q 56.984375 54.828125 56.984375 36.375 
Q 56.984375 17.96875 50.515625 8.265625 
Q 44.046875 -1.421875 31.78125 -1.421875 
Q 19.53125 -1.421875 13.0625 8.265625 
Q 6.59375 17.96875 6.59375 36.375 
Q 6.59375 54.828125 13.0625 64.515625 
Q 19.53125 74.21875 31.78125 74.21875 
z
" id="DejaVuSans-48"/>
       </defs>
       <use xlink:href="#DejaVuSans-48"/>
      </g>
     </g>
    </g>
    <g id="xtick_2">
     <g id="line2d_2">
      <g>
       <use style="stroke:#000000;stroke-width:0.8;" x="156.819603" xlink:href="#m833f82f166" y="250.633333"/>
      </g>
     </g>
     <g id="text_2">
      <!-- 10 -->
      <g transform="translate(150.457103 265.231771)scale(0.1 -0.1)">
       <defs>
        <path d="M 12.40625 8.296875 
L 28.515625 8.296875 
L 28.515625 63.921875 
L 10.984375 60.40625 
L 10.984375 69.390625 
L 28.421875 72.90625 
L 38.28125 72.90625 
L 38.28125 8.296875 
L 54.390625 8.296875 
L 54.390625 0 
L 12.40625 0 
z
" id="DejaVuSans-49"/>
       </defs>
       <use xlink:href="#DejaVuSans-49"/>
       <use x="63.623047" xlink:href="#DejaVuSans-48"/>
      </g>
     </g>
    </g>
    <g id="xtick_3">
     <g id="line2d_3">
      <g>
       <use style="stroke:#000000;stroke-width:0.8;" x="194.226798" xlink:href="#m833f82f166" y="250.633333"/>
      </g>
     </g>
     <g id="text_3">
      <!-- 20 -->
      <g transform="translate(187.864298 265.231771)scale(0.1 -0.1)">
       <defs>
        <path d="M 19.1875 8.296875 
L 53.609375 8.296875 
L 53.609375 0 
L 7.328125 0 
L 7.328125 8.296875 
Q 12.9375 14.109375 22.625 23.890625 
Q 32.328125 33.6875 34.8125 36.53125 
Q 39.546875 41.84375 41.421875 45.53125 
Q 43.3125 49.21875 43.3125 52.78125 
Q 43.3125 58.59375 39.234375 62.25 
Q 35.15625 65.921875 28.609375 65.921875 
Q 23.96875 65.921875 18.8125 64.3125 
Q 13.671875 62.703125 7.8125 59.421875 
L 7.8125 69.390625 
Q 13.765625 71.78125 18.9375 73 
Q 24.125 74.21875 28.421875 74.21875 
Q 39.75 74.21875 46.484375 68.546875 
Q 53.21875 62.890625 53.21875 53.421875 
Q 53.21875 48.921875 51.53125 44.890625 
Q 49.859375 40.875 45.40625 35.40625 
Q 44.1875 33.984375 37.640625 27.21875 
Q 31.109375 20.453125 19.1875 8.296875 
z
" id="DejaVuSans-50"/>
       </defs>
       <use xlink:href="#DejaVuSans-50"/>
       <use x="63.623047" xlink:href="#DejaVuSans-48"/>
      </g>
     </g>
    </g>
    <g id="xtick_4">
     <g id="line2d_4">
      <g>
       <use style="stroke:#000000;stroke-width:0.8;" x="231.633993" xlink:href="#m833f82f166" y="250.633333"/>
      </g>
     </g>
     <g id="text_4">
      <!-- 30 -->
      <g transform="translate(225.271493 265.231771)scale(0.1 -0.1)">
       <defs>
        <path d="M 40.578125 39.3125 
Q 47.65625 37.796875 51.625 33 
Q 55.609375 28.21875 55.609375 21.1875 
Q 55.609375 10.40625 48.1875 4.484375 
Q 40.765625 -1.421875 27.09375 -1.421875 
Q 22.515625 -1.421875 17.65625 -0.515625 
Q 12.796875 0.390625 7.625 2.203125 
L 7.625 11.71875 
Q 11.71875 9.328125 16.59375 8.109375 
Q 21.484375 6.890625 26.8125 6.890625 
Q 36.078125 6.890625 40.9375 10.546875 
Q 45.796875 14.203125 45.796875 21.1875 
Q 45.796875 27.640625 41.28125 31.265625 
Q 36.765625 34.90625 28.71875 34.90625 
L 20.21875 34.90625 
L 20.21875 43.015625 
L 29.109375 43.015625 
Q 36.375 43.015625 40.234375 45.921875 
Q 44.09375 48.828125 44.09375 54.296875 
Q 44.09375 59.90625 40.109375 62.90625 
Q 36.140625 65.921875 28.71875 65.921875 
Q 24.65625 65.921875 20.015625 65.03125 
Q 15.375 64.15625 9.8125 62.3125 
L 9.8125 71.09375 
Q 15.4375 72.65625 20.34375 73.4375 
Q 25.25 74.21875 29.59375 74.21875 
Q 40.828125 74.21875 47.359375 69.109375 
Q 53.90625 64.015625 53.90625 55.328125 
Q 53.90625 49.265625 50.4375 45.09375 
Q 46.96875 40.921875 40.578125 39.3125 
z
" id="DejaVuSans-51"/>
       </defs>
       <use xlink:href="#DejaVuSans-51"/>
       <use x="63.623047" xlink:href="#DejaVuSans-48"/>
      </g>
     </g>
    </g>
    <g id="xtick_5">
     <g id="line2d_5">
      <g>
       <use style="stroke:#000000;stroke-width:0.8;" x="269.041189" xlink:href="#m833f82f166" y="250.633333"/>
      </g>
     </g>
     <g id="text_5">
      <!-- 40 -->
      <g transform="translate(262.678689 265.231771)scale(0.1 -0.1)">
       <defs>
        <path d="M 37.796875 64.3125 
L 12.890625 25.390625 
L 37.796875 25.390625 
z
M 35.203125 72.90625 
L 47.609375 72.90625 
L 47.609375 25.390625 
L 58.015625 25.390625 
L 58.015625 17.1875 
L 47.609375 17.1875 
L 47.609375 0 
L 37.796875 0 
L 37.796875 17.1875 
L 4.890625 17.1875 
L 4.890625 26.703125 
z
" id="DejaVuSans-52"/>
       </defs>
       <use xlink:href="#DejaVuSans-52"/>
       <use x="63.623047" xlink:href="#DejaVuSans-48"/>
      </g>
     </g>
    </g>
    <g id="xtick_6">
     <g id="line2d_6">
      <g>
       <use style="stroke:#000000;stroke-width:0.8;" x="306.448384" xlink:href="#m833f82f166" y="250.633333"/>
      </g>
     </g>
     <g id="text_6">
      <!-- 50 -->
      <g transform="translate(300.085884 265.231771)scale(0.1 -0.1)">
       <defs>
        <path d="M 10.796875 72.90625 
L 49.515625 72.90625 
L 49.515625 64.59375 
L 19.828125 64.59375 
L 19.828125 46.734375 
Q 21.96875 47.46875 24.109375 47.828125 
Q 26.265625 48.1875 28.421875 48.1875 
Q 40.625 48.1875 47.75 41.5 
Q 54.890625 34.8125 54.890625 23.390625 
Q 54.890625 11.625 47.5625 5.09375 
Q 40.234375 -1.421875 26.90625 -1.421875 
Q 22.3125 -1.421875 17.546875 -0.640625 
Q 12.796875 0.140625 7.71875 1.703125 
L 7.71875 11.625 
Q 12.109375 9.234375 16.796875 8.0625 
Q 21.484375 6.890625 26.703125 6.890625 
Q 35.15625 6.890625 40.078125 11.328125 
Q 45.015625 15.765625 45.015625 23.390625 
Q 45.015625 31 40.078125 35.4375 
Q 35.15625 39.890625 26.703125 39.890625 
Q 22.75 39.890625 18.8125 39.015625 
Q 14.890625 38.140625 10.796875 36.28125 
z
" id="DejaVuSans-53"/>
       </defs>
       <use xlink:href="#DejaVuSans-53"/>
       <use x="63.623047" xlink:href="#DejaVuSans-48"/>
      </g>
     </g>
    </g>
    <g id="xtick_7">
     <g id="line2d_7">
      <g>
       <use style="stroke:#000000;stroke-width:0.8;" x="343.85558" xlink:href="#m833f82f166" y="250.633333"/>
      </g>
     </g>
     <g id="text_7">
      <!-- 60 -->
      <g transform="translate(337.49308 265.231771)scale(0.1 -0.1)">
       <defs>
        <path d="M 33.015625 40.375 
Q 26.375 40.375 22.484375 35.828125 
Q 18.609375 31.296875 18.609375 23.390625 
Q 18.609375 15.53125 22.484375 10.953125 
Q 26.375 6.390625 33.015625 6.390625 
Q 39.65625 6.390625 43.53125 10.953125 
Q 47.40625 15.53125 47.40625 23.390625 
Q 47.40625 31.296875 43.53125 35.828125 
Q 39.65625 40.375 33.015625 40.375 
z
M 52.59375 71.296875 
L 52.59375 62.3125 
Q 48.875 64.0625 45.09375 64.984375 
Q 41.3125 65.921875 37.59375 65.921875 
Q 27.828125 65.921875 22.671875 59.328125 
Q 17.53125 52.734375 16.796875 39.40625 
Q 19.671875 43.65625 24.015625 45.921875 
Q 28.375 48.1875 33.59375 48.1875 
Q 44.578125 48.1875 50.953125 41.515625 
Q 57.328125 34.859375 57.328125 23.390625 
Q 57.328125 12.15625 50.6875 5.359375 
Q 44.046875 -1.421875 33.015625 -1.421875 
Q 20.359375 -1.421875 13.671875 8.265625 
Q 6.984375 17.96875 6.984375 36.375 
Q 6.984375 53.65625 15.1875 63.9375 
Q 23.390625 74.21875 37.203125 74.21875 
Q 40.921875 74.21875 44.703125 73.484375 
Q 48.484375 72.75 52.59375 71.296875 
z
" id="DejaVuSans-54"/>
       </defs>
       <use xlink:href="#DejaVuSans-54"/>
       <use x="63.623047" xlink:href="#DejaVuSans-48"/>
      </g>
     </g>
    </g>
    <g id="xtick_8">
     <g id="line2d_8">
      <g>
       <use style="stroke:#000000;stroke-width:0.8;" x="381.262775" xlink:href="#m833f82f166" y="250.633333"/>
      </g>
     </g>
     <g id="text_8">
      <!-- 70 -->
      <g transform="translate(374.900275 265.231771)scale(0.1 -0.1)">
       <defs>
        <path d="M 8.203125 72.90625 
L 55.078125 72.90625 
L 55.078125 68.703125 
L 28.609375 0 
L 18.3125 0 
L 43.21875 64.59375 
L 8.203125 64.59375 
z
" id="DejaVuSans-55"/>
       </defs>
       <use xlink:href="#DejaVuSans-55"/>
       <use x="63.623047" xlink:href="#DejaVuSans-48"/>
      </g>
     </g>
    </g>
    <g id="text_9">
     <!-- Distance along the loop [Mm] -->
     <g transform="translate(161.480404 280.429583)scale(0.12 -0.12)">
      <defs>
       <path d="M 19.671875 64.796875 
L 19.671875 8.109375 
L 31.59375 8.109375 
Q 46.6875 8.109375 53.6875 14.9375 
Q 60.6875 21.78125 60.6875 36.53125 
Q 60.6875 51.171875 53.6875 57.984375 
Q 46.6875 64.796875 31.59375 64.796875 
z
M 9.8125 72.90625 
L 30.078125 72.90625 
Q 51.265625 72.90625 61.171875 64.09375 
Q 71.09375 55.28125 71.09375 36.53125 
Q 71.09375 17.671875 61.125 8.828125 
Q 51.171875 0 30.078125 0 
L 9.8125 0 
z
" id="DejaVuSans-68"/>
       <path d="M 9.421875 54.6875 
L 18.40625 54.6875 
L 18.40625 0 
L 9.421875 0 
z
M 9.421875 75.984375 
L 18.40625 75.984375 
L 18.40625 64.59375 
L 9.421875 64.59375 
z
" id="DejaVuSans-105"/>
       <path d="M 44.28125 53.078125 
L 44.28125 44.578125 
Q 40.484375 46.53125 36.375 47.5 
Q 32.28125 48.484375 27.875 48.484375 
Q 21.1875 48.484375 17.84375 46.4375 
Q 14.5 44.390625 14.5 40.28125 
Q 14.5 37.15625 16.890625 35.375 
Q 19.28125 33.59375 26.515625 31.984375 
L 29.59375 31.296875 
Q 39.15625 29.25 43.1875 25.515625 
Q 47.21875 21.78125 47.21875 15.09375 
Q 47.21875 7.46875 41.1875 3.015625 
Q 35.15625 -1.421875 24.609375 -1.421875 
Q 20.21875 -1.421875 15.453125 -0.5625 
Q 10.6875 0.296875 5.421875 2 
L 5.421875 11.28125 
Q 10.40625 8.6875 15.234375 7.390625 
Q 20.0625 6.109375 24.8125 6.109375 
Q 31.15625 6.109375 34.5625 8.28125 
Q 37.984375 10.453125 37.984375 14.40625 
Q 37.984375 18.0625 35.515625 20.015625 
Q 33.0625 21.96875 24.703125 23.78125 
L 21.578125 24.515625 
Q 13.234375 26.265625 9.515625 29.90625 
Q 5.8125 33.546875 5.8125 39.890625 
Q 5.8125 47.609375 11.28125 51.796875 
Q 16.75 56 26.8125 56 
Q 31.78125 56 36.171875 55.265625 
Q 40.578125 54.546875 44.28125 53.078125 
z
" id="DejaVuSans-115"/>
       <path d="M 18.3125 70.21875 
L 18.3125 54.6875 
L 36.8125 54.6875 
L 36.8125 47.703125 
L 18.3125 47.703125 
L 18.3125 18.015625 
Q 18.3125 11.328125 20.140625 9.421875 
Q 21.96875 7.515625 27.59375 7.515625 
L 36.8125 7.515625 
L 36.8125 0 
L 27.59375 0 
Q 17.1875 0 13.234375 3.875 
Q 9.28125 7.765625 9.28125 18.015625 
L 9.28125 47.703125 
L 2.6875 47.703125 
L 2.6875 54.6875 
L 9.28125 54.6875 
L 9.28125 70.21875 
z
" id="DejaVuSans-116"/>
       <path d="M 34.28125 27.484375 
Q 23.390625 27.484375 19.1875 25 
Q 14.984375 22.515625 14.984375 16.5 
Q 14.984375 11.71875 18.140625 8.90625 
Q 21.296875 6.109375 26.703125 6.109375 
Q 34.1875 6.109375 38.703125 11.40625 
Q 43.21875 16.703125 43.21875 25.484375 
L 43.21875 27.484375 
z
M 52.203125 31.203125 
L 52.203125 0 
L 43.21875 0 
L 43.21875 8.296875 
Q 40.140625 3.328125 35.546875 0.953125 
Q 30.953125 -1.421875 24.3125 -1.421875 
Q 15.921875 -1.421875 10.953125 3.296875 
Q 6 8.015625 6 15.921875 
Q 6 25.140625 12.171875 29.828125 
Q 18.359375 34.515625 30.609375 34.515625 
L 43.21875 34.515625 
L 43.21875 35.40625 
Q 43.21875 41.609375 39.140625 45 
Q 35.0625 48.390625 27.6875 48.390625 
Q 23 48.390625 18.546875 47.265625 
Q 14.109375 46.140625 10.015625 43.890625 
L 10.015625 52.203125 
Q 14.9375 54.109375 19.578125 55.046875 
Q 24.21875 56 28.609375 56 
Q 40.484375 56 46.34375 49.84375 
Q 52.203125 43.703125 52.203125 31.203125 
z
" id="DejaVuSans-97"/>
       <path d="M 54.890625 33.015625 
L 54.890625 0 
L 45.90625 0 
L 45.90625 32.71875 
Q 45.90625 40.484375 42.875 44.328125 
Q 39.84375 48.1875 33.796875 48.1875 
Q 26.515625 48.1875 22.3125 43.546875 
Q 18.109375 38.921875 18.109375 30.90625 
L 18.109375 0 
L 9.078125 0 
L 9.078125 54.6875 
L 18.109375 54.6875 
L 18.109375 46.1875 
Q 21.34375 51.125 25.703125 53.5625 
Q 30.078125 56 35.796875 56 
Q 45.21875 56 50.046875 50.171875 
Q 54.890625 44.34375 54.890625 33.015625 
z
" id="DejaVuSans-110"/>
       <path d="M 48.78125 52.59375 
L 48.78125 44.1875 
Q 44.96875 46.296875 41.140625 47.34375 
Q 37.3125 48.390625 33.40625 48.390625 
Q 24.65625 48.390625 19.8125 42.84375 
Q 14.984375 37.3125 14.984375 27.296875 
Q 14.984375 17.28125 19.8125 11.734375 
Q 24.65625 6.203125 33.40625 6.203125 
Q 37.3125 6.203125 41.140625 7.25 
Q 44.96875 8.296875 48.78125 10.40625 
L 48.78125 2.09375 
Q 45.015625 0.34375 40.984375 -0.53125 
Q 36.96875 -1.421875 32.421875 -1.421875 
Q 20.0625 -1.421875 12.78125 6.34375 
Q 5.515625 14.109375 5.515625 27.296875 
Q 5.515625 40.671875 12.859375 48.328125 
Q 20.21875 56 33.015625 56 
Q 37.15625 56 41.109375 55.140625 
Q 45.0625 54.296875 48.78125 52.59375 
z
" id="DejaVuSans-99"/>
       <path d="M 56.203125 29.59375 
L 56.203125 25.203125 
L 14.890625 25.203125 
Q 15.484375 15.921875 20.484375 11.0625 
Q 25.484375 6.203125 34.421875 6.203125 
Q 39.59375 6.203125 44.453125 7.46875 
Q 49.3125 8.734375 54.109375 11.28125 
L 54.109375 2.78125 
Q 49.265625 0.734375 44.1875 -0.34375 
Q 39.109375 -1.421875 33.890625 -1.421875 
Q 20.796875 -1.421875 13.15625 6.1875 
Q 5.515625 13.8125 5.515625 26.8125 
Q 5.515625 40.234375 12.765625 48.109375 
Q 20.015625 56 32.328125 56 
Q 43.359375 56 49.78125 48.890625 
Q 56.203125 41.796875 56.203125 29.59375 
z
M 47.21875 32.234375 
Q 47.125 39.59375 43.09375 43.984375 
Q 39.0625 48.390625 32.421875 48.390625 
Q 24.90625 48.390625 20.390625 44.140625 
Q 15.875 39.890625 15.1875 32.171875 
z
" id="DejaVuSans-101"/>
       <path id="DejaVuSans-32"/>
       <path d="M 9.421875 75.984375 
L 18.40625 75.984375 
L 18.40625 0 
L 9.421875 0 
z
" id="DejaVuSans-108"/>
       <path d="M 30.609375 48.390625 
Q 23.390625 48.390625 19.1875 42.75 
Q 14.984375 37.109375 14.984375 27.296875 
Q 14.984375 17.484375 19.15625 11.84375 
Q 23.34375 6.203125 30.609375 6.203125 
Q 37.796875 6.203125 41.984375 11.859375 
Q 46.1875 17.53125 46.1875 27.296875 
Q 46.1875 37.015625 41.984375 42.703125 
Q 37.796875 48.390625 30.609375 48.390625 
z
M 30.609375 56 
Q 42.328125 56 49.015625 48.375 
Q 55.71875 40.765625 55.71875 27.296875 
Q 55.71875 13.875 49.015625 6.21875 
Q 42.328125 -1.421875 30.609375 -1.421875 
Q 18.84375 -1.421875 12.171875 6.21875 
Q 5.515625 13.875 5.515625 27.296875 
Q 5.515625 40.765625 12.171875 48.375 
Q 18.84375 56 30.609375 56 
z
" id="DejaVuSans-111"/>
       <path d="M 45.40625 27.984375 
Q 45.40625 37.75 41.375 43.109375 
Q 37.359375 48.484375 30.078125 48.484375 
Q 22.859375 48.484375 18.828125 43.109375 
Q 14.796875 37.75 14.796875 27.984375 
Q 14.796875 18.265625 18.828125 12.890625 
Q 22.859375 7.515625 30.078125 7.515625 
Q 37.359375 7.515625 41.375 12.890625 
Q 45.40625 18.265625 45.40625 27.984375 
z
M 54.390625 6.78125 
Q 54.390625 -7.171875 48.1875 -13.984375 
Q 42 -20.796875 29.203125 -20.796875 
Q 24.46875 -20.796875 20.265625 -20.09375 
Q 16.0625 -19.390625 12.109375 -17.921875 
L 12.109375 -9.1875 
Q 16.0625 -11.328125 19.921875 -12.34375 
Q 23.78125 -13.375 27.78125 -13.375 
Q 36.625 -13.375 41.015625 -8.765625 
Q 45.40625 -4.15625 45.40625 5.171875 
L 45.40625 9.625 
Q 42.625 4.78125 38.28125 2.390625 
Q 33.9375 0 27.875 0 
Q 17.828125 0 11.671875 7.65625 
Q 5.515625 15.328125 5.515625 27.984375 
Q 5.515625 40.671875 11.671875 48.328125 
Q 17.828125 56 27.875 56 
Q 33.9375 56 38.28125 53.609375 
Q 42.625 51.21875 45.40625 46.390625 
L 45.40625 54.6875 
L 54.390625 54.6875 
z
" id="DejaVuSans-103"/>
       <path d="M 54.890625 33.015625 
L 54.890625 0 
L 45.90625 0 
L 45.90625 32.71875 
Q 45.90625 40.484375 42.875 44.328125 
Q 39.84375 48.1875 33.796875 48.1875 
Q 26.515625 48.1875 22.3125 43.546875 
Q 18.109375 38.921875 18.109375 30.90625 
L 18.109375 0 
L 9.078125 0 
L 9.078125 75.984375 
L 18.109375 75.984375 
L 18.109375 46.1875 
Q 21.34375 51.125 25.703125 53.5625 
Q 30.078125 56 35.796875 56 
Q 45.21875 56 50.046875 50.171875 
Q 54.890625 44.34375 54.890625 33.015625 
z
" id="DejaVuSans-104"/>
       <path d="M 18.109375 8.203125 
L 18.109375 -20.796875 
L 9.078125 -20.796875 
L 9.078125 54.6875 
L 18.109375 54.6875 
L 18.109375 46.390625 
Q 20.953125 51.265625 25.265625 53.625 
Q 29.59375 56 35.59375 56 
Q 45.5625 56 51.78125 48.09375 
Q 58.015625 40.1875 58.015625 27.296875 
Q 58.015625 14.40625 51.78125 6.484375 
Q 45.5625 -1.421875 35.59375 -1.421875 
Q 29.59375 -1.421875 25.265625 0.953125 
Q 20.953125 3.328125 18.109375 8.203125 
z
M 48.6875 27.296875 
Q 48.6875 37.203125 44.609375 42.84375 
Q 40.53125 48.484375 33.40625 48.484375 
Q 26.265625 48.484375 22.1875 42.84375 
Q 18.109375 37.203125 18.109375 27.296875 
Q 18.109375 17.390625 22.1875 11.75 
Q 26.265625 6.109375 33.40625 6.109375 
Q 40.53125 6.109375 44.609375 11.75 
Q 48.6875 17.390625 48.6875 27.296875 
z
" id="DejaVuSans-112"/>
       <path d="M 8.59375 75.984375 
L 29.296875 75.984375 
L 29.296875 69 
L 17.578125 69 
L 17.578125 -6.203125 
L 29.296875 -6.203125 
L 29.296875 -13.1875 
L 8.59375 -13.1875 
z
" id="DejaVuSans-91"/>
       <path d="M 9.8125 72.90625 
L 24.515625 72.90625 
L 43.109375 23.296875 
L 61.8125 72.90625 
L 76.515625 72.90625 
L 76.515625 0 
L 66.890625 0 
L 66.890625 64.015625 
L 48.09375 14.015625 
L 38.1875 14.015625 
L 19.390625 64.015625 
L 19.390625 0 
L 9.8125 0 
z
" id="DejaVuSans-77"/>
       <path d="M 52 44.1875 
Q 55.375 50.25 60.0625 53.125 
Q 64.75 56 71.09375 56 
Q 79.640625 56 84.28125 50.015625 
Q 88.921875 44.046875 88.921875 33.015625 
L 88.921875 0 
L 79.890625 0 
L 79.890625 32.71875 
Q 79.890625 40.578125 77.09375 44.375 
Q 74.3125 48.1875 68.609375 48.1875 
Q 61.625 48.1875 57.5625 43.546875 
Q 53.515625 38.921875 53.515625 30.90625 
L 53.515625 0 
L 44.484375 0 
L 44.484375 32.71875 
Q 44.484375 40.625 41.703125 44.40625 
Q 38.921875 48.1875 33.109375 48.1875 
Q 26.21875 48.1875 22.15625 43.53125 
Q 18.109375 38.875 18.109375 30.90625 
L 18.109375 0 
L 9.078125 0 
L 9.078125 54.6875 
L 18.109375 54.6875 
L 18.109375 46.1875 
Q 21.1875 51.21875 25.484375 53.609375 
Q 29.78125 56 35.6875 56 
Q 41.65625 56 45.828125 52.96875 
Q 50 49.953125 52 44.1875 
z
" id="DejaVuSans-109"/>
       <path d="M 30.421875 75.984375 
L 30.421875 -13.1875 
L 9.71875 -13.1875 
L 9.71875 -6.203125 
L 21.390625 -6.203125 
L 21.390625 69 
L 9.71875 69 
L 9.71875 75.984375 
z
" id="DejaVuSans-93"/>
      </defs>
      <use xlink:href="#DejaVuSans-68"/>
      <use x="77.001953" xlink:href="#DejaVuSans-105"/>
      <use x="104.785156" xlink:href="#DejaVuSans-115"/>
      <use x="156.884766" xlink:href="#DejaVuSans-116"/>
      <use x="196.09375" xlink:href="#DejaVuSans-97"/>
      <use x="257.373047" xlink:href="#DejaVuSans-110"/>
      <use x="320.751953" xlink:href="#DejaVuSans-99"/>
      <use x="375.732422" xlink:href="#DejaVuSans-101"/>
      <use x="437.255859" xlink:href="#DejaVuSans-32"/>
      <use x="469.042969" xlink:href="#DejaVuSans-97"/>
      <use x="530.322266" xlink:href="#DejaVuSans-108"/>
      <use x="558.105469" xlink:href="#DejaVuSans-111"/>
      <use x="619.287109" xlink:href="#DejaVuSans-110"/>
      <use x="682.666016" xlink:href="#DejaVuSans-103"/>
      <use x="746.142578" xlink:href="#DejaVuSans-32"/>
      <use x="777.929688" xlink:href="#DejaVuSans-116"/>
      <use x="817.138672" xlink:href="#DejaVuSans-104"/>
      <use x="880.517578" xlink:href="#DejaVuSans-101"/>
      <use x="942.041016" xlink:href="#DejaVuSans-32"/>
      <use x="973.828125" xlink:href="#DejaVuSans-108"/>
      <use x="1001.611328" xlink:href="#DejaVuSans-111"/>
      <use x="1062.792969" xlink:href="#DejaVuSans-111"/>
      <use x="1123.974609" xlink:href="#DejaVuSans-112"/>
      <use x="1187.451172" xlink:href="#DejaVuSans-32"/>
      <use x="1219.238281" xlink:href="#DejaVuSans-91"/>
      <use x="1258.251953" xlink:href="#DejaVuSans-77"/>
      <use x="1344.53125" xlink:href="#DejaVuSans-109"/>
      <use x="1441.943359" xlink:href="#DejaVuSans-93"/>
     </g>
    </g>
   </g>
   <g id="matplotlib.axis_2">
    <g id="ytick_1">
     <g id="line2d_9">
      <defs>
       <path d="M 0 0 
L -3.5 0 
" id="md8829a4655" style="stroke:#000000;stroke-width:0.8;"/>
      </defs>
      <g>
       <use style="stroke:#000000;stroke-width:0.8;" x="106.319889" xlink:href="#md8829a4655" y="216.261097"/>
      </g>
     </g>
     <g id="text_10">
      <!-- $\mathdefault{10^{10}}$ -->
      <g transform="translate(77.219889 220.060315)scale(0.1 -0.1)">
       <use transform="translate(0 0.765625)" xlink:href="#DejaVuSans-49"/>
       <use transform="translate(63.623047 0.765625)" xlink:href="#DejaVuSans-48"/>
       <use transform="translate(128.203125 39.046875)scale(0.7)" xlink:href="#DejaVuSans-49"/>
       <use transform="translate(172.739258 39.046875)scale(0.7)" xlink:href="#DejaVuSans-48"/>
      </g>
     </g>
    </g>
    <g id="ytick_2">
     <g id="line2d_10">
      <g>
       <use style="stroke:#000000;stroke-width:0.8;" x="106.319889" xlink:href="#md8829a4655" y="174.508775"/>
      </g>
     </g>
     <g id="text_11">
      <!-- $\mathdefault{10^{11}}$ -->
      <g transform="translate(77.219889 178.307994)scale(0.1 -0.1)">
       <use transform="translate(0 0.684375)" xlink:href="#DejaVuSans-49"/>
       <use transform="translate(63.623047 0.684375)" xlink:href="#DejaVuSans-48"/>
       <use transform="translate(128.203125 38.965625)scale(0.7)" xlink:href="#DejaVuSans-49"/>
       <use transform="translate(172.739258 38.965625)scale(0.7)" xlink:href="#DejaVuSans-49"/>
      </g>
     </g>
    </g>
    <g id="ytick_3">
     <g id="line2d_11">
      <g>
       <use style="stroke:#000000;stroke-width:0.8;" x="106.319889" xlink:href="#md8829a4655" y="132.756453"/>
      </g>
     </g>
     <g id="text_12">
      <!-- $\mathdefault{10^{12}}$ -->
      <g transform="translate(77.219889 136.555672)scale(0.1 -0.1)">
       <use transform="translate(0 0.765625)" xlink:href="#DejaVuSans-49"/>
       <use transform="translate(63.623047 0.765625)" xlink:href="#DejaVuSans-48"/>
       <use transform="translate(128.203125 39.046875)scale(0.7)" xlink:href="#DejaVuSans-49"/>
       <use transform="translate(172.739258 39.046875)scale(0.7)" xlink:href="#DejaVuSans-50"/>
      </g>
     </g>
    </g>
    <g id="ytick_4">
     <g id="line2d_12">
      <g>
       <use style="stroke:#000000;stroke-width:0.8;" x="106.319889" xlink:href="#md8829a4655" y="91.004131"/>
      </g>
     </g>
     <g id="text_13">
      <!-- $\mathdefault{10^{13}}$ -->
      <g transform="translate(77.219889 94.80335)scale(0.1 -0.1)">
       <use transform="translate(0 0.765625)" xlink:href="#DejaVuSans-49"/>
       <use transform="translate(63.623047 0.765625)" xlink:href="#DejaVuSans-48"/>
       <use transform="translate(128.203125 39.046875)scale(0.7)" xlink:href="#DejaVuSans-49"/>
       <use transform="translate(172.739258 39.046875)scale(0.7)" xlink:href="#DejaVuSans-51"/>
      </g>
     </g>
    </g>
    <g id="ytick_5">
     <g id="line2d_13">
      <g>
       <use style="stroke:#000000;stroke-width:0.8;" x="106.319889" xlink:href="#md8829a4655" y="49.251809"/>
      </g>
     </g>
     <g id="text_14">
      <!-- $\mathdefault{10^{14}}$ -->
      <g transform="translate(77.219889 53.051028)scale(0.1 -0.1)">
       <use transform="translate(0 0.684375)" xlink:href="#DejaVuSans-49"/>
       <use transform="translate(63.623047 0.684375)" xlink:href="#DejaVuSans-48"/>
       <use transform="translate(128.203125 38.965625)scale(0.7)" xlink:href="#DejaVuSans-49"/>
       <use transform="translate(172.739258 38.965625)scale(0.7)" xlink:href="#DejaVuSans-52"/>
      </g>
     </g>
    </g>
    <g id="ytick_6">
     <g id="line2d_14">
      <defs>
       <path d="M 0 0 
L -2 0 
" id="ma68cc9af93" style="stroke:#000000;stroke-width:0.6;"/>
      </defs>
      <g>
       <use style="stroke:#000000;stroke-width:0.6;" x="106.319889" xlink:href="#ma68cc9af93" y="245.444717"/>
      </g>
     </g>
    </g>
    <g id="ytick_7">
     <g id="line2d_15">
      <g>
       <use style="stroke:#000000;stroke-width:0.6;" x="106.319889" xlink:href="#ma68cc9af93" y="238.092498"/>
      </g>
     </g>
    </g>
    <g id="ytick_8">
     <g id="line2d_16">
      <g>
       <use style="stroke:#000000;stroke-width:0.6;" x="106.319889" xlink:href="#ma68cc9af93" y="232.876016"/>
      </g>
     </g>
    </g>
    <g id="ytick_9">
     <g id="line2d_17">
      <g>
       <use style="stroke:#000000;stroke-width:0.6;" x="106.319889" xlink:href="#ma68cc9af93" y="228.829798"/>
      </g>
     </g>
    </g>
    <g id="ytick_10">
     <g id="line2d_18">
      <g>
       <use style="stroke:#000000;stroke-width:0.6;" x="106.319889" xlink:href="#ma68cc9af93" y="225.523797"/>
      </g>
     </g>
    </g>
    <g id="ytick_11">
     <g id="line2d_19">
      <g>
       <use style="stroke:#000000;stroke-width:0.6;" x="106.319889" xlink:href="#ma68cc9af93" y="222.728613"/>
      </g>
     </g>
    </g>
    <g id="ytick_12">
     <g id="line2d_20">
      <g>
       <use style="stroke:#000000;stroke-width:0.6;" x="106.319889" xlink:href="#ma68cc9af93" y="220.307315"/>
      </g>
     </g>
    </g>
    <g id="ytick_13">
     <g id="line2d_21">
      <g>
       <use style="stroke:#000000;stroke-width:0.6;" x="106.319889" xlink:href="#ma68cc9af93" y="218.171578"/>
      </g>
     </g>
    </g>
    <g id="ytick_14">
     <g id="line2d_22">
      <g>
       <use style="stroke:#000000;stroke-width:0.6;" x="106.319889" xlink:href="#ma68cc9af93" y="203.692395"/>
      </g>
     </g>
    </g>
    <g id="ytick_15">
     <g id="line2d_23">
      <g>
       <use style="stroke:#000000;stroke-width:0.6;" x="106.319889" xlink:href="#ma68cc9af93" y="196.340176"/>
      </g>
     </g>
    </g>
    <g id="ytick_16">
     <g id="line2d_24">
      <g>
       <use style="stroke:#000000;stroke-width:0.6;" x="106.319889" xlink:href="#ma68cc9af93" y="191.123694"/>
      </g>
     </g>
    </g>
    <g id="ytick_17">
     <g id="line2d_25">
      <g>
       <use style="stroke:#000000;stroke-width:0.6;" x="106.319889" xlink:href="#ma68cc9af93" y="187.077476"/>
      </g>
     </g>
    </g>
    <g id="ytick_18">
     <g id="line2d_26">
      <g>
       <use style="stroke:#000000;stroke-width:0.6;" x="106.319889" xlink:href="#ma68cc9af93" y="183.771475"/>
      </g>
     </g>
    </g>
    <g id="ytick_19">
     <g id="line2d_27">
      <g>
       <use style="stroke:#000000;stroke-width:0.6;" x="106.319889" xlink:href="#ma68cc9af93" y="180.976291"/>
      </g>
     </g>
    </g>
    <g id="ytick_20">
     <g id="line2d_28">
      <g>
       <use style="stroke:#000000;stroke-width:0.6;" x="106.319889" xlink:href="#ma68cc9af93" y="178.554993"/>
      </g>
     </g>
    </g>
    <g id="ytick_21">
     <g id="line2d_29">
      <g>
       <use style="stroke:#000000;stroke-width:0.6;" x="106.319889" xlink:href="#ma68cc9af93" y="176.419256"/>
      </g>
     </g>
    </g>
    <g id="ytick_22">
     <g id="line2d_30">
      <g>
       <use style="stroke:#000000;stroke-width:0.6;" x="106.319889" xlink:href="#ma68cc9af93" y="161.940073"/>
      </g>
     </g>
    </g>
    <g id="ytick_23">
     <g id="line2d_31">
      <g>
       <use style="stroke:#000000;stroke-width:0.6;" x="106.319889" xlink:href="#ma68cc9af93" y="154.587855"/>
      </g>
     </g>
    </g>
    <g id="ytick_24">
     <g id="line2d_32">
      <g>
       <use style="stroke:#000000;stroke-width:0.6;" x="106.319889" xlink:href="#ma68cc9af93" y="149.371372"/>
      </g>
     </g>
    </g>
    <g id="ytick_25">
     <g id="line2d_33">
      <g>
       <use style="stroke:#000000;stroke-width:0.6;" x="106.319889" xlink:href="#ma68cc9af93" y="145.325154"/>
      </g>
     </g>
    </g>
    <g id="ytick_26">
     <g id="line2d_34">
      <g>
       <use style="stroke:#000000;stroke-width:0.6;" x="106.319889" xlink:href="#ma68cc9af93" y="142.019153"/>
      </g>
     </g>
    </g>
    <g id="ytick_27">
     <g id="line2d_35">
      <g>
       <use style="stroke:#000000;stroke-width:0.6;" x="106.319889" xlink:href="#ma68cc9af93" y="139.223969"/>
      </g>
     </g>
    </g>
    <g id="ytick_28">
     <g id="line2d_36">
      <g>
       <use style="stroke:#000000;stroke-width:0.6;" x="106.319889" xlink:href="#ma68cc9af93" y="136.802671"/>
      </g>
     </g>
    </g>
    <g id="ytick_29">
     <g id="line2d_37">
      <g>
       <use style="stroke:#000000;stroke-width:0.6;" x="106.319889" xlink:href="#ma68cc9af93" y="134.666934"/>
      </g>
     </g>
    </g>
    <g id="ytick_30">
     <g id="line2d_38">
      <g>
       <use style="stroke:#000000;stroke-width:0.6;" x="106.319889" xlink:href="#ma68cc9af93" y="120.187752"/>
      </g>
     </g>
    </g>
    <g id="ytick_31">
     <g id="line2d_39">
      <g>
       <use style="stroke:#000000;stroke-width:0.6;" x="106.319889" xlink:href="#ma68cc9af93" y="112.835533"/>
      </g>
     </g>
    </g>
    <g id="ytick_32">
     <g id="line2d_40">
      <g>
       <use style="stroke:#000000;stroke-width:0.6;" x="106.319889" xlink:href="#ma68cc9af93" y="107.61905"/>
      </g>
     </g>
    </g>
    <g id="ytick_33">
     <g id="line2d_41">
      <g>
       <use style="stroke:#000000;stroke-width:0.6;" x="106.319889" xlink:href="#ma68cc9af93" y="103.572832"/>
      </g>
     </g>
    </g>
    <g id="ytick_34">
     <g id="line2d_42">
      <g>
       <use style="stroke:#000000;stroke-width:0.6;" x="106.319889" xlink:href="#ma68cc9af93" y="100.266831"/>
      </g>
     </g>
    </g>
    <g id="ytick_35">
     <g id="line2d_43">
      <g>
       <use style="stroke:#000000;stroke-width:0.6;" x="106.319889" xlink:href="#ma68cc9af93" y="97.471648"/>
      </g>
     </g>
    </g>
    <g id="ytick_36">
     <g id="line2d_44">
      <g>
       <use style="stroke:#000000;stroke-width:0.6;" x="106.319889" xlink:href="#ma68cc9af93" y="95.050349"/>
      </g>
     </g>
    </g>
    <g id="ytick_37">
     <g id="line2d_45">
      <g>
       <use style="stroke:#000000;stroke-width:0.6;" x="106.319889" xlink:href="#ma68cc9af93" y="92.914612"/>
      </g>
     </g>
    </g>
    <g id="ytick_38">
     <g id="line2d_46">
      <g>
       <use style="stroke:#000000;stroke-width:0.6;" x="106.319889" xlink:href="#ma68cc9af93" y="78.43543"/>
      </g>
     </g>
    </g>
    <g id="ytick_39">
     <g id="line2d_47">
      <g>
       <use style="stroke:#000000;stroke-width:0.6;" x="106.319889" xlink:href="#ma68cc9af93" y="71.083211"/>
      </g>
     </g>
    </g>
    <g id="ytick_40">
     <g id="line2d_48">
      <g>
       <use style="stroke:#000000;stroke-width:0.6;" x="106.319889" xlink:href="#ma68cc9af93" y="65.866728"/>
      </g>
     </g>
    </g>
    <g id="ytick_41">
     <g id="line2d_49">
      <g>
       <use style="stroke:#000000;stroke-width:0.6;" x="106.319889" xlink:href="#ma68cc9af93" y="61.82051"/>
      </g>
     </g>
    </g>
    <g id="ytick_42">
     <g id="line2d_50">
      <g>
       <use style="stroke:#000000;stroke-width:0.6;" x="106.319889" xlink:href="#ma68cc9af93" y="58.51451"/>
      </g>
     </g>
    </g>
    <g id="ytick_43">
     <g id="line2d_51">
      <g>
       <use style="stroke:#000000;stroke-width:0.6;" x="106.319889" xlink:href="#ma68cc9af93" y="55.719326"/>
      </g>
     </g>
    </g>
    <g id="ytick_44">
     <g id="line2d_52">
      <g>
       <use style="stroke:#000000;stroke-width:0.6;" x="106.319889" xlink:href="#ma68cc9af93" y="53.298027"/>
      </g>
     </g>
    </g>
    <g id="ytick_45">
     <g id="line2d_53">
      <g>
       <use style="stroke:#000000;stroke-width:0.6;" x="106.319889" xlink:href="#ma68cc9af93" y="51.162291"/>
      </g>
     </g>
    </g>
    <g id="ytick_46">
     <g id="line2d_54">
      <g>
       <use style="stroke:#000000;stroke-width:0.6;" x="106.319889" xlink:href="#ma68cc9af93" y="36.683108"/>
      </g>
     </g>
    </g>
    <g id="ytick_47">
     <g id="line2d_55">
      <g>
       <use style="stroke:#000000;stroke-width:0.6;" x="106.319889" xlink:href="#ma68cc9af93" y="29.330889"/>
      </g>
     </g>
    </g>
    <g id="ytick_48">
     <g id="line2d_56">
      <g>
       <use style="stroke:#000000;stroke-width:0.6;" x="106.319889" xlink:href="#ma68cc9af93" y="24.114407"/>
      </g>
     </g>
    </g>
    <g id="ytick_49">
     <g id="line2d_57">
      <g>
       <use style="stroke:#000000;stroke-width:0.6;" x="106.319889" xlink:href="#ma68cc9af93" y="20.068189"/>
      </g>
     </g>
    </g>
    <g id="ytick_50">
     <g id="line2d_58">
      <g>
       <use style="stroke:#000000;stroke-width:0.6;" x="106.319889" xlink:href="#ma68cc9af93" y="16.762188"/>
      </g>
     </g>
    </g>
    <g id="ytick_51">
     <g id="line2d_59">
      <g>
       <use style="stroke:#000000;stroke-width:0.6;" x="106.319889" xlink:href="#ma68cc9af93" y="13.967004"/>
      </g>
     </g>
    </g>
    <g id="ytick_52">
     <g id="line2d_60">
      <g>
       <use style="stroke:#000000;stroke-width:0.6;" x="106.319889" xlink:href="#ma68cc9af93" y="11.545705"/>
      </g>
     </g>
    </g>
    <g id="ytick_53">
     <g id="line2d_61">
      <g>
       <use style="stroke:#000000;stroke-width:0.6;" x="106.319889" xlink:href="#ma68cc9af93" y="9.409969"/>
      </g>
     </g>
    </g>
    <g id="text_15">
     <!-- Electron number density [cm$^{-3}$] -->
     <g transform="translate(70.699889 225.936667)rotate(-90)scale(0.12 -0.12)">
      <defs>
       <path d="M 9.8125 72.90625 
L 55.90625 72.90625 
L 55.90625 64.59375 
L 19.671875 64.59375 
L 19.671875 43.015625 
L 54.390625 43.015625 
L 54.390625 34.71875 
L 19.671875 34.71875 
L 19.671875 8.296875 
L 56.78125 8.296875 
L 56.78125 0 
L 9.8125 0 
z
" id="DejaVuSans-69"/>
       <path d="M 41.109375 46.296875 
Q 39.59375 47.171875 37.8125 47.578125 
Q 36.03125 48 33.890625 48 
Q 26.265625 48 22.1875 43.046875 
Q 18.109375 38.09375 18.109375 28.8125 
L 18.109375 0 
L 9.078125 0 
L 9.078125 54.6875 
L 18.109375 54.6875 
L 18.109375 46.1875 
Q 20.953125 51.171875 25.484375 53.578125 
Q 30.03125 56 36.53125 56 
Q 37.453125 56 38.578125 55.875 
Q 39.703125 55.765625 41.0625 55.515625 
z
" id="DejaVuSans-114"/>
       <path d="M 8.5 21.578125 
L 8.5 54.6875 
L 17.484375 54.6875 
L 17.484375 21.921875 
Q 17.484375 14.15625 20.5 10.265625 
Q 23.53125 6.390625 29.59375 6.390625 
Q 36.859375 6.390625 41.078125 11.03125 
Q 45.3125 15.671875 45.3125 23.6875 
L 45.3125 54.6875 
L 54.296875 54.6875 
L 54.296875 0 
L 45.3125 0 
L 45.3125 8.40625 
Q 42.046875 3.421875 37.71875 1 
Q 33.40625 -1.421875 27.6875 -1.421875 
Q 18.265625 -1.421875 13.375 4.4375 
Q 8.5 10.296875 8.5 21.578125 
z
M 31.109375 56 
z
" id="DejaVuSans-117"/>
       <path d="M 48.6875 27.296875 
Q 48.6875 37.203125 44.609375 42.84375 
Q 40.53125 48.484375 33.40625 48.484375 
Q 26.265625 48.484375 22.1875 42.84375 
Q 18.109375 37.203125 18.109375 27.296875 
Q 18.109375 17.390625 22.1875 11.75 
Q 26.265625 6.109375 33.40625 6.109375 
Q 40.53125 6.109375 44.609375 11.75 
Q 48.6875 17.390625 48.6875 27.296875 
z
M 18.109375 46.390625 
Q 20.953125 51.265625 25.265625 53.625 
Q 29.59375 56 35.59375 56 
Q 45.5625 56 51.78125 48.09375 
Q 58.015625 40.1875 58.015625 27.296875 
Q 58.015625 14.40625 51.78125 6.484375 
Q 45.5625 -1.421875 35.59375 -1.421875 
Q 29.59375 -1.421875 25.265625 0.953125 
Q 20.953125 3.328125 18.109375 8.203125 
L 18.109375 0 
L 9.078125 0 
L 9.078125 75.984375 
L 18.109375 75.984375 
z
" id="DejaVuSans-98"/>
       <path d="M 45.40625 46.390625 
L 45.40625 75.984375 
L 54.390625 75.984375 
L 54.390625 0 
L 45.40625 0 
L 45.40625 8.203125 
Q 42.578125 3.328125 38.25 0.953125 
Q 33.9375 -1.421875 27.875 -1.421875 
Q 17.96875 -1.421875 11.734375 6.484375 
Q 5.515625 14.40625 5.515625 27.296875 
Q 5.515625 40.1875 11.734375 48.09375 
Q 17.96875 56 27.875 56 
Q 33.9375 56 38.25 53.625 
Q 42.578125 51.265625 45.40625 46.390625 
z
M 14.796875 27.296875 
Q 14.796875 17.390625 18.875 11.75 
Q 22.953125 6.109375 30.078125 6.109375 
Q 37.203125 6.109375 41.296875 11.75 
Q 45.40625 17.390625 45.40625 27.296875 
Q 45.40625 37.203125 41.296875 42.84375 
Q 37.203125 48.484375 30.078125 48.484375 
Q 22.953125 48.484375 18.875 42.84375 
Q 14.796875 37.203125 14.796875 27.296875 
z
" id="DejaVuSans-100"/>
       <path d="M 32.171875 -5.078125 
Q 28.375 -14.84375 24.75 -17.8125 
Q 21.140625 -20.796875 15.09375 -20.796875 
L 7.90625 -20.796875 
L 7.90625 -13.28125 
L 13.1875 -13.28125 
Q 16.890625 -13.28125 18.9375 -11.515625 
Q 21 -9.765625 23.484375 -3.21875 
L 25.09375 0.875 
L 2.984375 54.6875 
L 12.5 54.6875 
L 29.59375 11.921875 
L 46.6875 54.6875 
L 56.203125 54.6875 
z
" id="DejaVuSans-121"/>
       <path d="M 10.59375 35.5 
L 73.1875 35.5 
L 73.1875 27.203125 
L 10.59375 27.203125 
z
" id="DejaVuSans-8722"/>
      </defs>
      <use transform="translate(0 0.765625)" xlink:href="#DejaVuSans-69"/>
      <use transform="translate(63.183594 0.765625)" xlink:href="#DejaVuSans-108"/>
      <use transform="translate(90.966797 0.765625)" xlink:href="#DejaVuSans-101"/>
      <use transform="translate(152.490234 0.765625)" xlink:href="#DejaVuSans-99"/>
      <use transform="translate(207.470703 0.765625)" xlink:href="#DejaVuSans-116"/>
      <use transform="translate(246.679688 0.765625)" xlink:href="#DejaVuSans-114"/>
      <use transform="translate(287.792969 0.765625)" xlink:href="#DejaVuSans-111"/>
      <use transform="translate(348.974609 0.765625)" xlink:href="#DejaVuSans-110"/>
      <use transform="translate(412.353516 0.765625)" xlink:href="#DejaVuSans-32"/>
      <use transform="translate(444.140625 0.765625)" xlink:href="#DejaVuSans-110"/>
      <use transform="translate(507.519531 0.765625)" xlink:href="#DejaVuSans-117"/>
      <use transform="translate(570.898438 0.765625)" xlink:href="#DejaVuSans-109"/>
      <use transform="translate(668.310547 0.765625)" xlink:href="#DejaVuSans-98"/>
      <use transform="translate(731.787109 0.765625)" xlink:href="#DejaVuSans-101"/>
      <use transform="translate(793.310547 0.765625)" xlink:href="#DejaVuSans-114"/>
      <use transform="translate(834.423828 0.765625)" xlink:href="#DejaVuSans-32"/>
      <use transform="translate(866.210938 0.765625)" xlink:href="#DejaVuSans-100"/>
      <use transform="translate(929.6875 0.765625)" xlink:href="#DejaVuSans-101"/>
      <use transform="translate(991.210938 0.765625)" xlink:href="#DejaVuSans-110"/>
      <use transform="translate(1054.589844 0.765625)" xlink:href="#DejaVuSans-115"/>
      <use transform="translate(1106.689453 0.765625)" xlink:href="#DejaVuSans-105"/>
      <use transform="translate(1134.472656 0.765625)" xlink:href="#DejaVuSans-116"/>
      <use transform="translate(1173.681641 0.765625)" xlink:href="#DejaVuSans-121"/>
      <use transform="translate(1232.861328 0.765625)" xlink:href="#DejaVuSans-32"/>
      <use transform="translate(1264.648438 0.765625)" xlink:href="#DejaVuSans-91"/>
      <use transform="translate(1303.662109 0.765625)" xlink:href="#DejaVuSans-99"/>
      <use transform="translate(1358.642578 0.765625)" xlink:href="#DejaVuSans-109"/>
      <use transform="translate(1457.011719 39.046875)scale(0.7)" xlink:href="#DejaVuSans-8722"/>
      <use transform="translate(1515.664062 39.046875)scale(0.7)" xlink:href="#DejaVuSans-51"/>
      <use transform="translate(1562.93457 0.765625)" xlink:href="#DejaVuSans-93"/>
     </g>
    </g>
   </g>
   <g id="line2d_62">
    <path clip-path="url(#p127db64ed4)" d="M 119.412407 19.983333 
L 144.305973 140.552341 
L 144.680313 144.233719 
L 144.867482 147.882953 
L 145.054652 154.54419 
L 145.428991 179.417087 
L 145.803331 202.023826 
L 146.17767 207.421066 
L 146.739179 211.392995 
L 147.300688 213.861679 
L 148.049367 216.172037 
L 148.985215 218.258843 
L 150.108233 220.126838 
L 151.418421 221.801233 
L 152.915778 223.309637 
L 154.600305 224.676468 
L 156.659172 226.034084 
L 158.905208 227.249224 
L 161.712753 228.500594 
L 164.894637 229.668945 
L 168.63803 230.805532 
L 173.130102 231.930078 
L 178.370853 233.007768 
L 184.547452 234.045748 
L 191.847069 235.036815 
L 200.082535 235.92612 
L 209.441018 236.708939 
L 219.73535 237.343805 
L 230.778361 237.800816 
L 242.38288 238.057088 
L 254.174569 238.095633 
L 265.966259 237.912436 
L 277.383608 237.514873 
L 288.239449 236.916213 
L 298.159442 236.150807 
L 306.956416 235.25798 
L 314.817542 234.240326 
L 321.55565 233.145458 
L 327.170741 232.014481 
L 331.849982 230.857026 
L 335.780545 229.668945 
L 339.149599 228.424479 
L 341.957144 227.156309 
L 344.39035 225.807336 
L 346.449217 224.396255 
L 348.133744 222.963394 
L 349.443931 221.586191 
L 350.566949 220.126838 
L 351.502798 218.608497 
L 352.438646 216.644257 
L 353.187325 214.517445 
L 353.748834 212.320479 
L 354.310343 209.026821 
L 354.684682 205.279654 
L 354.871852 202.023826 
L 355.059021 194.190571 
L 355.62053 154.54419 
L 355.99487 144.233719 
L 356.369209 140.552341 
L 357.117888 136.490741 
L 369.471086 76.875362 
L 381.262775 19.983333 
L 381.262775 19.983333 
" style="fill:none;stroke:#000000;stroke-linecap:square;stroke-width:1.5;"/>
   </g>
   <g id="line2d_63">
    <path clip-path="url(#p127db64ed4)" d="M 119.412407 19.983333 
L 144.493143 141.280615 
L 144.680313 142.828155 
L 144.867482 145.704565 
L 145.054652 152.298381 
L 145.616161 202.653827 
L 145.9905 208.260807 
L 146.552009 212.208875 
L 147.113518 214.632835 
L 147.862197 216.890925 
L 148.798045 218.926432 
L 149.921063 220.747949 
L 151.231251 222.381558 
L 152.728608 223.854284 
L 154.413135 225.189837 
L 156.472002 226.517353 
L 158.905208 227.795772 
L 161.712753 229.004818 
L 165.081807 230.196847 
L 169.01237 231.339512 
L 173.691611 232.456539 
L 179.119532 233.518137 
L 185.483301 234.533398 
L 192.970087 235.49655 
L 201.579892 236.372512 
L 211.125545 237.118371 
L 221.607047 237.714964 
L 232.837227 238.132321 
L 244.628916 238.347012 
L 256.607775 238.341777 
L 268.399464 238.116518 
L 279.816814 237.679291 
L 290.485485 237.054373 
L 300.405478 236.252815 
L 309.202452 235.320675 
L 316.689239 234.312976 
L 323.240177 233.210931 
L 328.668098 232.07957 
L 333.16017 230.930139 
L 336.903563 229.760876 
L 340.085448 228.549147 
L 342.705823 227.334263 
L 344.951859 226.065767 
L 346.823556 224.774563 
L 348.508083 223.340201 
L 349.818271 221.954875 
L 350.941289 220.477392 
L 351.877137 218.926432 
L 352.812985 216.890925 
L 353.561664 214.632835 
L 354.123173 212.208875 
L 354.497512 209.866778 
L 354.871852 206.085881 
L 355.059021 202.653827 
L 355.246191 191.333211 
L 355.62053 152.298381 
L 355.99487 142.828155 
L 356.369209 140.175416 
L 358.240906 131.058259 
L 381.262775 19.983333 
L 381.262775 19.983333 
" style="fill:none;stroke:#808080;stroke-dasharray:1.5,2.475;stroke-dashoffset:0;stroke-width:1.5;"/>
   </g>
   <g id="line2d_64">
    <path clip-path="url(#p127db64ed4)" d="M 119.412407 19.983333 
L 144.305973 140.547617 
L 144.680313 143.659405 
L 145.054652 149.864158 
L 145.428991 165.458411 
L 145.9905 202.015257 
L 146.36484 207.695158 
L 146.926349 211.767091 
L 147.487858 214.289292 
L 148.236536 216.6563 
L 149.172385 218.803352 
L 150.295403 220.73318 
L 151.60559 222.469869 
L 153.102948 224.040996 
L 154.787475 225.470669 
L 156.659172 226.777292 
L 158.905208 228.078251 
L 161.525583 229.335711 
L 164.707467 230.599546 
L 168.263691 231.769257 
L 172.568593 232.94238 
L 177.622175 234.076764 
L 183.424434 235.146333 
L 190.162542 236.160267 
L 198.023669 237.11098 
L 206.820643 237.946725 
L 216.553466 238.646529 
L 227.034967 239.178144 
L 238.077978 239.518198 
L 249.495328 239.649016 
L 260.912678 239.559781 
L 272.142858 239.253305 
L 282.998699 238.735775 
L 293.105861 238.033199 
L 302.277174 237.177278 
L 310.32547 236.212367 
L 317.437918 235.142021 
L 323.427347 234.027161 
L 328.668098 232.828869 
L 332.973 231.62579 
L 336.716394 230.351277 
L 339.898278 229.027583 
L 342.518653 227.700814 
L 344.764689 226.31414 
L 346.636386 224.902267 
L 348.133744 223.524964 
L 349.443931 222.0498 
L 350.566949 220.481393 
L 351.502798 218.839547 
L 352.438646 216.692531 
L 353.187325 214.323141 
L 353.748834 211.793644 
L 354.123173 209.358417 
L 354.497512 205.43548 
L 354.684682 201.866501 
L 355.059021 176.937208 
L 355.433361 155.765206 
L 355.8077 145.940508 
L 356.182039 141.819753 
L 356.743548 138.364885 
L 359.176754 126.540133 
L 381.262775 19.983333 
L 381.262775 19.983333 
" style="fill:none;stroke:#ff0000;stroke-dasharray:5.55,2.4;stroke-dashoffset:0;stroke-width:1.5;"/>
   </g>
   <g id="patch_3">
    <path d="M 106.319889 250.633333 
L 106.319889 9 
" style="fill:none;stroke:#000000;stroke-linecap:square;stroke-linejoin:miter;stroke-width:0.8;"/>
   </g>
   <g id="patch_4">
    <path d="M 394.355293 250.633333 
L 394.355293 9 
" style="fill:none;stroke:#000000;stroke-linecap:square;stroke-linejoin:miter;stroke-width:0.8;"/>
   </g>
   <g id="patch_5">
    <path d="M 106.319889 250.633333 
L 394.355293 250.633333 
" style="fill:none;stroke:#000000;stroke-linecap:square;stroke-linejoin:miter;stroke-width:0.8;"/>
   </g>
   <g id="patch_6">
    <path d="M 106.319889 9 
L 394.355293 9 
" style="fill:none;stroke:#000000;stroke-linecap:square;stroke-linejoin:miter;stroke-width:0.8;"/>
   </g>
   <g id="legend_1">
    <g id="patch_7">
     <path d="M 218.723216 71.44125 
L 281.951966 71.44125 
Q 284.351966 71.44125 284.351966 69.04125 
L 284.351966 17.4 
Q 284.351966 15 281.951966 15 
L 218.723216 15 
Q 216.323216 15 216.323216 17.4 
L 216.323216 69.04125 
Q 216.323216 71.44125 218.723216 71.44125 
z
" style="fill:#ffffff;opacity:0.8;stroke:#cccccc;stroke-linejoin:miter;"/>
    </g>
    <g id="line2d_65">
     <path d="M 221.123216 24.718125 
L 245.123216 24.718125 
" style="fill:none;stroke:#000000;stroke-linecap:square;stroke-width:1.5;"/>
    </g>
    <g id="line2d_66"/>
    <g id="text_16">
     <!-- SH -->
     <g transform="translate(254.723216 28.918125)scale(0.12 -0.12)">
      <defs>
       <path d="M 53.515625 70.515625 
L 53.515625 60.890625 
Q 47.90625 63.578125 42.921875 64.890625 
Q 37.9375 66.21875 33.296875 66.21875 
Q 25.25 66.21875 20.875 63.09375 
Q 16.5 59.96875 16.5 54.203125 
Q 16.5 49.359375 19.40625 46.890625 
Q 22.3125 44.4375 30.421875 42.921875 
L 36.375 41.703125 
Q 47.40625 39.59375 52.65625 34.296875 
Q 57.90625 29 57.90625 20.125 
Q 57.90625 9.515625 50.796875 4.046875 
Q 43.703125 -1.421875 29.984375 -1.421875 
Q 24.8125 -1.421875 18.96875 -0.25 
Q 13.140625 0.921875 6.890625 3.21875 
L 6.890625 13.375 
Q 12.890625 10.015625 18.65625 8.296875 
Q 24.421875 6.59375 29.984375 6.59375 
Q 38.421875 6.59375 43.015625 9.90625 
Q 47.609375 13.234375 47.609375 19.390625 
Q 47.609375 24.75 44.3125 27.78125 
Q 41.015625 30.8125 33.5 32.328125 
L 27.484375 33.5 
Q 16.453125 35.6875 11.515625 40.375 
Q 6.59375 45.0625 6.59375 53.421875 
Q 6.59375 63.09375 13.40625 68.65625 
Q 20.21875 74.21875 32.171875 74.21875 
Q 37.3125 74.21875 42.625 73.28125 
Q 47.953125 72.359375 53.515625 70.515625 
z
" id="DejaVuSans-83"/>
       <path d="M 9.8125 72.90625 
L 19.671875 72.90625 
L 19.671875 43.015625 
L 55.515625 43.015625 
L 55.515625 72.90625 
L 65.375 72.90625 
L 65.375 0 
L 55.515625 0 
L 55.515625 34.71875 
L 19.671875 34.71875 
L 19.671875 0 
L 9.8125 0 
z
" id="DejaVuSans-72"/>
      </defs>
      <use xlink:href="#DejaVuSans-83"/>
      <use x="63.476562" xlink:href="#DejaVuSans-72"/>
     </g>
    </g>
    <g id="line2d_67">
     <path d="M 221.123216 42.331875 
L 245.123216 42.331875 
" style="fill:none;stroke:#808080;stroke-dasharray:1.5,2.475;stroke-dashoffset:0;stroke-width:1.5;"/>
    </g>
    <g id="line2d_68"/>
    <g id="text_17">
     <!-- FL -->
     <g transform="translate(254.723216 46.531875)scale(0.12 -0.12)">
      <defs>
       <path d="M 9.8125 72.90625 
L 51.703125 72.90625 
L 51.703125 64.59375 
L 19.671875 64.59375 
L 19.671875 43.109375 
L 48.578125 43.109375 
L 48.578125 34.8125 
L 19.671875 34.8125 
L 19.671875 0 
L 9.8125 0 
z
" id="DejaVuSans-70"/>
       <path d="M 9.8125 72.90625 
L 19.671875 72.90625 
L 19.671875 8.296875 
L 55.171875 8.296875 
L 55.171875 0 
L 9.8125 0 
z
" id="DejaVuSans-76"/>
      </defs>
      <use xlink:href="#DejaVuSans-70"/>
      <use x="57.519531" xlink:href="#DejaVuSans-76"/>
     </g>
    </g>
    <g id="line2d_69">
     <path d="M 221.123216 59.945625 
L 245.123216 59.945625 
" style="fill:none;stroke:#ff0000;stroke-dasharray:5.55,2.4;stroke-dashoffset:0;stroke-width:1.5;"/>
    </g>
    <g id="line2d_70"/>
    <g id="text_18">
     <!-- SNB -->
     <g transform="translate(254.723216 64.145625)scale(0.12 -0.12)">
      <defs>
       <path d="M 9.8125 72.90625 
L 23.09375 72.90625 
L 55.421875 11.921875 
L 55.421875 72.90625 
L 64.984375 72.90625 
L 64.984375 0 
L 51.703125 0 
L 19.390625 60.984375 
L 19.390625 0 
L 9.8125 0 
z
" id="DejaVuSans-78"/>
       <path d="M 19.671875 34.8125 
L 19.671875 8.109375 
L 35.5 8.109375 
Q 43.453125 8.109375 47.28125 11.40625 
Q 51.125 14.703125 51.125 21.484375 
Q 51.125 28.328125 47.28125 31.5625 
Q 43.453125 34.8125 35.5 34.8125 
z
M 19.671875 64.796875 
L 19.671875 42.828125 
L 34.28125 42.828125 
Q 41.5 42.828125 45.03125 45.53125 
Q 48.578125 48.25 48.578125 53.8125 
Q 48.578125 59.328125 45.03125 62.0625 
Q 41.5 64.796875 34.28125 64.796875 
z
M 9.8125 72.90625 
L 35.015625 72.90625 
Q 46.296875 72.90625 52.390625 68.21875 
Q 58.5 63.53125 58.5 54.890625 
Q 58.5 48.1875 55.375 44.234375 
Q 52.25 40.28125 46.1875 39.3125 
Q 53.46875 37.75 57.5 32.78125 
Q 61.53125 27.828125 61.53125 20.40625 
Q 61.53125 10.640625 54.890625 5.3125 
Q 48.25 0 35.984375 0 
L 9.8125 0 
z
" id="DejaVuSans-66"/>
      </defs>
      <use xlink:href="#DejaVuSans-83"/>
      <use x="63.476562" xlink:href="#DejaVuSans-78"/>
      <use x="138.28125" xlink:href="#DejaVuSans-66"/>
     </g>
    </g>
   </g>
  </g>
  <g id="axes_2">
   <g id="patch_8">
    <path d="M 485.402095 250.633333 
L 773.4375 250.633333 
L 773.4375 9 
L 485.402095 9 
z
" style="fill:#ffffff;"/>
   </g>
   <g id="matplotlib.axis_3">
    <g id="xtick_9">
     <g id="line2d_71">
      <g>
       <use style="stroke:#000000;stroke-width:0.8;" x="498.494614" xlink:href="#m833f82f166" y="250.633333"/>
      </g>
     </g>
     <g id="text_19">
      <!-- 0 -->
      <g transform="translate(495.313364 265.231771)scale(0.1 -0.1)">
       <use xlink:href="#DejaVuSans-48"/>
      </g>
     </g>
    </g>
    <g id="xtick_10">
     <g id="line2d_72">
      <g>
       <use style="stroke:#000000;stroke-width:0.8;" x="535.901809" xlink:href="#m833f82f166" y="250.633333"/>
      </g>
     </g>
     <g id="text_20">
      <!-- 10 -->
      <g transform="translate(529.539309 265.231771)scale(0.1 -0.1)">
       <use xlink:href="#DejaVuSans-49"/>
       <use x="63.623047" xlink:href="#DejaVuSans-48"/>
      </g>
     </g>
    </g>
    <g id="xtick_11">
     <g id="line2d_73">
      <g>
       <use style="stroke:#000000;stroke-width:0.8;" x="573.309005" xlink:href="#m833f82f166" y="250.633333"/>
      </g>
     </g>
     <g id="text_21">
      <!-- 20 -->
      <g transform="translate(566.946505 265.231771)scale(0.1 -0.1)">
       <use xlink:href="#DejaVuSans-50"/>
       <use x="63.623047" xlink:href="#DejaVuSans-48"/>
      </g>
     </g>
    </g>
    <g id="xtick_12">
     <g id="line2d_74">
      <g>
       <use style="stroke:#000000;stroke-width:0.8;" x="610.7162" xlink:href="#m833f82f166" y="250.633333"/>
      </g>
     </g>
     <g id="text_22">
      <!-- 30 -->
      <g transform="translate(604.3537 265.231771)scale(0.1 -0.1)">
       <use xlink:href="#DejaVuSans-51"/>
       <use x="63.623047" xlink:href="#DejaVuSans-48"/>
      </g>
     </g>
    </g>
    <g id="xtick_13">
     <g id="line2d_75">
      <g>
       <use style="stroke:#000000;stroke-width:0.8;" x="648.123395" xlink:href="#m833f82f166" y="250.633333"/>
      </g>
     </g>
     <g id="text_23">
      <!-- 40 -->
      <g transform="translate(641.760895 265.231771)scale(0.1 -0.1)">
       <use xlink:href="#DejaVuSans-52"/>
       <use x="63.623047" xlink:href="#DejaVuSans-48"/>
      </g>
     </g>
    </g>
    <g id="xtick_14">
     <g id="line2d_76">
      <g>
       <use style="stroke:#000000;stroke-width:0.8;" x="685.530591" xlink:href="#m833f82f166" y="250.633333"/>
      </g>
     </g>
     <g id="text_24">
      <!-- 50 -->
      <g transform="translate(679.168091 265.231771)scale(0.1 -0.1)">
       <use xlink:href="#DejaVuSans-53"/>
       <use x="63.623047" xlink:href="#DejaVuSans-48"/>
      </g>
     </g>
    </g>
    <g id="xtick_15">
     <g id="line2d_77">
      <g>
       <use style="stroke:#000000;stroke-width:0.8;" x="722.937786" xlink:href="#m833f82f166" y="250.633333"/>
      </g>
     </g>
     <g id="text_25">
      <!-- 60 -->
      <g transform="translate(716.575286 265.231771)scale(0.1 -0.1)">
       <use xlink:href="#DejaVuSans-54"/>
       <use x="63.623047" xlink:href="#DejaVuSans-48"/>
      </g>
     </g>
    </g>
    <g id="xtick_16">
     <g id="line2d_78">
      <g>
       <use style="stroke:#000000;stroke-width:0.8;" x="760.344982" xlink:href="#m833f82f166" y="250.633333"/>
      </g>
     </g>
     <g id="text_26">
      <!-- 70 -->
      <g transform="translate(753.982482 265.231771)scale(0.1 -0.1)">
       <use xlink:href="#DejaVuSans-55"/>
       <use x="63.623047" xlink:href="#DejaVuSans-48"/>
      </g>
     </g>
    </g>
    <g id="text_27">
     <!-- Distance along the loop [Mm] -->
     <g transform="translate(540.56261 280.429583)scale(0.12 -0.12)">
      <use xlink:href="#DejaVuSans-68"/>
      <use x="77.001953" xlink:href="#DejaVuSans-105"/>
      <use x="104.785156" xlink:href="#DejaVuSans-115"/>
      <use x="156.884766" xlink:href="#DejaVuSans-116"/>
      <use x="196.09375" xlink:href="#DejaVuSans-97"/>
      <use x="257.373047" xlink:href="#DejaVuSans-110"/>
      <use x="320.751953" xlink:href="#DejaVuSans-99"/>
      <use x="375.732422" xlink:href="#DejaVuSans-101"/>
      <use x="437.255859" xlink:href="#DejaVuSans-32"/>
      <use x="469.042969" xlink:href="#DejaVuSans-97"/>
      <use x="530.322266" xlink:href="#DejaVuSans-108"/>
      <use x="558.105469" xlink:href="#DejaVuSans-111"/>
      <use x="619.287109" xlink:href="#DejaVuSans-110"/>
      <use x="682.666016" xlink:href="#DejaVuSans-103"/>
      <use x="746.142578" xlink:href="#DejaVuSans-32"/>
      <use x="777.929688" xlink:href="#DejaVuSans-116"/>
      <use x="817.138672" xlink:href="#DejaVuSans-104"/>
      <use x="880.517578" xlink:href="#DejaVuSans-101"/>
      <use x="942.041016" xlink:href="#DejaVuSans-32"/>
      <use x="973.828125" xlink:href="#DejaVuSans-108"/>
      <use x="1001.611328" xlink:href="#DejaVuSans-111"/>
      <use x="1062.792969" xlink:href="#DejaVuSans-111"/>
      <use x="1123.974609" xlink:href="#DejaVuSans-112"/>
      <use x="1187.451172" xlink:href="#DejaVuSans-32"/>
      <use x="1219.238281" xlink:href="#DejaVuSans-91"/>
      <use x="1258.251953" xlink:href="#DejaVuSans-77"/>
      <use x="1344.53125" xlink:href="#DejaVuSans-109"/>
      <use x="1441.943359" xlink:href="#DejaVuSans-93"/>
     </g>
    </g>
   </g>
   <g id="matplotlib.axis_4">
    <g id="ytick_54">
     <g id="line2d_79">
      <g>
       <use style="stroke:#000000;stroke-width:0.8;" x="485.402095" xlink:href="#md8829a4655" y="170.074519"/>
      </g>
     </g>
     <g id="text_28">
      <!-- $\mathdefault{10^{5}}$ -->
      <g transform="translate(460.802095 173.873737)scale(0.1 -0.1)">
       <use transform="translate(0 0.684375)" xlink:href="#DejaVuSans-49"/>
       <use transform="translate(63.623047 0.684375)" xlink:href="#DejaVuSans-48"/>
       <use transform="translate(128.203125 38.965625)scale(0.7)" xlink:href="#DejaVuSans-53"/>
      </g>
     </g>
    </g>
    <g id="ytick_55">
     <g id="line2d_80">
      <g>
       <use style="stroke:#000000;stroke-width:0.8;" x="485.402095" xlink:href="#md8829a4655" y="70.521668"/>
      </g>
     </g>
     <g id="text_29">
      <!-- $\mathdefault{10^{6}}$ -->
      <g transform="translate(460.802095 74.320887)scale(0.1 -0.1)">
       <use transform="translate(0 0.765625)" xlink:href="#DejaVuSans-49"/>
       <use transform="translate(63.623047 0.765625)" xlink:href="#DejaVuSans-48"/>
       <use transform="translate(128.203125 39.046875)scale(0.7)" xlink:href="#DejaVuSans-54"/>
      </g>
     </g>
    </g>
    <g id="ytick_56">
     <g id="line2d_81">
      <g>
       <use style="stroke:#000000;stroke-width:0.6;" x="485.402095" xlink:href="#ma68cc9af93" y="239.658975"/>
      </g>
     </g>
    </g>
    <g id="ytick_57">
     <g id="line2d_82">
      <g>
       <use style="stroke:#000000;stroke-width:0.6;" x="485.402095" xlink:href="#ma68cc9af93" y="222.128588"/>
      </g>
     </g>
    </g>
    <g id="ytick_58">
     <g id="line2d_83">
      <g>
       <use style="stroke:#000000;stroke-width:0.6;" x="485.402095" xlink:href="#ma68cc9af93" y="209.690581"/>
      </g>
     </g>
    </g>
    <g id="ytick_59">
     <g id="line2d_84">
      <g>
       <use style="stroke:#000000;stroke-width:0.6;" x="485.402095" xlink:href="#ma68cc9af93" y="200.042913"/>
      </g>
     </g>
    </g>
    <g id="ytick_60">
     <g id="line2d_85">
      <g>
       <use style="stroke:#000000;stroke-width:0.6;" x="485.402095" xlink:href="#ma68cc9af93" y="192.160194"/>
      </g>
     </g>
    </g>
    <g id="ytick_61">
     <g id="line2d_86">
      <g>
       <use style="stroke:#000000;stroke-width:0.6;" x="485.402095" xlink:href="#ma68cc9af93" y="185.49545"/>
      </g>
     </g>
    </g>
    <g id="ytick_62">
     <g id="line2d_87">
      <g>
       <use style="stroke:#000000;stroke-width:0.6;" x="485.402095" xlink:href="#ma68cc9af93" y="179.722187"/>
      </g>
     </g>
    </g>
    <g id="ytick_63">
     <g id="line2d_88">
      <g>
       <use style="stroke:#000000;stroke-width:0.6;" x="485.402095" xlink:href="#ma68cc9af93" y="174.629807"/>
      </g>
     </g>
    </g>
    <g id="ytick_64">
     <g id="line2d_89">
      <g>
       <use style="stroke:#000000;stroke-width:0.6;" x="485.402095" xlink:href="#ma68cc9af93" y="140.106125"/>
      </g>
     </g>
    </g>
    <g id="ytick_65">
     <g id="line2d_90">
      <g>
       <use style="stroke:#000000;stroke-width:0.6;" x="485.402095" xlink:href="#ma68cc9af93" y="122.575738"/>
      </g>
     </g>
    </g>
    <g id="ytick_66">
     <g id="line2d_91">
      <g>
       <use style="stroke:#000000;stroke-width:0.6;" x="485.402095" xlink:href="#ma68cc9af93" y="110.13773"/>
      </g>
     </g>
    </g>
    <g id="ytick_67">
     <g id="line2d_92">
      <g>
       <use style="stroke:#000000;stroke-width:0.6;" x="485.402095" xlink:href="#ma68cc9af93" y="100.490062"/>
      </g>
     </g>
    </g>
    <g id="ytick_68">
     <g id="line2d_93">
      <g>
       <use style="stroke:#000000;stroke-width:0.6;" x="485.402095" xlink:href="#ma68cc9af93" y="92.607344"/>
      </g>
     </g>
    </g>
    <g id="ytick_69">
     <g id="line2d_94">
      <g>
       <use style="stroke:#000000;stroke-width:0.6;" x="485.402095" xlink:href="#ma68cc9af93" y="85.9426"/>
      </g>
     </g>
    </g>
    <g id="ytick_70">
     <g id="line2d_95">
      <g>
       <use style="stroke:#000000;stroke-width:0.6;" x="485.402095" xlink:href="#ma68cc9af93" y="80.169336"/>
      </g>
     </g>
    </g>
    <g id="ytick_71">
     <g id="line2d_96">
      <g>
       <use style="stroke:#000000;stroke-width:0.6;" x="485.402095" xlink:href="#ma68cc9af93" y="75.076957"/>
      </g>
     </g>
    </g>
    <g id="ytick_72">
     <g id="line2d_97">
      <g>
       <use style="stroke:#000000;stroke-width:0.6;" x="485.402095" xlink:href="#ma68cc9af93" y="40.553274"/>
      </g>
     </g>
    </g>
    <g id="ytick_73">
     <g id="line2d_98">
      <g>
       <use style="stroke:#000000;stroke-width:0.6;" x="485.402095" xlink:href="#ma68cc9af93" y="23.022887"/>
      </g>
     </g>
    </g>
    <g id="ytick_74">
     <g id="line2d_99">
      <g>
       <use style="stroke:#000000;stroke-width:0.6;" x="485.402095" xlink:href="#ma68cc9af93" y="10.58488"/>
      </g>
     </g>
    </g>
    <g id="text_30">
     <!-- Temperature [K] -->
     <g transform="translate(454.30647 178.343542)rotate(-90)scale(0.12 -0.12)">
      <defs>
       <path d="M -0.296875 72.90625 
L 61.375 72.90625 
L 61.375 64.59375 
L 35.5 64.59375 
L 35.5 0 
L 25.59375 0 
L 25.59375 64.59375 
L -0.296875 64.59375 
z
" id="DejaVuSans-84"/>
       <path d="M 9.8125 72.90625 
L 19.671875 72.90625 
L 19.671875 42.09375 
L 52.390625 72.90625 
L 65.09375 72.90625 
L 28.90625 38.921875 
L 67.671875 0 
L 54.6875 0 
L 19.671875 35.109375 
L 19.671875 0 
L 9.8125 0 
z
" id="DejaVuSans-75"/>
      </defs>
      <use xlink:href="#DejaVuSans-84"/>
      <use x="44.083984" xlink:href="#DejaVuSans-101"/>
      <use x="105.607422" xlink:href="#DejaVuSans-109"/>
      <use x="203.019531" xlink:href="#DejaVuSans-112"/>
      <use x="266.496094" xlink:href="#DejaVuSans-101"/>
      <use x="328.019531" xlink:href="#DejaVuSans-114"/>
      <use x="369.132812" xlink:href="#DejaVuSans-97"/>
      <use x="430.412109" xlink:href="#DejaVuSans-116"/>
      <use x="469.621094" xlink:href="#DejaVuSans-117"/>
      <use x="533" xlink:href="#DejaVuSans-114"/>
      <use x="571.863281" xlink:href="#DejaVuSans-101"/>
      <use x="633.386719" xlink:href="#DejaVuSans-32"/>
      <use x="665.173828" xlink:href="#DejaVuSans-91"/>
      <use x="704.1875" xlink:href="#DejaVuSans-75"/>
      <use x="769.763672" xlink:href="#DejaVuSans-93"/>
     </g>
    </g>
   </g>
   <g id="line2d_100">
    <path clip-path="url(#p476a623115)" d="M 498.494614 239.649909 
L 522.826671 239.556499 
L 523.013841 239.430696 
L 523.20101 239.137445 
L 523.38818 238.467763 
L 523.57535 236.971144 
L 523.762519 233.703272 
L 523.949689 226.744442 
L 524.136859 212.230609 
L 524.511198 154.294063 
L 524.885537 100.716548 
L 525.259877 87.995973 
L 525.821386 78.697879 
L 526.382895 72.957274 
L 527.131573 67.619421 
L 528.067422 62.83379 
L 529.00327 59.213925 
L 530.126288 55.793537 
L 531.249306 53.028861 
L 532.559494 50.364388 
L 534.056851 47.837143 
L 535.741378 45.463855 
L 537.613075 43.247825 
L 539.671941 41.186956 
L 541.917977 39.274293 
L 544.351183 37.501921 
L 546.971558 35.861134 
L 549.966273 34.249192 
L 553.335327 32.696593 
L 557.07872 31.223612 
L 561.196453 29.84319 
L 565.875695 28.514164 
L 571.116446 27.264649 
L 576.918705 26.115449 
L 583.282474 25.082544 
L 590.394922 24.157417 
L 598.068878 23.384249 
L 606.491513 22.763638 
L 615.288488 22.338399 
L 624.459801 22.115599 
L 633.818285 22.10897 
L 643.176768 22.325008 
L 652.160913 22.75231 
L 660.770717 23.384249 
L 668.631843 24.17903 
L 675.931461 25.137543 
L 682.482399 26.217313 
L 688.471828 27.42975 
L 693.712579 28.711985 
L 698.391821 30.078022 
L 702.509554 31.499903 
L 706.252947 33.021047 
L 709.622001 34.629435 
L 712.616716 36.305456 
L 715.237091 38.018743 
L 717.670297 39.878633 
L 719.729163 41.716079 
L 721.60086 43.661625 
L 723.285387 45.707645 
L 724.782744 47.837143 
L 726.280102 50.364388 
L 727.590289 53.028861 
L 728.713307 55.793537 
L 729.836325 59.213925 
L 730.772174 62.83379 
L 731.520852 66.533248 
L 732.269531 71.438463 
L 732.83104 76.537168 
L 733.392549 84.229028 
L 733.766889 93.033433 
L 733.954058 100.716548 
L 734.141228 119.282428 
L 734.702737 212.230609 
L 735.077076 233.703272 
L 735.451416 238.467763 
L 735.825755 239.430696 
L 736.200094 239.609425 
L 737.323112 239.646417 
L 760.344982 239.649909 
L 760.344982 239.649909 
" style="fill:none;stroke:#000000;stroke-linecap:square;stroke-width:1.5;"/>
   </g>
   <g id="line2d_101">
    <path clip-path="url(#p476a623115)" d="M 498.494614 239.649909 
L 523.20101 239.581539 
L 523.38818 239.428154 
L 523.57535 238.923682 
L 523.762519 237.315844 
L 523.949689 232.400556 
L 524.136859 218.263003 
L 524.698368 99.581384 
L 525.072707 86.354027 
L 525.634216 77.105677 
L 526.195725 71.466571 
L 526.944404 66.247821 
L 527.880252 61.578838 
L 528.8161 58.048653 
L 529.939118 54.711867 
L 531.249306 51.610287 
L 532.559494 49.076506 
L 534.056851 46.662695 
L 535.741378 44.387192 
L 537.613075 42.256538 
L 539.671941 40.270104 
L 541.917977 38.422839 
L 544.351183 36.708345 
L 547.158728 35.013834 
L 550.153443 33.465061 
L 553.522497 31.970315 
L 557.26589 30.549775 
L 561.570792 29.160795 
L 566.250034 27.884256 
L 571.490785 26.682489 
L 577.480214 25.543942 
L 584.031153 24.529171 
L 591.33077 23.62897 
L 599.191896 22.884869 
L 607.801701 22.297748 
L 616.785845 21.908186 
L 626.144328 21.723895 
L 635.689982 21.759073 
L 645.048465 22.014151 
L 654.032609 22.476974 
L 662.455244 23.126201 
L 670.316371 23.949302 
L 677.428818 24.909276 
L 683.979756 26.014581 
L 689.782016 27.213796 
L 695.022767 28.521111 
L 699.702009 29.917237 
L 703.819741 31.375018 
L 707.563135 32.940712 
L 710.745019 34.504231 
L 713.552564 36.113431 
L 716.17294 37.867055 
L 718.418976 39.621613 
L 720.477842 41.496395 
L 722.349539 43.491452 
L 724.034066 45.602299 
L 725.531423 47.815372 
L 726.841611 50.105789 
L 728.151798 52.856462 
L 729.274816 55.739774 
L 730.210665 58.689042 
L 731.146513 62.400991 
L 731.895192 66.247821 
L 732.643871 71.466571 
L 733.20538 77.105677 
L 733.579719 82.583759 
L 733.954058 91.475185 
L 734.141228 99.581384 
L 734.328398 126.435108 
L 734.702737 218.263003 
L 734.889907 232.400556 
L 735.077076 237.315844 
L 735.264246 238.923682 
L 735.451416 239.428154 
L 735.825755 239.626971 
L 737.510282 239.646747 
L 760.344982 239.649909 
L 760.344982 239.649909 
" style="fill:none;stroke:#808080;stroke-dasharray:1.5,2.475;stroke-dashoffset:0;stroke-width:1.5;"/>
   </g>
   <g id="line2d_102">
    <path clip-path="url(#p476a623115)" d="M 498.494614 239.649909 
L 522.826671 239.53527 
L 523.013841 239.402215 
L 523.20101 239.121951 
L 523.38818 238.544895 
L 523.57535 237.394635 
L 523.762519 235.195818 
L 523.949689 231.169169 
L 524.136859 223.904954 
L 524.511198 188.87714 
L 525.072707 102.554585 
L 525.447046 89.16556 
L 526.008555 79.63234 
L 526.570064 73.7663 
L 527.318743 68.295285 
L 528.254591 63.367345 
L 529.19044 59.623715 
L 530.313458 56.072074 
L 531.623645 52.757103 
L 532.933833 50.039299 
L 534.43119 47.439038 
L 536.115717 44.979263 
L 537.987414 42.666281 
L 540.04628 40.504405 
L 542.292316 38.486312 
L 544.725522 36.609933 
L 547.345898 34.866966 
L 550.340612 33.149076 
L 553.709666 31.489198 
L 557.45306 29.909668 
L 561.570792 28.424452 
L 566.062865 27.042089 
L 571.116446 25.723378 
L 576.731536 24.495424 
L 582.908135 23.377489 
L 589.646243 22.387131 
L 596.94586 21.540783 
L 604.806986 20.855663 
L 613.042452 20.360508 
L 621.652256 20.065031 
L 630.449231 19.985552 
L 639.246205 20.127919 
L 647.85601 20.485931 
L 656.278645 21.058509 
L 664.139771 21.812416 
L 671.439389 22.730324 
L 678.177497 23.79758 
L 684.354096 25.000034 
L 689.782016 26.27446 
L 694.835597 27.689267 
L 699.327669 29.178874 
L 703.258232 30.709232 
L 706.814456 32.327943 
L 709.99634 34.015855 
L 712.803886 35.746358 
L 715.424261 37.623494 
L 717.670297 39.493209 
L 719.729163 41.479844 
L 721.60086 43.579482 
L 723.285387 45.786026 
L 724.782744 48.075916 
L 726.280102 50.793454 
L 727.590289 53.655165 
L 728.713307 56.628871 
L 729.649156 59.639737 
L 730.585004 63.3807 
L 731.333683 67.191208 
L 732.082361 72.227294 
L 732.643871 77.451468 
L 733.20538 85.360361 
L 733.579719 94.580005 
L 733.766889 103.005337 
L 734.141228 162.065819 
L 734.515567 211.117892 
L 734.889907 231.572614 
L 735.264246 237.522951 
L 735.638585 239.166703 
L 736.012925 239.559326 
L 736.574434 239.649969 
L 760.344982 239.649909 
L 760.344982 239.649909 
" style="fill:none;stroke:#ff0000;stroke-dasharray:5.55,2.4;stroke-dashoffset:0;stroke-width:1.5;"/>
   </g>
   <g id="patch_9">
    <path d="M 485.402095 250.633333 
L 485.402095 9 
" style="fill:none;stroke:#000000;stroke-linecap:square;stroke-linejoin:miter;stroke-width:0.8;"/>
   </g>
   <g id="patch_10">
    <path d="M 773.4375 250.633333 
L 773.4375 9 
" style="fill:none;stroke:#000000;stroke-linecap:square;stroke-linejoin:miter;stroke-width:0.8;"/>
   </g>
   <g id="patch_11">
    <path d="M 485.402095 250.633333 
L 773.4375 250.633333 
" style="fill:none;stroke:#000000;stroke-linecap:square;stroke-linejoin:miter;stroke-width:0.8;"/>
   </g>
   <g id="patch_12">
    <path d="M 485.402095 9 
L 773.4375 9 
" style="fill:none;stroke:#000000;stroke-linecap:square;stroke-linejoin:miter;stroke-width:0.8;"/>
   </g>
   <g id="legend_2">
    <g id="patch_13">
     <path d="M 597.805423 244.633333 
L 661.034173 244.633333 
Q 663.434173 244.633333 663.434173 242.233333 
L 663.434173 190.592083 
Q 663.434173 188.192083 661.034173 188.192083 
L 597.805423 188.192083 
Q 595.405423 188.192083 595.405423 190.592083 
L 595.405423 242.233333 
Q 595.405423 244.633333 597.805423 244.633333 
z
" style="fill:#ffffff;opacity:0.8;stroke:#cccccc;stroke-linejoin:miter;"/>
    </g>
    <g id="line2d_103">
     <path d="M 600.205423 197.910208 
L 624.205423 197.910208 
" style="fill:none;stroke:#000000;stroke-linecap:square;stroke-width:1.5;"/>
    </g>
    <g id="line2d_104"/>
    <g id="text_31">
     <!-- SH -->
     <g transform="translate(633.805423 202.110208)scale(0.12 -0.12)">
      <use xlink:href="#DejaVuSans-83"/>
      <use x="63.476562" xlink:href="#DejaVuSans-72"/>
     </g>
    </g>
    <g id="line2d_105">
     <path d="M 600.205423 215.523958 
L 624.205423 215.523958 
" style="fill:none;stroke:#808080;stroke-dasharray:1.5,2.475;stroke-dashoffset:0;stroke-width:1.5;"/>
    </g>
    <g id="line2d_106"/>
    <g id="text_32">
     <!-- FL -->
     <g transform="translate(633.805423 219.723958)scale(0.12 -0.12)">
      <use xlink:href="#DejaVuSans-70"/>
      <use x="57.519531" xlink:href="#DejaVuSans-76"/>
     </g>
    </g>
    <g id="line2d_107">
     <path d="M 600.205423 233.137708 
L 624.205423 233.137708 
" style="fill:none;stroke:#ff0000;stroke-dasharray:5.55,2.4;stroke-dashoffset:0;stroke-width:1.5;"/>
    </g>
    <g id="line2d_108"/>
    <g id="text_33">
     <!-- SNB -->
     <g transform="translate(633.805423 237.337708)scale(0.12 -0.12)">
      <use xlink:href="#DejaVuSans-83"/>
      <use x="63.476562" xlink:href="#DejaVuSans-78"/>
      <use x="138.28125" xlink:href="#DejaVuSans-66"/>
     </g>
    </g>
   </g>
  </g>
 </g>
 <defs>
  <clipPath id="p127db64ed4">
   <rect height="241.633333" width="288.035405" x="106.319889" y="9"/>
  </clipPath>
  <clipPath id="p476a623115">
   <rect height="241.633333" width="288.035405" x="485.402095" y="9"/>
  </clipPath>
 </defs>
</svg>
