<?xml version="1.0" encoding="utf-8" standalone="no"?>
<!DOCTYPE svg PUBLIC "-//W3C//DTD SVG 1.1//EN"
  "http://www.w3.org/Graphics/SVG/1.1/DTD/svg11.dtd">
<!-- Created with matplotlib (https://matplotlib.org/) -->
<svg height="468pt" version="1.1" viewBox="0 0 864 468" width="864pt" xmlns="http://www.w3.org/2000/svg" xmlns:xlink="http://www.w3.org/1999/xlink">
 <metadata>
  <rdf:RDF xmlns:cc="http://creativecommons.org/ns#" xmlns:dc="http://purl.org/dc/elements/1.1/" xmlns:rdf="http://www.w3.org/1999/02/22-rdf-syntax-ns#">
   <cc:Work>
    <dc:type rdf:resource="http://purl.org/dc/dcmitype/StillImage"/>
    <dc:date>2025-04-03T18:08:15.930263</dc:date>
    <dc:format>image/svg+xml</dc:format>
    <dc:creator>
     <cc:Agent>
      <dc:title>Matplotlib v3.3.4, https://matplotlib.org/</dc:title>
     </cc:Agent>
    </dc:creator>
   </cc:Work>
  </rdf:RDF>
 </metadata>
 <defs>
  <style type="text/css">*{stroke-linecap:butt;stroke-linejoin:round;}</style>
 </defs>
 <g id="figure_1">
  <g id="patch_1">
   <path d="M 0 468 
L 864 468 
L 864 0 
L 0 0 
z
" style="fill:#ffffff;"/>
  </g>
  <g id="axes_1">
   <g id="patch_2">
    <path d="M 108 416.52 
L 412.363636 416.52 
L 412.363636 56.16 
L 108 56.16 
z
" style="fill:#ffffff;"/>
   </g>
   <g id="PathCollection_1">
    <defs>
     <path d="M 0 3 
C 0.795609 3 1.55874 2.683901 2.12132 2.12132 
C 2.683901 1.55874 3 0.795609 3 0 
C 3 -0.795609 2.683901 -1.55874 2.12132 -2.12132 
C 1.55874 -2.683901 0.795609 -3 0 -3 
C -0.795609 -3 -1.55874 -2.683901 -2.12132 -2.12132 
C -2.683901 -1.55874 -3 -0.795609 -3 0 
C -3 0.795609 -2.683901 1.55874 -2.12132 2.12132 
C -1.55874 2.683901 -0.795609 3 0 3 
z
" id="md95971b2bc" style="stroke:#1f77b4;"/>
    </defs>
    <g clip-path="url(#pa845ee31a7)">
     <use style="fill:#1f77b4;stroke:#1f77b4;" x="121.834711" xlink:href="#md95971b2bc" y="222.363113"/>
     <use style="fill:#1f77b4;stroke:#1f77b4;" x="260.181818" xlink:href="#md95971b2bc" y="156.369968"/>
     <use style="fill:#1f77b4;stroke:#1f77b4;" x="398.528926" xlink:href="#md95971b2bc" y="92.597012"/>
    </g>
   </g>
   <g id="PathCollection_2">
    <defs>
     <path d="M 0 3 
C 0.795609 3 1.55874 2.683901 2.12132 2.12132 
C 2.683901 1.55874 3 0.795609 3 0 
C 3 -0.795609 2.683901 -1.55874 2.12132 -2.12132 
C 1.55874 -2.683901 0.795609 -3 0 -3 
C -0.795609 -3 -1.55874 -2.683901 -2.12132 -2.12132 
C -2.683901 -1.55874 -3 -0.795609 -3 0 
C -3 0.795609 -2.683901 1.55874 -2.12132 2.12132 
C -1.55874 2.683901 -0.795609 3 0 3 
z
" id="m4cdcbb1753" style="stroke:#ff7f0e;"/>
    </defs>
    <g clip-path="url(#pa845ee31a7)">
     <use style="fill:#ff7f0e;stroke:#ff7f0e;" x="121.834711" xlink:href="#m4cdcbb1753" y="220.228478"/>
     <use style="fill:#ff7f0e;stroke:#ff7f0e;" x="260.181818" xlink:href="#m4cdcbb1753" y="155.291914"/>
     <use style="fill:#ff7f0e;stroke:#ff7f0e;" x="398.528926" xlink:href="#m4cdcbb1753" y="91.823544"/>
    </g>
   </g>
   <g id="PathCollection_3">
    <defs>
     <path d="M 0 3 
C 0.795609 3 1.55874 2.683901 2.12132 2.12132 
C 2.683901 1.55874 3 0.795609 3 0 
C 3 -0.795609 2.683901 -1.55874 2.12132 -2.12132 
C 1.55874 -2.683901 0.795609 -3 0 -3 
C -0.795609 -3 -1.55874 -2.683901 -2.12132 -2.12132 
C -2.683901 -1.55874 -3 -0.795609 -3 0 
C -3 0.795609 -2.683901 1.55874 -2.12132 2.12132 
C -1.55874 2.683901 -0.795609 3 0 3 
z
" id="mbdc4e3ac98" style="stroke:#2ca02c;"/>
    </defs>
    <g clip-path="url(#pa845ee31a7)">
     <use style="fill:#2ca02c;stroke:#2ca02c;" x="121.834711" xlink:href="#mbdc4e3ac98" y="214.193484"/>
     <use style="fill:#2ca02c;stroke:#2ca02c;" x="260.181818" xlink:href="#mbdc4e3ac98" y="149.14587"/>
     <use style="fill:#2ca02c;stroke:#2ca02c;" x="398.528926" xlink:href="#mbdc4e3ac98" y="86.891369"/>
    </g>
   </g>
   <g id="matplotlib.axis_1">
    <g id="xtick_1">
     <g id="line2d_1">
      <defs>
       <path d="M 0 0 
L 0 3.5 
" id="me1ac0d20cf" style="stroke:#000000;stroke-width:0.8;"/>
      </defs>
      <g>
       <use style="stroke:#000000;stroke-width:0.8;" x="121.834711" xlink:href="#me1ac0d20cf" y="416.52"/>
      </g>
     </g>
     <g id="text_1">
      <!-- 50 -->
      <g transform="translate(115.472211 431.118438)scale(0.1 -0.1)">
       <defs>
        <path d="M 10.796875 72.90625 
L 49.515625 72.90625 
L 49.515625 64.59375 
L 19.828125 64.59375 
L 19.828125 46.734375 
Q 21.96875 47.46875 24.109375 47.828125 
Q 26.265625 48.1875 28.421875 48.1875 
Q 40.625 48.1875 47.75 41.5 
Q 54.890625 34.8125 54.890625 23.390625 
Q 54.890625 11.625 47.5625 5.09375 
Q 40.234375 -1.421875 26.90625 -1.421875 
Q 22.3125 -1.421875 17.546875 -0.640625 
Q 12.796875 0.140625 7.71875 1.703125 
L 7.71875 11.625 
Q 12.109375 9.234375 16.796875 8.0625 
Q 21.484375 6.890625 26.703125 6.890625 
Q 35.15625 6.890625 40.078125 11.328125 
Q 45.015625 15.765625 45.015625 23.390625 
Q 45.015625 31 40.078125 35.4375 
Q 35.15625 39.890625 26.703125 39.890625 
Q 22.75 39.890625 18.8125 39.015625 
Q 14.890625 38.140625 10.796875 36.28125 
z
" id="DejaVuSans-53"/>
        <path d="M 31.78125 66.40625 
Q 24.171875 66.40625 20.328125 58.90625 
Q 16.5 51.421875 16.5 36.375 
Q 16.5 21.390625 20.328125 13.890625 
Q 24.171875 6.390625 31.78125 6.390625 
Q 39.453125 6.390625 43.28125 13.890625 
Q 47.125 21.390625 47.125 36.375 
Q 47.125 51.421875 43.28125 58.90625 
Q 39.453125 66.40625 31.78125 66.40625 
z
M 31.78125 74.21875 
Q 44.046875 74.21875 50.515625 64.515625 
Q 56.984375 54.828125 56.984375 36.375 
Q 56.984375 17.96875 50.515625 8.265625 
Q 44.046875 -1.421875 31.78125 -1.421875 
Q 19.53125 -1.421875 13.0625 8.265625 
Q 6.59375 17.96875 6.59375 36.375 
Q 6.59375 54.828125 13.0625 64.515625 
Q 19.53125 74.21875 31.78125 74.21875 
z
" id="DejaVuSans-48"/>
       </defs>
       <use xlink:href="#DejaVuSans-53"/>
       <use x="63.623047" xlink:href="#DejaVuSans-48"/>
      </g>
     </g>
    </g>
    <g id="xtick_2">
     <g id="line2d_2">
      <g>
       <use style="stroke:#000000;stroke-width:0.8;" x="260.181818" xlink:href="#me1ac0d20cf" y="416.52"/>
      </g>
     </g>
     <g id="text_2">
      <!-- 100 -->
      <g transform="translate(250.638068 431.118438)scale(0.1 -0.1)">
       <defs>
        <path d="M 12.40625 8.296875 
L 28.515625 8.296875 
L 28.515625 63.921875 
L 10.984375 60.40625 
L 10.984375 69.390625 
L 28.421875 72.90625 
L 38.28125 72.90625 
L 38.28125 8.296875 
L 54.390625 8.296875 
L 54.390625 0 
L 12.40625 0 
z
" id="DejaVuSans-49"/>
       </defs>
       <use xlink:href="#DejaVuSans-49"/>
       <use x="63.623047" xlink:href="#DejaVuSans-48"/>
       <use x="127.246094" xlink:href="#DejaVuSans-48"/>
      </g>
     </g>
    </g>
    <g id="xtick_3">
     <g id="line2d_3">
      <g>
       <use style="stroke:#000000;stroke-width:0.8;" x="341.109688" xlink:href="#me1ac0d20cf" y="416.52"/>
      </g>
     </g>
     <g id="text_3">
      <!-- 150 -->
      <g transform="translate(331.565938 431.118438)scale(0.1 -0.1)">
       <use xlink:href="#DejaVuSans-49"/>
       <use x="63.623047" xlink:href="#DejaVuSans-53"/>
       <use x="127.246094" xlink:href="#DejaVuSans-48"/>
      </g>
     </g>
    </g>
    <g id="xtick_4">
     <g id="line2d_4">
      <g>
       <use style="stroke:#000000;stroke-width:0.8;" x="398.528926" xlink:href="#me1ac0d20cf" y="416.52"/>
      </g>
     </g>
     <g id="text_4">
      <!-- 200 -->
      <g transform="translate(388.985176 431.118438)scale(0.1 -0.1)">
       <defs>
        <path d="M 19.1875 8.296875 
L 53.609375 8.296875 
L 53.609375 0 
L 7.328125 0 
L 7.328125 8.296875 
Q 12.9375 14.109375 22.625 23.890625 
Q 32.328125 33.6875 34.8125 36.53125 
Q 39.546875 41.84375 41.421875 45.53125 
Q 43.3125 49.21875 43.3125 52.78125 
Q 43.3125 58.59375 39.234375 62.25 
Q 35.15625 65.921875 28.609375 65.921875 
Q 23.96875 65.921875 18.8125 64.3125 
Q 13.671875 62.703125 7.8125 59.421875 
L 7.8125 69.390625 
Q 13.765625 71.78125 18.9375 73 
Q 24.125 74.21875 28.421875 74.21875 
Q 39.75 74.21875 46.484375 68.546875 
Q 53.21875 62.890625 53.21875 53.421875 
Q 53.21875 48.921875 51.53125 44.890625 
Q 49.859375 40.875 45.40625 35.40625 
Q 44.1875 33.984375 37.640625 27.21875 
Q 31.109375 20.453125 19.1875 8.296875 
z
" id="DejaVuSans-50"/>
       </defs>
       <use xlink:href="#DejaVuSans-50"/>
       <use x="63.623047" xlink:href="#DejaVuSans-48"/>
       <use x="127.246094" xlink:href="#DejaVuSans-48"/>
      </g>
     </g>
    </g>
    <g id="text_5">
     <!-- Loop length / Mm -->
     <g transform="translate(199.191037 447.835938)scale(0.14 -0.14)">
      <defs>
       <path d="M 9.8125 72.90625 
L 19.671875 72.90625 
L 19.671875 8.296875 
L 55.171875 8.296875 
L 55.171875 0 
L 9.8125 0 
z
" id="DejaVuSans-76"/>
       <path d="M 30.609375 48.390625 
Q 23.390625 48.390625 19.1875 42.75 
Q 14.984375 37.109375 14.984375 27.296875 
Q 14.984375 17.484375 19.15625 11.84375 
Q 23.34375 6.203125 30.609375 6.203125 
Q 37.796875 6.203125 41.984375 11.859375 
Q 46.1875 17.53125 46.1875 27.296875 
Q 46.1875 37.015625 41.984375 42.703125 
Q 37.796875 48.390625 30.609375 48.390625 
z
M 30.609375 56 
Q 42.328125 56 49.015625 48.375 
Q 55.71875 40.765625 55.71875 27.296875 
Q 55.71875 13.875 49.015625 6.21875 
Q 42.328125 -1.421875 30.609375 -1.421875 
Q 18.84375 -1.421875 12.171875 6.21875 
Q 5.515625 13.875 5.515625 27.296875 
Q 5.515625 40.765625 12.171875 48.375 
Q 18.84375 56 30.609375 56 
z
" id="DejaVuSans-111"/>
       <path d="M 18.109375 8.203125 
L 18.109375 -20.796875 
L 9.078125 -20.796875 
L 9.078125 54.6875 
L 18.109375 54.6875 
L 18.109375 46.390625 
Q 20.953125 51.265625 25.265625 53.625 
Q 29.59375 56 35.59375 56 
Q 45.5625 56 51.78125 48.09375 
Q 58.015625 40.1875 58.015625 27.296875 
Q 58.015625 14.40625 51.78125 6.484375 
Q 45.5625 -1.421875 35.59375 -1.421875 
Q 29.59375 -1.421875 25.265625 0.953125 
Q 20.953125 3.328125 18.109375 8.203125 
z
M 48.6875 27.296875 
Q 48.6875 37.203125 44.609375 42.84375 
Q 40.53125 48.484375 33.40625 48.484375 
Q 26.265625 48.484375 22.1875 42.84375 
Q 18.109375 37.203125 18.109375 27.296875 
Q 18.109375 17.390625 22.1875 11.75 
Q 26.265625 6.109375 33.40625 6.109375 
Q 40.53125 6.109375 44.609375 11.75 
Q 48.6875 17.390625 48.6875 27.296875 
z
" id="DejaVuSans-112"/>
       <path id="DejaVuSans-32"/>
       <path d="M 9.421875 75.984375 
L 18.40625 75.984375 
L 18.40625 0 
L 9.421875 0 
z
" id="DejaVuSans-108"/>
       <path d="M 56.203125 29.59375 
L 56.203125 25.203125 
L 14.890625 25.203125 
Q 15.484375 15.921875 20.484375 11.0625 
Q 25.484375 6.203125 34.421875 6.203125 
Q 39.59375 6.203125 44.453125 7.46875 
Q 49.3125 8.734375 54.109375 11.28125 
L 54.109375 2.78125 
Q 49.265625 0.734375 44.1875 -0.34375 
Q 39.109375 -1.421875 33.890625 -1.421875 
Q 20.796875 -1.421875 13.15625 6.1875 
Q 5.515625 13.8125 5.515625 26.8125 
Q 5.515625 40.234375 12.765625 48.109375 
Q 20.015625 56 32.328125 56 
Q 43.359375 56 49.78125 48.890625 
Q 56.203125 41.796875 56.203125 29.59375 
z
M 47.21875 32.234375 
Q 47.125 39.59375 43.09375 43.984375 
Q 39.0625 48.390625 32.421875 48.390625 
Q 24.90625 48.390625 20.390625 44.140625 
Q 15.875 39.890625 15.1875 32.171875 
z
" id="DejaVuSans-101"/>
       <path d="M 54.890625 33.015625 
L 54.890625 0 
L 45.90625 0 
L 45.90625 32.71875 
Q 45.90625 40.484375 42.875 44.328125 
Q 39.84375 48.1875 33.796875 48.1875 
Q 26.515625 48.1875 22.3125 43.546875 
Q 18.109375 38.921875 18.109375 30.90625 
L 18.109375 0 
L 9.078125 0 
L 9.078125 54.6875 
L 18.109375 54.6875 
L 18.109375 46.1875 
Q 21.34375 51.125 25.703125 53.5625 
Q 30.078125 56 35.796875 56 
Q 45.21875 56 50.046875 50.171875 
Q 54.890625 44.34375 54.890625 33.015625 
z
" id="DejaVuSans-110"/>
       <path d="M 45.40625 27.984375 
Q 45.40625 37.75 41.375 43.109375 
Q 37.359375 48.484375 30.078125 48.484375 
Q 22.859375 48.484375 18.828125 43.109375 
Q 14.796875 37.75 14.796875 27.984375 
Q 14.796875 18.265625 18.828125 12.890625 
Q 22.859375 7.515625 30.078125 7.515625 
Q 37.359375 7.515625 41.375 12.890625 
Q 45.40625 18.265625 45.40625 27.984375 
z
M 54.390625 6.78125 
Q 54.390625 -7.171875 48.1875 -13.984375 
Q 42 -20.796875 29.203125 -20.796875 
Q 24.46875 -20.796875 20.265625 -20.09375 
Q 16.0625 -19.390625 12.109375 -17.921875 
L 12.109375 -9.1875 
Q 16.0625 -11.328125 19.921875 -12.34375 
Q 23.78125 -13.375 27.78125 -13.375 
Q 36.625 -13.375 41.015625 -8.765625 
Q 45.40625 -4.15625 45.40625 5.171875 
L 45.40625 9.625 
Q 42.625 4.78125 38.28125 2.390625 
Q 33.9375 0 27.875 0 
Q 17.828125 0 11.671875 7.65625 
Q 5.515625 15.328125 5.515625 27.984375 
Q 5.515625 40.671875 11.671875 48.328125 
Q 17.828125 56 27.875 56 
Q 33.9375 56 38.28125 53.609375 
Q 42.625 51.21875 45.40625 46.390625 
L 45.40625 54.6875 
L 54.390625 54.6875 
z
" id="DejaVuSans-103"/>
       <path d="M 18.3125 70.21875 
L 18.3125 54.6875 
L 36.8125 54.6875 
L 36.8125 47.703125 
L 18.3125 47.703125 
L 18.3125 18.015625 
Q 18.3125 11.328125 20.140625 9.421875 
Q 21.96875 7.515625 27.59375 7.515625 
L 36.8125 7.515625 
L 36.8125 0 
L 27.59375 0 
Q 17.1875 0 13.234375 3.875 
Q 9.28125 7.765625 9.28125 18.015625 
L 9.28125 47.703125 
L 2.6875 47.703125 
L 2.6875 54.6875 
L 9.28125 54.6875 
L 9.28125 70.21875 
z
" id="DejaVuSans-116"/>
       <path d="M 54.890625 33.015625 
L 54.890625 0 
L 45.90625 0 
L 45.90625 32.71875 
Q 45.90625 40.484375 42.875 44.328125 
Q 39.84375 48.1875 33.796875 48.1875 
Q 26.515625 48.1875 22.3125 43.546875 
Q 18.109375 38.921875 18.109375 30.90625 
L 18.109375 0 
L 9.078125 0 
L 9.078125 75.984375 
L 18.109375 75.984375 
L 18.109375 46.1875 
Q 21.34375 51.125 25.703125 53.5625 
Q 30.078125 56 35.796875 56 
Q 45.21875 56 50.046875 50.171875 
Q 54.890625 44.34375 54.890625 33.015625 
z
" id="DejaVuSans-104"/>
       <path d="M 25.390625 72.90625 
L 33.6875 72.90625 
L 8.296875 -9.28125 
L 0 -9.28125 
z
" id="DejaVuSans-47"/>
       <path d="M 9.8125 72.90625 
L 24.515625 72.90625 
L 43.109375 23.296875 
L 61.8125 72.90625 
L 76.515625 72.90625 
L 76.515625 0 
L 66.890625 0 
L 66.890625 64.015625 
L 48.09375 14.015625 
L 38.1875 14.015625 
L 19.390625 64.015625 
L 19.390625 0 
L 9.8125 0 
z
" id="DejaVuSans-77"/>
       <path d="M 52 44.1875 
Q 55.375 50.25 60.0625 53.125 
Q 64.75 56 71.09375 56 
Q 79.640625 56 84.28125 50.015625 
Q 88.921875 44.046875 88.921875 33.015625 
L 88.921875 0 
L 79.890625 0 
L 79.890625 32.71875 
Q 79.890625 40.578125 77.09375 44.375 
Q 74.3125 48.1875 68.609375 48.1875 
Q 61.625 48.1875 57.5625 43.546875 
Q 53.515625 38.921875 53.515625 30.90625 
L 53.515625 0 
L 44.484375 0 
L 44.484375 32.71875 
Q 44.484375 40.625 41.703125 44.40625 
Q 38.921875 48.1875 33.109375 48.1875 
Q 26.21875 48.1875 22.15625 43.53125 
Q 18.109375 38.875 18.109375 30.90625 
L 18.109375 0 
L 9.078125 0 
L 9.078125 54.6875 
L 18.109375 54.6875 
L 18.109375 46.1875 
Q 21.1875 51.21875 25.484375 53.609375 
Q 29.78125 56 35.6875 56 
Q 41.65625 56 45.828125 52.96875 
Q 50 49.953125 52 44.1875 
z
" id="DejaVuSans-109"/>
      </defs>
      <use xlink:href="#DejaVuSans-76"/>
      <use x="53.962891" xlink:href="#DejaVuSans-111"/>
      <use x="115.144531" xlink:href="#DejaVuSans-111"/>
      <use x="176.326172" xlink:href="#DejaVuSans-112"/>
      <use x="239.802734" xlink:href="#DejaVuSans-32"/>
      <use x="271.589844" xlink:href="#DejaVuSans-108"/>
      <use x="299.373047" xlink:href="#DejaVuSans-101"/>
      <use x="360.896484" xlink:href="#DejaVuSans-110"/>
      <use x="424.275391" xlink:href="#DejaVuSans-103"/>
      <use x="487.751953" xlink:href="#DejaVuSans-116"/>
      <use x="526.960938" xlink:href="#DejaVuSans-104"/>
      <use x="590.339844" xlink:href="#DejaVuSans-32"/>
      <use x="622.126953" xlink:href="#DejaVuSans-47"/>
      <use x="655.818359" xlink:href="#DejaVuSans-32"/>
      <use x="687.605469" xlink:href="#DejaVuSans-77"/>
      <use x="773.884766" xlink:href="#DejaVuSans-109"/>
     </g>
    </g>
   </g>
   <g id="matplotlib.axis_2">
    <g id="ytick_1">
     <g id="line2d_5">
      <defs>
       <path d="M 0 0 
L -3.5 0 
" id="m9d0263e5e4" style="stroke:#000000;stroke-width:0.8;"/>
      </defs>
      <g>
       <use style="stroke:#000000;stroke-width:0.8;" x="108" xlink:href="#m9d0263e5e4" y="416.52"/>
      </g>
     </g>
     <g id="text_6">
      <!-- 1 -->
      <g transform="translate(94.6375 420.319219)scale(0.1 -0.1)">
       <use xlink:href="#DejaVuSans-49"/>
      </g>
     </g>
    </g>
    <g id="ytick_2">
     <g id="line2d_6">
      <g>
       <use style="stroke:#000000;stroke-width:0.8;" x="108" xlink:href="#m9d0263e5e4" y="296.4"/>
      </g>
     </g>
     <g id="text_7">
      <!-- 2 -->
      <g transform="translate(94.6375 300.199219)scale(0.1 -0.1)">
       <use xlink:href="#DejaVuSans-50"/>
      </g>
     </g>
    </g>
    <g id="ytick_3">
     <g id="line2d_7">
      <g>
       <use style="stroke:#000000;stroke-width:0.8;" x="108" xlink:href="#m9d0263e5e4" y="226.134304"/>
      </g>
     </g>
     <g id="text_8">
      <!-- 3 -->
      <g transform="translate(94.6375 229.933523)scale(0.1 -0.1)">
       <defs>
        <path d="M 40.578125 39.3125 
Q 47.65625 37.796875 51.625 33 
Q 55.609375 28.21875 55.609375 21.1875 
Q 55.609375 10.40625 48.1875 4.484375 
Q 40.765625 -1.421875 27.09375 -1.421875 
Q 22.515625 -1.421875 17.65625 -0.515625 
Q 12.796875 0.390625 7.625 2.203125 
L 7.625 11.71875 
Q 11.71875 9.328125 16.59375 8.109375 
Q 21.484375 6.890625 26.8125 6.890625 
Q 36.078125 6.890625 40.9375 10.546875 
Q 45.796875 14.203125 45.796875 21.1875 
Q 45.796875 27.640625 41.28125 31.265625 
Q 36.765625 34.90625 28.71875 34.90625 
L 20.21875 34.90625 
L 20.21875 43.015625 
L 29.109375 43.015625 
Q 36.375 43.015625 40.234375 45.921875 
Q 44.09375 48.828125 44.09375 54.296875 
Q 44.09375 59.90625 40.109375 62.90625 
Q 36.140625 65.921875 28.71875 65.921875 
Q 24.65625 65.921875 20.015625 65.03125 
Q 15.375 64.15625 9.8125 62.3125 
L 9.8125 71.09375 
Q 15.4375 72.65625 20.34375 73.4375 
Q 25.25 74.21875 29.59375 74.21875 
Q 40.828125 74.21875 47.359375 69.109375 
Q 53.90625 64.015625 53.90625 55.328125 
Q 53.90625 49.265625 50.4375 45.09375 
Q 46.96875 40.921875 40.578125 39.3125 
z
" id="DejaVuSans-51"/>
       </defs>
       <use xlink:href="#DejaVuSans-51"/>
      </g>
     </g>
    </g>
    <g id="ytick_4">
     <g id="line2d_8">
      <g>
       <use style="stroke:#000000;stroke-width:0.8;" x="108" xlink:href="#m9d0263e5e4" y="176.28"/>
      </g>
     </g>
     <g id="text_9">
      <!-- 4 -->
      <g transform="translate(94.6375 180.079219)scale(0.1 -0.1)">
       <defs>
        <path d="M 37.796875 64.3125 
L 12.890625 25.390625 
L 37.796875 25.390625 
z
M 35.203125 72.90625 
L 47.609375 72.90625 
L 47.609375 25.390625 
L 58.015625 25.390625 
L 58.015625 17.1875 
L 47.609375 17.1875 
L 47.609375 0 
L 37.796875 0 
L 37.796875 17.1875 
L 4.890625 17.1875 
L 4.890625 26.703125 
z
" id="DejaVuSans-52"/>
       </defs>
       <use xlink:href="#DejaVuSans-52"/>
      </g>
     </g>
    </g>
    <g id="ytick_5">
     <g id="line2d_9">
      <g>
       <use style="stroke:#000000;stroke-width:0.8;" x="108" xlink:href="#m9d0263e5e4" y="137.609997"/>
      </g>
     </g>
     <g id="text_10">
      <!-- 5 -->
      <g transform="translate(94.6375 141.409216)scale(0.1 -0.1)">
       <use xlink:href="#DejaVuSans-53"/>
      </g>
     </g>
    </g>
    <g id="ytick_6">
     <g id="line2d_10">
      <g>
       <use style="stroke:#000000;stroke-width:0.8;" x="108" xlink:href="#m9d0263e5e4" y="106.014304"/>
      </g>
     </g>
     <g id="text_11">
      <!-- 6 -->
      <g transform="translate(94.6375 109.813523)scale(0.1 -0.1)">
       <defs>
        <path d="M 33.015625 40.375 
Q 26.375 40.375 22.484375 35.828125 
Q 18.609375 31.296875 18.609375 23.390625 
Q 18.609375 15.53125 22.484375 10.953125 
Q 26.375 6.390625 33.015625 6.390625 
Q 39.65625 6.390625 43.53125 10.953125 
Q 47.40625 15.53125 47.40625 23.390625 
Q 47.40625 31.296875 43.53125 35.828125 
Q 39.65625 40.375 33.015625 40.375 
z
M 52.59375 71.296875 
L 52.59375 62.3125 
Q 48.875 64.0625 45.09375 64.984375 
Q 41.3125 65.921875 37.59375 65.921875 
Q 27.828125 65.921875 22.671875 59.328125 
Q 17.53125 52.734375 16.796875 39.40625 
Q 19.671875 43.65625 24.015625 45.921875 
Q 28.375 48.1875 33.59375 48.1875 
Q 44.578125 48.1875 50.953125 41.515625 
Q 57.328125 34.859375 57.328125 23.390625 
Q 57.328125 12.15625 50.6875 5.359375 
Q 44.046875 -1.421875 33.015625 -1.421875 
Q 20.359375 -1.421875 13.671875 8.265625 
Q 6.984375 17.96875 6.984375 36.375 
Q 6.984375 53.65625 15.1875 63.9375 
Q 23.390625 74.21875 37.203125 74.21875 
Q 40.921875 74.21875 44.703125 73.484375 
Q 48.484375 72.75 52.59375 71.296875 
z
" id="DejaVuSans-54"/>
       </defs>
       <use xlink:href="#DejaVuSans-54"/>
      </g>
     </g>
    </g>
    <g id="text_12">
     <!-- Apex Temperature / MK -->
     <g transform="translate(87.725938 317.899844)rotate(-90)scale(0.14 -0.14)">
      <defs>
       <path d="M 34.1875 63.1875 
L 20.796875 26.90625 
L 47.609375 26.90625 
z
M 28.609375 72.90625 
L 39.796875 72.90625 
L 67.578125 0 
L 57.328125 0 
L 50.6875 18.703125 
L 17.828125 18.703125 
L 11.1875 0 
L 0.78125 0 
z
" id="DejaVuSans-65"/>
       <path d="M 54.890625 54.6875 
L 35.109375 28.078125 
L 55.90625 0 
L 45.3125 0 
L 29.390625 21.484375 
L 13.484375 0 
L 2.875 0 
L 24.125 28.609375 
L 4.6875 54.6875 
L 15.28125 54.6875 
L 29.78125 35.203125 
L 44.28125 54.6875 
z
" id="DejaVuSans-120"/>
       <path d="M -0.296875 72.90625 
L 61.375 72.90625 
L 61.375 64.59375 
L 35.5 64.59375 
L 35.5 0 
L 25.59375 0 
L 25.59375 64.59375 
L -0.296875 64.59375 
z
" id="DejaVuSans-84"/>
       <path d="M 41.109375 46.296875 
Q 39.59375 47.171875 37.8125 47.578125 
Q 36.03125 48 33.890625 48 
Q 26.265625 48 22.1875 43.046875 
Q 18.109375 38.09375 18.109375 28.8125 
L 18.109375 0 
L 9.078125 0 
L 9.078125 54.6875 
L 18.109375 54.6875 
L 18.109375 46.1875 
Q 20.953125 51.171875 25.484375 53.578125 
Q 30.03125 56 36.53125 56 
Q 37.453125 56 38.578125 55.875 
Q 39.703125 55.765625 41.0625 55.515625 
z
" id="DejaVuSans-114"/>
       <path d="M 34.28125 27.484375 
Q 23.390625 27.484375 19.1875 25 
Q 14.984375 22.515625 14.984375 16.5 
Q 14.984375 11.71875 18.140625 8.90625 
Q 21.296875 6.109375 26.703125 6.109375 
Q 34.1875 6.109375 38.703125 11.40625 
Q 43.21875 16.703125 43.21875 25.484375 
L 43.21875 27.484375 
z
M 52.203125 31.203125 
L 52.203125 0 
L 43.21875 0 
L 43.21875 8.296875 
Q 40.140625 3.328125 35.546875 0.953125 
Q 30.953125 -1.421875 24.3125 -1.421875 
Q 15.921875 -1.421875 10.953125 3.296875 
Q 6 8.015625 6 15.921875 
Q 6 25.140625 12.171875 29.828125 
Q 18.359375 34.515625 30.609375 34.515625 
L 43.21875 34.515625 
L 43.21875 35.40625 
Q 43.21875 41.609375 39.140625 45 
Q 35.0625 48.390625 27.6875 48.390625 
Q 23 48.390625 18.546875 47.265625 
Q 14.109375 46.140625 10.015625 43.890625 
L 10.015625 52.203125 
Q 14.9375 54.109375 19.578125 55.046875 
Q 24.21875 56 28.609375 56 
Q 40.484375 56 46.34375 49.84375 
Q 52.203125 43.703125 52.203125 31.203125 
z
" id="DejaVuSans-97"/>
       <path d="M 8.5 21.578125 
L 8.5 54.6875 
L 17.484375 54.6875 
L 17.484375 21.921875 
Q 17.484375 14.15625 20.5 10.265625 
Q 23.53125 6.390625 29.59375 6.390625 
Q 36.859375 6.390625 41.078125 11.03125 
Q 45.3125 15.671875 45.3125 23.6875 
L 45.3125 54.6875 
L 54.296875 54.6875 
L 54.296875 0 
L 45.3125 0 
L 45.3125 8.40625 
Q 42.046875 3.421875 37.71875 1 
Q 33.40625 -1.421875 27.6875 -1.421875 
Q 18.265625 -1.421875 13.375 4.4375 
Q 8.5 10.296875 8.5 21.578125 
z
M 31.109375 56 
z
" id="DejaVuSans-117"/>
       <path d="M 9.8125 72.90625 
L 19.671875 72.90625 
L 19.671875 42.09375 
L 52.390625 72.90625 
L 65.09375 72.90625 
L 28.90625 38.921875 
L 67.671875 0 
L 54.6875 0 
L 19.671875 35.109375 
L 19.671875 0 
L 9.8125 0 
z
" id="DejaVuSans-75"/>
      </defs>
      <use xlink:href="#DejaVuSans-65"/>
      <use x="68.408203" xlink:href="#DejaVuSans-112"/>
      <use x="131.884766" xlink:href="#DejaVuSans-101"/>
      <use x="191.658203" xlink:href="#DejaVuSans-120"/>
      <use x="250.837891" xlink:href="#DejaVuSans-32"/>
      <use x="282.625" xlink:href="#DejaVuSans-84"/>
      <use x="326.708984" xlink:href="#DejaVuSans-101"/>
      <use x="388.232422" xlink:href="#DejaVuSans-109"/>
      <use x="485.644531" xlink:href="#DejaVuSans-112"/>
      <use x="549.121094" xlink:href="#DejaVuSans-101"/>
      <use x="610.644531" xlink:href="#DejaVuSans-114"/>
      <use x="651.757812" xlink:href="#DejaVuSans-97"/>
      <use x="713.037109" xlink:href="#DejaVuSans-116"/>
      <use x="752.246094" xlink:href="#DejaVuSans-117"/>
      <use x="815.625" xlink:href="#DejaVuSans-114"/>
      <use x="854.488281" xlink:href="#DejaVuSans-101"/>
      <use x="916.011719" xlink:href="#DejaVuSans-32"/>
      <use x="947.798828" xlink:href="#DejaVuSans-47"/>
      <use x="981.490234" xlink:href="#DejaVuSans-32"/>
      <use x="1013.277344" xlink:href="#DejaVuSans-77"/>
      <use x="1099.556641" xlink:href="#DejaVuSans-75"/>
     </g>
    </g>
   </g>
   <g id="line2d_11">
    <path clip-path="url(#pa845ee31a7)" d="M 121.834711 221.993082 
L 260.181818 157.110031 
L 398.528926 92.22698 
" style="fill:none;stroke:#1f77b4;stroke-dasharray:5.55,2.4;stroke-dashoffset:0;stroke-width:1.5;"/>
   </g>
   <g id="line2d_12">
    <path clip-path="url(#pa845ee31a7)" d="M 121.834711 219.983779 
L 260.181818 155.781312 
L 398.528926 91.578845 
" style="fill:none;stroke:#ff7f0e;stroke-dasharray:5.55,2.4;stroke-dashoffset:0;stroke-width:1.5;"/>
   </g>
   <g id="line2d_13">
    <path clip-path="url(#pa845ee31a7)" d="M 121.834711 213.727965 
L 260.181818 150.076908 
L 398.528926 86.42585 
" style="fill:none;stroke:#2ca02c;stroke-dasharray:5.55,2.4;stroke-dashoffset:0;stroke-width:1.5;"/>
   </g>
   <g id="patch_3">
    <path d="M 108 416.52 
L 108 56.16 
" style="fill:none;stroke:#000000;stroke-linecap:square;stroke-linejoin:miter;stroke-width:0.8;"/>
   </g>
   <g id="patch_4">
    <path d="M 412.363636 416.52 
L 412.363636 56.16 
" style="fill:none;stroke:#000000;stroke-linecap:square;stroke-linejoin:miter;stroke-width:0.8;"/>
   </g>
   <g id="patch_5">
    <path d="M 108 416.52 
L 412.363636 416.52 
" style="fill:none;stroke:#000000;stroke-linecap:square;stroke-linejoin:miter;stroke-width:0.8;"/>
   </g>
   <g id="patch_6">
    <path d="M 108 56.16 
L 412.363636 56.16 
" style="fill:none;stroke:#000000;stroke-linecap:square;stroke-linejoin:miter;stroke-width:0.8;"/>
   </g>
   <g id="text_13">
    <!-- Constant heating rate of 110 $\mu$W/m$^3$ -->
    <g transform="translate(114.501818 50.16)scale(0.16 -0.16)">
     <defs>
      <path d="M 64.40625 67.28125 
L 64.40625 56.890625 
Q 59.421875 61.53125 53.78125 63.8125 
Q 48.140625 66.109375 41.796875 66.109375 
Q 29.296875 66.109375 22.65625 58.46875 
Q 16.015625 50.828125 16.015625 36.375 
Q 16.015625 21.96875 22.65625 14.328125 
Q 29.296875 6.6875 41.796875 6.6875 
Q 48.140625 6.6875 53.78125 8.984375 
Q 59.421875 11.28125 64.40625 15.921875 
L 64.40625 5.609375 
Q 59.234375 2.09375 53.4375 0.328125 
Q 47.65625 -1.421875 41.21875 -1.421875 
Q 24.65625 -1.421875 15.125 8.703125 
Q 5.609375 18.84375 5.609375 36.375 
Q 5.609375 53.953125 15.125 64.078125 
Q 24.65625 74.21875 41.21875 74.21875 
Q 47.75 74.21875 53.53125 72.484375 
Q 59.328125 70.75 64.40625 67.28125 
z
" id="DejaVuSans-67"/>
      <path d="M 44.28125 53.078125 
L 44.28125 44.578125 
Q 40.484375 46.53125 36.375 47.5 
Q 32.28125 48.484375 27.875 48.484375 
Q 21.1875 48.484375 17.84375 46.4375 
Q 14.5 44.390625 14.5 40.28125 
Q 14.5 37.15625 16.890625 35.375 
Q 19.28125 33.59375 26.515625 31.984375 
L 29.59375 31.296875 
Q 39.15625 29.25 43.1875 25.515625 
Q 47.21875 21.78125 47.21875 15.09375 
Q 47.21875 7.46875 41.1875 3.015625 
Q 35.15625 -1.421875 24.609375 -1.421875 
Q 20.21875 -1.421875 15.453125 -0.5625 
Q 10.6875 0.296875 5.421875 2 
L 5.421875 11.28125 
Q 10.40625 8.6875 15.234375 7.390625 
Q 20.0625 6.109375 24.8125 6.109375 
Q 31.15625 6.109375 34.5625 8.28125 
Q 37.984375 10.453125 37.984375 14.40625 
Q 37.984375 18.0625 35.515625 20.015625 
Q 33.0625 21.96875 24.703125 23.78125 
L 21.578125 24.515625 
Q 13.234375 26.265625 9.515625 29.90625 
Q 5.8125 33.546875 5.8125 39.890625 
Q 5.8125 47.609375 11.28125 51.796875 
Q 16.75 56 26.8125 56 
Q 31.78125 56 36.171875 55.265625 
Q 40.578125 54.546875 44.28125 53.078125 
z
" id="DejaVuSans-115"/>
      <path d="M 9.421875 54.6875 
L 18.40625 54.6875 
L 18.40625 0 
L 9.421875 0 
z
M 9.421875 75.984375 
L 18.40625 75.984375 
L 18.40625 64.59375 
L 9.421875 64.59375 
z
" id="DejaVuSans-105"/>
      <path d="M 37.109375 75.984375 
L 37.109375 68.5 
L 28.515625 68.5 
Q 23.6875 68.5 21.796875 66.546875 
Q 19.921875 64.59375 19.921875 59.515625 
L 19.921875 54.6875 
L 34.71875 54.6875 
L 34.71875 47.703125 
L 19.921875 47.703125 
L 19.921875 0 
L 10.890625 0 
L 10.890625 47.703125 
L 2.296875 47.703125 
L 2.296875 54.6875 
L 10.890625 54.6875 
L 10.890625 58.5 
Q 10.890625 67.625 15.140625 71.796875 
Q 19.390625 75.984375 28.609375 75.984375 
z
" id="DejaVuSans-102"/>
      <path d="M -1.3125 -20.796875 
L 13.375 54.6875 
L 22.40625 54.6875 
L 15.765625 20.65625 
Q 15.578125 19.625 15.421875 18.359375 
Q 15.28125 17.09375 15.28125 15.828125 
Q 15.28125 11.28125 18.140625 8.828125 
Q 21 6.390625 26.3125 6.390625 
Q 33.546875 6.390625 37.984375 10.484375 
Q 42.4375 14.59375 44 22.796875 
L 50.203125 54.6875 
L 59.1875 54.6875 
L 51.03125 12.640625 
Q 50.828125 11.71875 50.75 11.03125 
Q 50.6875 10.359375 50.6875 9.8125 
Q 50.6875 8.296875 51.296875 7.59375 
Q 51.90625 6.890625 53.21875 6.890625 
Q 53.71875 6.890625 54.5625 7.125 
Q 55.421875 7.375 56.984375 8.015625 
L 55.609375 0.78125 
Q 53.46875 -0.296875 51.515625 -0.859375 
Q 49.5625 -1.421875 47.703125 -1.421875 
Q 44.484375 -1.421875 42.65625 0.625 
Q 40.828125 2.6875 40.828125 6.296875 
Q 38.09375 2.390625 34.296875 0.484375 
Q 30.515625 -1.421875 25.390625 -1.421875 
Q 20.84375 -1.421875 17.453125 0.671875 
Q 14.0625 2.78125 12.984375 6.203125 
L 7.71875 -20.796875 
z
" id="DejaVuSans-Oblique-956"/>
      <path d="M 3.328125 72.90625 
L 13.28125 72.90625 
L 28.609375 11.28125 
L 43.890625 72.90625 
L 54.984375 72.90625 
L 70.3125 11.28125 
L 85.59375 72.90625 
L 95.609375 72.90625 
L 77.296875 0 
L 64.890625 0 
L 49.515625 63.28125 
L 33.984375 0 
L 21.578125 0 
z
" id="DejaVuSans-87"/>
     </defs>
     <use transform="translate(0 0.765625)" xlink:href="#DejaVuSans-67"/>
     <use transform="translate(69.824219 0.765625)" xlink:href="#DejaVuSans-111"/>
     <use transform="translate(131.005859 0.765625)" xlink:href="#DejaVuSans-110"/>
     <use transform="translate(194.384766 0.765625)" xlink:href="#DejaVuSans-115"/>
     <use transform="translate(246.484375 0.765625)" xlink:href="#DejaVuSans-116"/>
     <use transform="translate(285.693359 0.765625)" xlink:href="#DejaVuSans-97"/>
     <use transform="translate(346.972656 0.765625)" xlink:href="#DejaVuSans-110"/>
     <use transform="translate(410.351562 0.765625)" xlink:href="#DejaVuSans-116"/>
     <use transform="translate(449.560547 0.765625)" xlink:href="#DejaVuSans-32"/>
     <use transform="translate(481.347656 0.765625)" xlink:href="#DejaVuSans-104"/>
     <use transform="translate(544.726562 0.765625)" xlink:href="#DejaVuSans-101"/>
     <use transform="translate(606.25 0.765625)" xlink:href="#DejaVuSans-97"/>
     <use transform="translate(667.529297 0.765625)" xlink:href="#DejaVuSans-116"/>
     <use transform="translate(706.738281 0.765625)" xlink:href="#DejaVuSans-105"/>
     <use transform="translate(734.521484 0.765625)" xlink:href="#DejaVuSans-110"/>
     <use transform="translate(797.900391 0.765625)" xlink:href="#DejaVuSans-103"/>
     <use transform="translate(861.376953 0.765625)" xlink:href="#DejaVuSans-32"/>
     <use transform="translate(893.164062 0.765625)" xlink:href="#DejaVuSans-114"/>
     <use transform="translate(934.277344 0.765625)" xlink:href="#DejaVuSans-97"/>
     <use transform="translate(995.556641 0.765625)" xlink:href="#DejaVuSans-116"/>
     <use transform="translate(1034.765625 0.765625)" xlink:href="#DejaVuSans-101"/>
     <use transform="translate(1096.289062 0.765625)" xlink:href="#DejaVuSans-32"/>
     <use transform="translate(1128.076172 0.765625)" xlink:href="#DejaVuSans-111"/>
     <use transform="translate(1189.257812 0.765625)" xlink:href="#DejaVuSans-102"/>
     <use transform="translate(1224.462891 0.765625)" xlink:href="#DejaVuSans-32"/>
     <use transform="translate(1256.25 0.765625)" xlink:href="#DejaVuSans-49"/>
     <use transform="translate(1319.873047 0.765625)" xlink:href="#DejaVuSans-49"/>
     <use transform="translate(1383.496094 0.765625)" xlink:href="#DejaVuSans-48"/>
     <use transform="translate(1447.119141 0.765625)" xlink:href="#DejaVuSans-32"/>
     <use transform="translate(1478.90625 0.765625)" xlink:href="#DejaVuSans-Oblique-956"/>
     <use transform="translate(1542.529297 0.765625)" xlink:href="#DejaVuSans-87"/>
     <use transform="translate(1641.40625 0.765625)" xlink:href="#DejaVuSans-47"/>
     <use transform="translate(1675.097656 0.765625)" xlink:href="#DejaVuSans-109"/>
     <use transform="translate(1773.466797 39.046875)scale(0.7)" xlink:href="#DejaVuSans-51"/>
    </g>
   </g>
   <g id="legend_1">
    <g id="patch_7">
     <path d="M 116.4 410.52 
L 179.62875 410.52 
Q 182.02875 410.52 182.02875 408.12 
L 182.02875 356.47875 
Q 182.02875 354.07875 179.62875 354.07875 
L 116.4 354.07875 
Q 114 354.07875 114 356.47875 
L 114 408.12 
Q 114 410.52 116.4 410.52 
z
" style="fill:#ffffff;opacity:0.8;stroke:#cccccc;stroke-linejoin:miter;"/>
    </g>
    <g id="PathCollection_4">
     <g>
      <use style="fill:#1f77b4;stroke:#1f77b4;" x="130.8" xlink:href="#md95971b2bc" y="364.846875"/>
     </g>
    </g>
    <g id="text_14">
     <!-- SH -->
     <g transform="translate(152.4 367.996875)scale(0.12 -0.12)">
      <defs>
       <path d="M 53.515625 70.515625 
L 53.515625 60.890625 
Q 47.90625 63.578125 42.921875 64.890625 
Q 37.9375 66.21875 33.296875 66.21875 
Q 25.25 66.21875 20.875 63.09375 
Q 16.5 59.96875 16.5 54.203125 
Q 16.5 49.359375 19.40625 46.890625 
Q 22.3125 44.4375 30.421875 42.921875 
L 36.375 41.703125 
Q 47.40625 39.59375 52.65625 34.296875 
Q 57.90625 29 57.90625 20.125 
Q 57.90625 9.515625 50.796875 4.046875 
Q 43.703125 -1.421875 29.984375 -1.421875 
Q 24.8125 -1.421875 18.96875 -0.25 
Q 13.140625 0.921875 6.890625 3.21875 
L 6.890625 13.375 
Q 12.890625 10.015625 18.65625 8.296875 
Q 24.421875 6.59375 29.984375 6.59375 
Q 38.421875 6.59375 43.015625 9.90625 
Q 47.609375 13.234375 47.609375 19.390625 
Q 47.609375 24.75 44.3125 27.78125 
Q 41.015625 30.8125 33.5 32.328125 
L 27.484375 33.5 
Q 16.453125 35.6875 11.515625 40.375 
Q 6.59375 45.0625 6.59375 53.421875 
Q 6.59375 63.09375 13.40625 68.65625 
Q 20.21875 74.21875 32.171875 74.21875 
Q 37.3125 74.21875 42.625 73.28125 
Q 47.953125 72.359375 53.515625 70.515625 
z
" id="DejaVuSans-83"/>
       <path d="M 9.8125 72.90625 
L 19.671875 72.90625 
L 19.671875 43.015625 
L 55.515625 43.015625 
L 55.515625 72.90625 
L 65.375 72.90625 
L 65.375 0 
L 55.515625 0 
L 55.515625 34.71875 
L 19.671875 34.71875 
L 19.671875 0 
L 9.8125 0 
z
" id="DejaVuSans-72"/>
      </defs>
      <use xlink:href="#DejaVuSans-83"/>
      <use x="63.476562" xlink:href="#DejaVuSans-72"/>
     </g>
    </g>
    <g id="PathCollection_5">
     <g>
      <use style="fill:#ff7f0e;stroke:#ff7f0e;" x="130.8" xlink:href="#m4cdcbb1753" y="382.460625"/>
     </g>
    </g>
    <g id="text_15">
     <!-- FL -->
     <g transform="translate(152.4 385.610625)scale(0.12 -0.12)">
      <defs>
       <path d="M 9.8125 72.90625 
L 51.703125 72.90625 
L 51.703125 64.59375 
L 19.671875 64.59375 
L 19.671875 43.109375 
L 48.578125 43.109375 
L 48.578125 34.8125 
L 19.671875 34.8125 
L 19.671875 0 
L 9.8125 0 
z
" id="DejaVuSans-70"/>
      </defs>
      <use xlink:href="#DejaVuSans-70"/>
      <use x="57.519531" xlink:href="#DejaVuSans-76"/>
     </g>
    </g>
    <g id="PathCollection_6">
     <g>
      <use style="fill:#2ca02c;stroke:#2ca02c;" x="130.8" xlink:href="#mbdc4e3ac98" y="400.074375"/>
     </g>
    </g>
    <g id="text_16">
     <!-- SNB -->
     <g transform="translate(152.4 403.224375)scale(0.12 -0.12)">
      <defs>
       <path d="M 9.8125 72.90625 
L 23.09375 72.90625 
L 55.421875 11.921875 
L 55.421875 72.90625 
L 64.984375 72.90625 
L 64.984375 0 
L 51.703125 0 
L 19.390625 60.984375 
L 19.390625 0 
L 9.8125 0 
z
" id="DejaVuSans-78"/>
       <path d="M 19.671875 34.8125 
L 19.671875 8.109375 
L 35.5 8.109375 
Q 43.453125 8.109375 47.28125 11.40625 
Q 51.125 14.703125 51.125 21.484375 
Q 51.125 28.328125 47.28125 31.5625 
Q 43.453125 34.8125 35.5 34.8125 
z
M 19.671875 64.796875 
L 19.671875 42.828125 
L 34.28125 42.828125 
Q 41.5 42.828125 45.03125 45.53125 
Q 48.578125 48.25 48.578125 53.8125 
Q 48.578125 59.328125 45.03125 62.0625 
Q 41.5 64.796875 34.28125 64.796875 
z
M 9.8125 72.90625 
L 35.015625 72.90625 
Q 46.296875 72.90625 52.390625 68.21875 
Q 58.5 63.53125 58.5 54.890625 
Q 58.5 48.1875 55.375 44.234375 
Q 52.25 40.28125 46.1875 39.3125 
Q 53.46875 37.75 57.5 32.78125 
Q 61.53125 27.828125 61.53125 20.40625 
Q 61.53125 10.640625 54.890625 5.3125 
Q 48.25 0 35.984375 0 
L 9.8125 0 
z
" id="DejaVuSans-66"/>
      </defs>
      <use xlink:href="#DejaVuSans-83"/>
      <use x="63.476562" xlink:href="#DejaVuSans-78"/>
      <use x="138.28125" xlink:href="#DejaVuSans-66"/>
     </g>
    </g>
   </g>
   <g id="legend_2">
    <g id="patch_8">
     <path d="M 290.203636 410.52 
L 403.963636 410.52 
Q 406.363636 410.52 406.363636 408.12 
L 406.363636 356.47875 
Q 406.363636 354.07875 403.963636 354.07875 
L 290.203636 354.07875 
Q 287.803636 354.07875 287.803636 356.47875 
L 287.803636 408.12 
Q 287.803636 410.52 290.203636 410.52 
z
" style="fill:#ffffff;opacity:0.8;stroke:#cccccc;stroke-linejoin:miter;"/>
    </g>
    <g id="line2d_14">
     <path d="M 292.603636 363.796875 
L 316.603636 363.796875 
" style="fill:none;stroke:#1f77b4;stroke-dasharray:5.55,2.4;stroke-dashoffset:0;stroke-width:1.5;"/>
    </g>
    <g id="line2d_15"/>
    <g id="text_17">
     <!-- $T = {0.37}L^{0.54}$ -->
     <g transform="translate(326.203636 367.996875)scale(0.12 -0.12)">
      <defs>
       <path d="M 5.90625 72.90625 
L 67.578125 72.90625 
L 66.015625 64.59375 
L 39.984375 64.59375 
L 27.484375 0 
L 17.578125 0 
L 30.078125 64.59375 
L 4.296875 64.59375 
z
" id="DejaVuSans-Oblique-84"/>
       <path d="M 10.59375 45.40625 
L 73.1875 45.40625 
L 73.1875 37.203125 
L 10.59375 37.203125 
z
M 10.59375 25.484375 
L 73.1875 25.484375 
L 73.1875 17.1875 
L 10.59375 17.1875 
z
" id="DejaVuSans-61"/>
       <path d="M 10.6875 12.40625 
L 21 12.40625 
L 21 0 
L 10.6875 0 
z
" id="DejaVuSans-46"/>
       <path d="M 8.203125 72.90625 
L 55.078125 72.90625 
L 55.078125 68.703125 
L 28.609375 0 
L 18.3125 0 
L 43.21875 64.59375 
L 8.203125 64.59375 
z
" id="DejaVuSans-55"/>
       <path d="M 16.796875 72.90625 
L 26.703125 72.90625 
L 14.203125 8.203125 
L 49.703125 8.203125 
L 48.09375 0 
L 2.6875 0 
z
" id="DejaVuSans-Oblique-76"/>
      </defs>
      <use transform="translate(0 0.765625)" xlink:href="#DejaVuSans-Oblique-84"/>
      <use transform="translate(80.566406 0.765625)" xlink:href="#DejaVuSans-61"/>
      <use transform="translate(183.837891 0.765625)" xlink:href="#DejaVuSans-48"/>
      <use transform="translate(247.460938 0.765625)" xlink:href="#DejaVuSans-46"/>
      <use transform="translate(279.248047 0.765625)" xlink:href="#DejaVuSans-51"/>
      <use transform="translate(342.871094 0.765625)" xlink:href="#DejaVuSans-55"/>
      <use transform="translate(406.494141 0.765625)" xlink:href="#DejaVuSans-Oblique-76"/>
      <use transform="translate(469.223802 39.046875)scale(0.7)" xlink:href="#DejaVuSans-48"/>
      <use transform="translate(513.759935 39.046875)scale(0.7)" xlink:href="#DejaVuSans-46"/>
      <use transform="translate(536.010911 39.046875)scale(0.7)" xlink:href="#DejaVuSans-53"/>
      <use transform="translate(580.547044 39.046875)scale(0.7)" xlink:href="#DejaVuSans-52"/>
     </g>
    </g>
    <g id="line2d_16">
     <path d="M 292.603636 381.410625 
L 316.603636 381.410625 
" style="fill:none;stroke:#ff7f0e;stroke-dasharray:5.55,2.4;stroke-dashoffset:0;stroke-width:1.5;"/>
    </g>
    <g id="line2d_17"/>
    <g id="text_18">
     <!-- $T = {0.38}L^{0.53}$ -->
     <g transform="translate(326.203636 385.610625)scale(0.12 -0.12)">
      <defs>
       <path d="M 31.78125 34.625 
Q 24.75 34.625 20.71875 30.859375 
Q 16.703125 27.09375 16.703125 20.515625 
Q 16.703125 13.921875 20.71875 10.15625 
Q 24.75 6.390625 31.78125 6.390625 
Q 38.8125 6.390625 42.859375 10.171875 
Q 46.921875 13.96875 46.921875 20.515625 
Q 46.921875 27.09375 42.890625 30.859375 
Q 38.875 34.625 31.78125 34.625 
z
M 21.921875 38.8125 
Q 15.578125 40.375 12.03125 44.71875 
Q 8.5 49.078125 8.5 55.328125 
Q 8.5 64.0625 14.71875 69.140625 
Q 20.953125 74.21875 31.78125 74.21875 
Q 42.671875 74.21875 48.875 69.140625 
Q 55.078125 64.0625 55.078125 55.328125 
Q 55.078125 49.078125 51.53125 44.71875 
Q 48 40.375 41.703125 38.8125 
Q 48.828125 37.15625 52.796875 32.3125 
Q 56.78125 27.484375 56.78125 20.515625 
Q 56.78125 9.90625 50.3125 4.234375 
Q 43.84375 -1.421875 31.78125 -1.421875 
Q 19.734375 -1.421875 13.25 4.234375 
Q 6.78125 9.90625 6.78125 20.515625 
Q 6.78125 27.484375 10.78125 32.3125 
Q 14.796875 37.15625 21.921875 38.8125 
z
M 18.3125 54.390625 
Q 18.3125 48.734375 21.84375 45.5625 
Q 25.390625 42.390625 31.78125 42.390625 
Q 38.140625 42.390625 41.71875 45.5625 
Q 45.3125 48.734375 45.3125 54.390625 
Q 45.3125 60.0625 41.71875 63.234375 
Q 38.140625 66.40625 31.78125 66.40625 
Q 25.390625 66.40625 21.84375 63.234375 
Q 18.3125 60.0625 18.3125 54.390625 
z
" id="DejaVuSans-56"/>
      </defs>
      <use transform="translate(0 0.765625)" xlink:href="#DejaVuSans-Oblique-84"/>
      <use transform="translate(80.566406 0.765625)" xlink:href="#DejaVuSans-61"/>
      <use transform="translate(183.837891 0.765625)" xlink:href="#DejaVuSans-48"/>
      <use transform="translate(247.460938 0.765625)" xlink:href="#DejaVuSans-46"/>
      <use transform="translate(279.248047 0.765625)" xlink:href="#DejaVuSans-51"/>
      <use transform="translate(342.871094 0.765625)" xlink:href="#DejaVuSans-56"/>
      <use transform="translate(406.494141 0.765625)" xlink:href="#DejaVuSans-Oblique-76"/>
      <use transform="translate(469.223802 39.046875)scale(0.7)" xlink:href="#DejaVuSans-48"/>
      <use transform="translate(513.759935 39.046875)scale(0.7)" xlink:href="#DejaVuSans-46"/>
      <use transform="translate(536.010911 39.046875)scale(0.7)" xlink:href="#DejaVuSans-53"/>
      <use transform="translate(580.547044 39.046875)scale(0.7)" xlink:href="#DejaVuSans-51"/>
     </g>
    </g>
    <g id="line2d_18">
     <path d="M 292.603636 399.024375 
L 316.603636 399.024375 
" style="fill:none;stroke:#2ca02c;stroke-dasharray:5.55,2.4;stroke-dashoffset:0;stroke-width:1.5;"/>
    </g>
    <g id="line2d_19"/>
    <g id="text_19">
     <!-- $T = {0.41}L^{0.53}$ -->
     <g transform="translate(326.203636 403.224375)scale(0.12 -0.12)">
      <use transform="translate(0 0.765625)" xlink:href="#DejaVuSans-Oblique-84"/>
      <use transform="translate(80.566406 0.765625)" xlink:href="#DejaVuSans-61"/>
      <use transform="translate(183.837891 0.765625)" xlink:href="#DejaVuSans-48"/>
      <use transform="translate(247.460938 0.765625)" xlink:href="#DejaVuSans-46"/>
      <use transform="translate(279.248047 0.765625)" xlink:href="#DejaVuSans-52"/>
      <use transform="translate(342.871094 0.765625)" xlink:href="#DejaVuSans-49"/>
      <use transform="translate(406.494141 0.765625)" xlink:href="#DejaVuSans-Oblique-76"/>
      <use transform="translate(469.223802 39.046875)scale(0.7)" xlink:href="#DejaVuSans-48"/>
      <use transform="translate(513.759935 39.046875)scale(0.7)" xlink:href="#DejaVuSans-46"/>
      <use transform="translate(536.010911 39.046875)scale(0.7)" xlink:href="#DejaVuSans-53"/>
      <use transform="translate(580.547044 39.046875)scale(0.7)" xlink:href="#DejaVuSans-51"/>
     </g>
    </g>
   </g>
  </g>
  <g id="axes_2">
   <g id="patch_9">
    <path d="M 473.236364 416.52 
L 777.6 416.52 
L 777.6 56.16 
L 473.236364 56.16 
z
" style="fill:#ffffff;"/>
   </g>
   <g id="PathCollection_7">
    <g clip-path="url(#pf9d25692be)">
     <use style="fill:#1f77b4;stroke:#1f77b4;" x="487.071074" xlink:href="#md95971b2bc" y="206.546421"/>
     <use style="fill:#1f77b4;stroke:#1f77b4;" x="606.109547" xlink:href="#md95971b2bc" y="156.099825"/>
     <use style="fill:#1f77b4;stroke:#1f77b4;" x="763.765289" xlink:href="#md95971b2bc" y="92.597012"/>
    </g>
   </g>
   <g id="PathCollection_8">
    <g clip-path="url(#pf9d25692be)">
     <use style="fill:#ff7f0e;stroke:#ff7f0e;" x="487.071074" xlink:href="#m4cdcbb1753" y="205.00554"/>
     <use style="fill:#ff7f0e;stroke:#ff7f0e;" x="606.109547" xlink:href="#m4cdcbb1753" y="154.870221"/>
     <use style="fill:#ff7f0e;stroke:#ff7f0e;" x="763.765289" xlink:href="#m4cdcbb1753" y="91.823544"/>
    </g>
   </g>
   <g id="PathCollection_9">
    <g clip-path="url(#pf9d25692be)">
     <use style="fill:#2ca02c;stroke:#2ca02c;" x="487.071074" xlink:href="#mbdc4e3ac98" y="195.552468"/>
     <use style="fill:#2ca02c;stroke:#2ca02c;" x="606.109547" xlink:href="#mbdc4e3ac98" y="147.817355"/>
     <use style="fill:#2ca02c;stroke:#2ca02c;" x="763.765289" xlink:href="#mbdc4e3ac98" y="86.891369"/>
    </g>
   </g>
   <g id="matplotlib.axis_3">
    <g id="xtick_5">
     <g id="line2d_20">
      <g>
       <use style="stroke:#000000;stroke-width:0.8;" x="513.329125" xlink:href="#me1ac0d20cf" y="416.52"/>
      </g>
     </g>
     <g id="text_20">
      <!-- 50 -->
      <g transform="translate(506.966625 431.118438)scale(0.1 -0.1)">
       <use xlink:href="#DejaVuSans-53"/>
       <use x="63.623047" xlink:href="#DejaVuSans-48"/>
      </g>
     </g>
    </g>
    <g id="xtick_6">
     <g id="line2d_21">
      <g>
       <use style="stroke:#000000;stroke-width:0.8;" x="594.894079" xlink:href="#me1ac0d20cf" y="416.52"/>
      </g>
     </g>
     <g id="text_21">
      <!-- 100 -->
      <g transform="translate(585.350329 431.118438)scale(0.1 -0.1)">
       <use xlink:href="#DejaVuSans-49"/>
       <use x="63.623047" xlink:href="#DejaVuSans-48"/>
       <use x="127.246094" xlink:href="#DejaVuSans-48"/>
      </g>
     </g>
    </g>
    <g id="xtick_7">
     <g id="line2d_22">
      <g>
       <use style="stroke:#000000;stroke-width:0.8;" x="702.717083" xlink:href="#me1ac0d20cf" y="416.52"/>
      </g>
     </g>
     <g id="text_22">
      <!-- 250 -->
      <g transform="translate(693.173333 431.118438)scale(0.1 -0.1)">
       <use xlink:href="#DejaVuSans-50"/>
       <use x="63.623047" xlink:href="#DejaVuSans-53"/>
       <use x="127.246094" xlink:href="#DejaVuSans-48"/>
      </g>
     </g>
    </g>
    <g id="text_23">
     <!-- Heating rate / $\mu$W/$m^3$ -->
     <g transform="translate(550.518182 449.938125)scale(0.14 -0.14)">
      <defs>
       <path d="M 89.796875 33.015625 
L 83.40625 0 
L 74.421875 0 
L 80.71875 32.71875 
Q 81.109375 34.8125 81.296875 36.328125 
Q 81.5 37.84375 81.5 38.921875 
Q 81.5 43.3125 79.046875 45.75 
Q 76.609375 48.1875 72.21875 48.1875 
Q 65.671875 48.1875 60.546875 43.28125 
Q 55.421875 38.375 53.90625 30.515625 
L 47.90625 0 
L 38.921875 0 
L 45.3125 32.71875 
Q 45.703125 34.515625 45.890625 36.046875 
Q 46.09375 37.59375 46.09375 38.8125 
Q 46.09375 43.265625 43.65625 45.71875 
Q 41.21875 48.1875 36.921875 48.1875 
Q 30.28125 48.1875 25.140625 43.28125 
Q 20.015625 38.375 18.5 30.515625 
L 12.5 0 
L 3.515625 0 
L 14.203125 54.6875 
L 23.1875 54.6875 
L 21.484375 46.1875 
Q 25.140625 50.984375 30.046875 53.484375 
Q 34.96875 56 40.578125 56 
Q 46.53125 56 50.359375 52.875 
Q 54.203125 49.75 54.984375 44.1875 
Q 59.078125 49.953125 64.46875 52.96875 
Q 69.875 56 75.875 56 
Q 82.90625 56 86.734375 51.953125 
Q 90.578125 47.90625 90.578125 40.484375 
Q 90.578125 38.875 90.375 36.9375 
Q 90.1875 35.015625 89.796875 33.015625 
z
" id="DejaVuSans-Oblique-109"/>
      </defs>
      <use transform="translate(0 0.765625)" xlink:href="#DejaVuSans-72"/>
      <use transform="translate(75.195312 0.765625)" xlink:href="#DejaVuSans-101"/>
      <use transform="translate(136.71875 0.765625)" xlink:href="#DejaVuSans-97"/>
      <use transform="translate(197.998047 0.765625)" xlink:href="#DejaVuSans-116"/>
      <use transform="translate(237.207031 0.765625)" xlink:href="#DejaVuSans-105"/>
      <use transform="translate(264.990234 0.765625)" xlink:href="#DejaVuSans-110"/>
      <use transform="translate(328.369141 0.765625)" xlink:href="#DejaVuSans-103"/>
      <use transform="translate(391.845703 0.765625)" xlink:href="#DejaVuSans-32"/>
      <use transform="translate(423.632812 0.765625)" xlink:href="#DejaVuSans-114"/>
      <use transform="translate(464.746094 0.765625)" xlink:href="#DejaVuSans-97"/>
      <use transform="translate(526.025391 0.765625)" xlink:href="#DejaVuSans-116"/>
      <use transform="translate(565.234375 0.765625)" xlink:href="#DejaVuSans-101"/>
      <use transform="translate(626.757812 0.765625)" xlink:href="#DejaVuSans-32"/>
      <use transform="translate(658.544922 0.765625)" xlink:href="#DejaVuSans-47"/>
      <use transform="translate(692.236328 0.765625)" xlink:href="#DejaVuSans-32"/>
      <use transform="translate(724.023438 0.765625)" xlink:href="#DejaVuSans-Oblique-956"/>
      <use transform="translate(787.646484 0.765625)" xlink:href="#DejaVuSans-87"/>
      <use transform="translate(886.523438 0.765625)" xlink:href="#DejaVuSans-47"/>
      <use transform="translate(920.214844 0.765625)" xlink:href="#DejaVuSans-Oblique-109"/>
      <use transform="translate(1022.276849 39.046875)scale(0.7)" xlink:href="#DejaVuSans-51"/>
     </g>
    </g>
   </g>
   <g id="matplotlib.axis_4">
    <g id="ytick_7">
     <g id="line2d_23">
      <g>
       <use style="stroke:#000000;stroke-width:0.8;" x="473.236364" xlink:href="#m9d0263e5e4" y="416.52"/>
      </g>
     </g>
    </g>
    <g id="ytick_8">
     <g id="line2d_24">
      <g>
       <use style="stroke:#000000;stroke-width:0.8;" x="473.236364" xlink:href="#m9d0263e5e4" y="296.4"/>
      </g>
     </g>
    </g>
    <g id="ytick_9">
     <g id="line2d_25">
      <g>
       <use style="stroke:#000000;stroke-width:0.8;" x="473.236364" xlink:href="#m9d0263e5e4" y="226.134304"/>
      </g>
     </g>
    </g>
    <g id="ytick_10">
     <g id="line2d_26">
      <g>
       <use style="stroke:#000000;stroke-width:0.8;" x="473.236364" xlink:href="#m9d0263e5e4" y="176.28"/>
      </g>
     </g>
    </g>
    <g id="ytick_11">
     <g id="line2d_27">
      <g>
       <use style="stroke:#000000;stroke-width:0.8;" x="473.236364" xlink:href="#m9d0263e5e4" y="137.609997"/>
      </g>
     </g>
    </g>
    <g id="ytick_12">
     <g id="line2d_28">
      <g>
       <use style="stroke:#000000;stroke-width:0.8;" x="473.236364" xlink:href="#m9d0263e5e4" y="106.014304"/>
      </g>
     </g>
    </g>
   </g>
   <g id="line2d_29">
    <path clip-path="url(#pf9d25692be)" d="M 487.071074 206.009125 
L 606.109547 157.042807 
L 763.765289 92.191325 
" style="fill:none;stroke:#1f77b4;stroke-dasharray:5.55,2.4;stroke-dashoffset:0;stroke-width:1.5;"/>
   </g>
   <g id="line2d_30">
    <path clip-path="url(#pf9d25692be)" d="M 487.071074 204.461121 
L 606.109547 155.825707 
L 763.765289 91.412478 
" style="fill:none;stroke:#ff7f0e;stroke-dasharray:5.55,2.4;stroke-dashoffset:0;stroke-width:1.5;"/>
   </g>
   <g id="line2d_31">
    <path clip-path="url(#pf9d25692be)" d="M 487.071074 195.179858 
L 606.109547 148.471304 
L 763.765289 86.610029 
" style="fill:none;stroke:#2ca02c;stroke-dasharray:5.55,2.4;stroke-dashoffset:0;stroke-width:1.5;"/>
   </g>
   <g id="patch_10">
    <path d="M 473.236364 416.52 
L 473.236364 56.16 
" style="fill:none;stroke:#000000;stroke-linecap:square;stroke-linejoin:miter;stroke-width:0.8;"/>
   </g>
   <g id="patch_11">
    <path d="M 777.6 416.52 
L 777.6 56.16 
" style="fill:none;stroke:#000000;stroke-linecap:square;stroke-linejoin:miter;stroke-width:0.8;"/>
   </g>
   <g id="patch_12">
    <path d="M 473.236364 416.52 
L 777.6 416.52 
" style="fill:none;stroke:#000000;stroke-linecap:square;stroke-linejoin:miter;stroke-width:0.8;"/>
   </g>
   <g id="patch_13">
    <path d="M 473.236364 56.16 
L 777.6 56.16 
" style="fill:none;stroke:#000000;stroke-linecap:square;stroke-linejoin:miter;stroke-width:0.8;"/>
   </g>
   <g id="text_24">
    <!-- Constant loop length of 100Mm -->
    <g transform="translate(499.016932 50.16)scale(0.16 -0.16)">
     <use xlink:href="#DejaVuSans-67"/>
     <use x="69.824219" xlink:href="#DejaVuSans-111"/>
     <use x="131.005859" xlink:href="#DejaVuSans-110"/>
     <use x="194.384766" xlink:href="#DejaVuSans-115"/>
     <use x="246.484375" xlink:href="#DejaVuSans-116"/>
     <use x="285.693359" xlink:href="#DejaVuSans-97"/>
     <use x="346.972656" xlink:href="#DejaVuSans-110"/>
     <use x="410.351562" xlink:href="#DejaVuSans-116"/>
     <use x="449.560547" xlink:href="#DejaVuSans-32"/>
     <use x="481.347656" xlink:href="#DejaVuSans-108"/>
     <use x="509.130859" xlink:href="#DejaVuSans-111"/>
     <use x="570.3125" xlink:href="#DejaVuSans-111"/>
     <use x="631.494141" xlink:href="#DejaVuSans-112"/>
     <use x="694.970703" xlink:href="#DejaVuSans-32"/>
     <use x="726.757812" xlink:href="#DejaVuSans-108"/>
     <use x="754.541016" xlink:href="#DejaVuSans-101"/>
     <use x="816.064453" xlink:href="#DejaVuSans-110"/>
     <use x="879.443359" xlink:href="#DejaVuSans-103"/>
     <use x="942.919922" xlink:href="#DejaVuSans-116"/>
     <use x="982.128906" xlink:href="#DejaVuSans-104"/>
     <use x="1045.507812" xlink:href="#DejaVuSans-32"/>
     <use x="1077.294922" xlink:href="#DejaVuSans-111"/>
     <use x="1138.476562" xlink:href="#DejaVuSans-102"/>
     <use x="1173.681641" xlink:href="#DejaVuSans-32"/>
     <use x="1205.46875" xlink:href="#DejaVuSans-49"/>
     <use x="1269.091797" xlink:href="#DejaVuSans-48"/>
     <use x="1332.714844" xlink:href="#DejaVuSans-48"/>
     <use x="1396.337891" xlink:href="#DejaVuSans-77"/>
     <use x="1482.617188" xlink:href="#DejaVuSans-109"/>
    </g>
   </g>
   <g id="legend_3">
    <g id="patch_14">
     <path d="M 481.636364 410.52 
L 544.865114 410.52 
Q 547.265114 410.52 547.265114 408.12 
L 547.265114 356.47875 
Q 547.265114 354.07875 544.865114 354.07875 
L 481.636364 354.07875 
Q 479.236364 354.07875 479.236364 356.47875 
L 479.236364 408.12 
Q 479.236364 410.52 481.636364 410.52 
z
" style="fill:#ffffff;opacity:0.8;stroke:#cccccc;stroke-linejoin:miter;"/>
    </g>
    <g id="PathCollection_10">
     <g>
      <use style="fill:#1f77b4;stroke:#1f77b4;" x="496.036364" xlink:href="#md95971b2bc" y="364.846875"/>
     </g>
    </g>
    <g id="text_25">
     <!-- SH -->
     <g transform="translate(517.636364 367.996875)scale(0.12 -0.12)">
      <use xlink:href="#DejaVuSans-83"/>
      <use x="63.476562" xlink:href="#DejaVuSans-72"/>
     </g>
    </g>
    <g id="PathCollection_11">
     <g>
      <use style="fill:#ff7f0e;stroke:#ff7f0e;" x="496.036364" xlink:href="#m4cdcbb1753" y="382.460625"/>
     </g>
    </g>
    <g id="text_26">
     <!-- FL -->
     <g transform="translate(517.636364 385.610625)scale(0.12 -0.12)">
      <use xlink:href="#DejaVuSans-70"/>
      <use x="57.519531" xlink:href="#DejaVuSans-76"/>
     </g>
    </g>
    <g id="PathCollection_12">
     <g>
      <use style="fill:#2ca02c;stroke:#2ca02c;" x="496.036364" xlink:href="#mbdc4e3ac98" y="400.074375"/>
     </g>
    </g>
    <g id="text_27">
     <!-- SNB -->
     <g transform="translate(517.636364 403.224375)scale(0.12 -0.12)">
      <use xlink:href="#DejaVuSans-83"/>
      <use x="63.476562" xlink:href="#DejaVuSans-78"/>
      <use x="138.28125" xlink:href="#DejaVuSans-66"/>
     </g>
    </g>
   </g>
   <g id="legend_4">
    <g id="patch_15">
     <path d="M 653.52 410.52 
L 769.2 410.52 
Q 771.6 410.52 771.6 408.12 
L 771.6 356.47875 
Q 771.6 354.07875 769.2 354.07875 
L 653.52 354.07875 
Q 651.12 354.07875 651.12 356.47875 
L 651.12 408.12 
Q 651.12 410.52 653.52 410.52 
z
" style="fill:#ffffff;opacity:0.8;stroke:#cccccc;stroke-linejoin:miter;"/>
    </g>
    <g id="line2d_32">
     <path d="M 655.92 363.796875 
L 679.92 363.796875 
" style="fill:none;stroke:#1f77b4;stroke-dasharray:5.55,2.4;stroke-dashoffset:0;stroke-width:1.5;"/>
    </g>
    <g id="line2d_33"/>
    <g id="text_28">
     <!-- $T = {1.2}H^{0.28}$ -->
     <g transform="translate(689.52 367.996875)scale(0.12 -0.12)">
      <defs>
       <path d="M 16.890625 72.90625 
L 26.8125 72.90625 
L 21 43.015625 
L 56.78125 43.015625 
L 62.59375 72.90625 
L 72.515625 72.90625 
L 58.296875 0 
L 48.390625 0 
L 55.171875 34.71875 
L 19.390625 34.71875 
L 12.59375 0 
L 2.6875 0 
z
" id="DejaVuSans-Oblique-72"/>
      </defs>
      <use transform="translate(0 0.765625)" xlink:href="#DejaVuSans-Oblique-84"/>
      <use transform="translate(80.566406 0.765625)" xlink:href="#DejaVuSans-61"/>
      <use transform="translate(183.837891 0.765625)" xlink:href="#DejaVuSans-49"/>
      <use transform="translate(247.460938 0.765625)" xlink:href="#DejaVuSans-46"/>
      <use transform="translate(273.748047 0.765625)" xlink:href="#DejaVuSans-50"/>
      <use transform="translate(337.371094 0.765625)" xlink:href="#DejaVuSans-Oblique-72"/>
      <use transform="translate(419.583177 39.046875)scale(0.7)" xlink:href="#DejaVuSans-48"/>
      <use transform="translate(464.11931 39.046875)scale(0.7)" xlink:href="#DejaVuSans-46"/>
      <use transform="translate(482.520286 39.046875)scale(0.7)" xlink:href="#DejaVuSans-50"/>
      <use transform="translate(527.056419 39.046875)scale(0.7)" xlink:href="#DejaVuSans-56"/>
     </g>
    </g>
    <g id="line2d_34">
     <path d="M 655.92 381.410625 
L 679.92 381.410625 
" style="fill:none;stroke:#ff7f0e;stroke-dasharray:5.55,2.4;stroke-dashoffset:0;stroke-width:1.5;"/>
    </g>
    <g id="line2d_35"/>
    <g id="text_29">
     <!-- $T = {1.22}H^{0.28}$ -->
     <g transform="translate(689.52 385.610625)scale(0.12 -0.12)">
      <use transform="translate(0 0.765625)" xlink:href="#DejaVuSans-Oblique-84"/>
      <use transform="translate(80.566406 0.765625)" xlink:href="#DejaVuSans-61"/>
      <use transform="translate(183.837891 0.765625)" xlink:href="#DejaVuSans-49"/>
      <use transform="translate(247.460938 0.765625)" xlink:href="#DejaVuSans-46"/>
      <use transform="translate(273.748047 0.765625)" xlink:href="#DejaVuSans-50"/>
      <use transform="translate(337.371094 0.765625)" xlink:href="#DejaVuSans-50"/>
      <use transform="translate(400.994141 0.765625)" xlink:href="#DejaVuSans-Oblique-72"/>
      <use transform="translate(483.206224 39.046875)scale(0.7)" xlink:href="#DejaVuSans-48"/>
      <use transform="translate(527.742357 39.046875)scale(0.7)" xlink:href="#DejaVuSans-46"/>
      <use transform="translate(546.143333 39.046875)scale(0.7)" xlink:href="#DejaVuSans-50"/>
      <use transform="translate(590.679466 39.046875)scale(0.7)" xlink:href="#DejaVuSans-56"/>
     </g>
    </g>
    <g id="line2d_36">
     <path d="M 655.92 399.024375 
L 679.92 399.024375 
" style="fill:none;stroke:#2ca02c;stroke-dasharray:5.55,2.4;stroke-dashoffset:0;stroke-width:1.5;"/>
    </g>
    <g id="line2d_37"/>
    <g id="text_30">
     <!-- $T = {1.34}H^{0.27}$ -->
     <g transform="translate(689.52 403.224375)scale(0.12 -0.12)">
      <use transform="translate(0 0.765625)" xlink:href="#DejaVuSans-Oblique-84"/>
      <use transform="translate(80.566406 0.765625)" xlink:href="#DejaVuSans-61"/>
      <use transform="translate(183.837891 0.765625)" xlink:href="#DejaVuSans-49"/>
      <use transform="translate(247.460938 0.765625)" xlink:href="#DejaVuSans-46"/>
      <use transform="translate(279.248047 0.765625)" xlink:href="#DejaVuSans-51"/>
      <use transform="translate(342.871094 0.765625)" xlink:href="#DejaVuSans-52"/>
      <use transform="translate(406.494141 0.765625)" xlink:href="#DejaVuSans-Oblique-72"/>
      <use transform="translate(488.706224 39.046875)scale(0.7)" xlink:href="#DejaVuSans-48"/>
      <use transform="translate(533.242357 39.046875)scale(0.7)" xlink:href="#DejaVuSans-46"/>
      <use transform="translate(551.643333 39.046875)scale(0.7)" xlink:href="#DejaVuSans-50"/>
      <use transform="translate(596.179466 39.046875)scale(0.7)" xlink:href="#DejaVuSans-55"/>
     </g>
    </g>
   </g>
  </g>
 </g>
 <defs>
  <clipPath id="pa845ee31a7">
   <rect height="360.36" width="304.363636" x="108" y="56.16"/>
  </clipPath>
  <clipPath id="pf9d25692be">
   <rect height="360.36" width="304.363636" x="473.236364" y="56.16"/>
  </clipPath>
 </defs>
</svg>
