<?xml version="1.0" encoding="utf-8" standalone="no"?>
<!DOCTYPE svg PUBLIC "-//W3C//DTD SVG 1.1//EN"
  "http://www.w3.org/Graphics/SVG/1.1/DTD/svg11.dtd">
<!-- Created with matplotlib (https://matplotlib.org/) -->
<svg height="360pt" version="1.1" viewBox="0 0 576 360" width="576pt" xmlns="http://www.w3.org/2000/svg" xmlns:xlink="http://www.w3.org/1999/xlink">
 <metadata>
  <rdf:RDF xmlns:cc="http://creativecommons.org/ns#" xmlns:dc="http://purl.org/dc/elements/1.1/" xmlns:rdf="http://www.w3.org/1999/02/22-rdf-syntax-ns#">
   <cc:Work>
    <dc:type rdf:resource="http://purl.org/dc/dcmitype/StillImage"/>
    <dc:date>2025-04-03T09:21:10.441323</dc:date>
    <dc:format>image/svg+xml</dc:format>
    <dc:creator>
     <cc:Agent>
      <dc:title>Matplotlib v3.3.4, https://matplotlib.org/</dc:title>
     </cc:Agent>
    </dc:creator>
   </cc:Work>
  </rdf:RDF>
 </metadata>
 <defs>
  <style type="text/css">*{stroke-linecap:butt;stroke-linejoin:round;}</style>
 </defs>
 <g id="figure_1">
  <g id="patch_1">
   <path d="M 0 360 
L 576 360 
L 576 0 
L 0 0 
z
" style="fill:#ffffff;"/>
  </g>
  <g id="axes_1">
   <g id="patch_2">
    <path d="M 72 320.4 
L 518.4 320.4 
L 518.4 43.2 
L 72 43.2 
z
" style="fill:#ffffff;"/>
   </g>
   <g id="matplotlib.axis_1">
    <g id="xtick_1">
     <g id="line2d_1">
      <defs>
       <path d="M 0 0 
L 0 3.5 
" id="m492827030f" style="stroke:#000000;stroke-width:0.8;"/>
      </defs>
      <g>
       <use style="stroke:#000000;stroke-width:0.8;" x="124.421482" xlink:href="#m492827030f" y="320.4"/>
      </g>
     </g>
     <g id="text_1">
      <!-- 2.2 -->
      <g transform="translate(116.469919 334.998438)scale(0.1 -0.1)">
       <defs>
        <path d="M 19.1875 8.296875 
L 53.609375 8.296875 
L 53.609375 0 
L 7.328125 0 
L 7.328125 8.296875 
Q 12.9375 14.109375 22.625 23.890625 
Q 32.328125 33.6875 34.8125 36.53125 
Q 39.546875 41.84375 41.421875 45.53125 
Q 43.3125 49.21875 43.3125 52.78125 
Q 43.3125 58.59375 39.234375 62.25 
Q 35.15625 65.921875 28.609375 65.921875 
Q 23.96875 65.921875 18.8125 64.3125 
Q 13.671875 62.703125 7.8125 59.421875 
L 7.8125 69.390625 
Q 13.765625 71.78125 18.9375 73 
Q 24.125 74.21875 28.421875 74.21875 
Q 39.75 74.21875 46.484375 68.546875 
Q 53.21875 62.890625 53.21875 53.421875 
Q 53.21875 48.921875 51.53125 44.890625 
Q 49.859375 40.875 45.40625 35.40625 
Q 44.1875 33.984375 37.640625 27.21875 
Q 31.109375 20.453125 19.1875 8.296875 
z
" id="DejaVuSans-50"/>
        <path d="M 10.6875 12.40625 
L 21 12.40625 
L 21 0 
L 10.6875 0 
z
" id="DejaVuSans-46"/>
       </defs>
       <use xlink:href="#DejaVuSans-50"/>
       <use x="63.623047" xlink:href="#DejaVuSans-46"/>
       <use x="95.410156" xlink:href="#DejaVuSans-50"/>
      </g>
     </g>
    </g>
    <g id="xtick_2">
     <g id="line2d_2">
      <g>
       <use style="stroke:#000000;stroke-width:0.8;" x="182.460874" xlink:href="#m492827030f" y="320.4"/>
      </g>
     </g>
     <g id="text_2">
      <!-- 2.4 -->
      <g transform="translate(174.509311 334.998438)scale(0.1 -0.1)">
       <defs>
        <path d="M 37.796875 64.3125 
L 12.890625 25.390625 
L 37.796875 25.390625 
z
M 35.203125 72.90625 
L 47.609375 72.90625 
L 47.609375 25.390625 
L 58.015625 25.390625 
L 58.015625 17.1875 
L 47.609375 17.1875 
L 47.609375 0 
L 37.796875 0 
L 37.796875 17.1875 
L 4.890625 17.1875 
L 4.890625 26.703125 
z
" id="DejaVuSans-52"/>
       </defs>
       <use xlink:href="#DejaVuSans-50"/>
       <use x="63.623047" xlink:href="#DejaVuSans-46"/>
       <use x="95.410156" xlink:href="#DejaVuSans-52"/>
      </g>
     </g>
    </g>
    <g id="xtick_3">
     <g id="line2d_3">
      <g>
       <use style="stroke:#000000;stroke-width:0.8;" x="240.500266" xlink:href="#m492827030f" y="320.4"/>
      </g>
     </g>
     <g id="text_3">
      <!-- 2.6 -->
      <g transform="translate(232.548703 334.998438)scale(0.1 -0.1)">
       <defs>
        <path d="M 33.015625 40.375 
Q 26.375 40.375 22.484375 35.828125 
Q 18.609375 31.296875 18.609375 23.390625 
Q 18.609375 15.53125 22.484375 10.953125 
Q 26.375 6.390625 33.015625 6.390625 
Q 39.65625 6.390625 43.53125 10.953125 
Q 47.40625 15.53125 47.40625 23.390625 
Q 47.40625 31.296875 43.53125 35.828125 
Q 39.65625 40.375 33.015625 40.375 
z
M 52.59375 71.296875 
L 52.59375 62.3125 
Q 48.875 64.0625 45.09375 64.984375 
Q 41.3125 65.921875 37.59375 65.921875 
Q 27.828125 65.921875 22.671875 59.328125 
Q 17.53125 52.734375 16.796875 39.40625 
Q 19.671875 43.65625 24.015625 45.921875 
Q 28.375 48.1875 33.59375 48.1875 
Q 44.578125 48.1875 50.953125 41.515625 
Q 57.328125 34.859375 57.328125 23.390625 
Q 57.328125 12.15625 50.6875 5.359375 
Q 44.046875 -1.421875 33.015625 -1.421875 
Q 20.359375 -1.421875 13.671875 8.265625 
Q 6.984375 17.96875 6.984375 36.375 
Q 6.984375 53.65625 15.1875 63.9375 
Q 23.390625 74.21875 37.203125 74.21875 
Q 40.921875 74.21875 44.703125 73.484375 
Q 48.484375 72.75 52.59375 71.296875 
z
" id="DejaVuSans-54"/>
       </defs>
       <use xlink:href="#DejaVuSans-50"/>
       <use x="63.623047" xlink:href="#DejaVuSans-46"/>
       <use x="95.410156" xlink:href="#DejaVuSans-54"/>
      </g>
     </g>
    </g>
    <g id="xtick_4">
     <g id="line2d_4">
      <g>
       <use style="stroke:#000000;stroke-width:0.8;" x="298.539658" xlink:href="#m492827030f" y="320.4"/>
      </g>
     </g>
     <g id="text_4">
      <!-- 2.8 -->
      <g transform="translate(290.588096 334.998438)scale(0.1 -0.1)">
       <defs>
        <path d="M 31.78125 34.625 
Q 24.75 34.625 20.71875 30.859375 
Q 16.703125 27.09375 16.703125 20.515625 
Q 16.703125 13.921875 20.71875 10.15625 
Q 24.75 6.390625 31.78125 6.390625 
Q 38.8125 6.390625 42.859375 10.171875 
Q 46.921875 13.96875 46.921875 20.515625 
Q 46.921875 27.09375 42.890625 30.859375 
Q 38.875 34.625 31.78125 34.625 
z
M 21.921875 38.8125 
Q 15.578125 40.375 12.03125 44.71875 
Q 8.5 49.078125 8.5 55.328125 
Q 8.5 64.0625 14.71875 69.140625 
Q 20.953125 74.21875 31.78125 74.21875 
Q 42.671875 74.21875 48.875 69.140625 
Q 55.078125 64.0625 55.078125 55.328125 
Q 55.078125 49.078125 51.53125 44.71875 
Q 48 40.375 41.703125 38.8125 
Q 48.828125 37.15625 52.796875 32.3125 
Q 56.78125 27.484375 56.78125 20.515625 
Q 56.78125 9.90625 50.3125 4.234375 
Q 43.84375 -1.421875 31.78125 -1.421875 
Q 19.734375 -1.421875 13.25 4.234375 
Q 6.78125 9.90625 6.78125 20.515625 
Q 6.78125 27.484375 10.78125 32.3125 
Q 14.796875 37.15625 21.921875 38.8125 
z
M 18.3125 54.390625 
Q 18.3125 48.734375 21.84375 45.5625 
Q 25.390625 42.390625 31.78125 42.390625 
Q 38.140625 42.390625 41.71875 45.5625 
Q 45.3125 48.734375 45.3125 54.390625 
Q 45.3125 60.0625 41.71875 63.234375 
Q 38.140625 66.40625 31.78125 66.40625 
Q 25.390625 66.40625 21.84375 63.234375 
Q 18.3125 60.0625 18.3125 54.390625 
z
" id="DejaVuSans-56"/>
       </defs>
       <use xlink:href="#DejaVuSans-50"/>
       <use x="63.623047" xlink:href="#DejaVuSans-46"/>
       <use x="95.410156" xlink:href="#DejaVuSans-56"/>
      </g>
     </g>
    </g>
    <g id="xtick_5">
     <g id="line2d_5">
      <g>
       <use style="stroke:#000000;stroke-width:0.8;" x="356.57905" xlink:href="#m492827030f" y="320.4"/>
      </g>
     </g>
     <g id="text_5">
      <!-- 3.0 -->
      <g transform="translate(348.627488 334.998438)scale(0.1 -0.1)">
       <defs>
        <path d="M 40.578125 39.3125 
Q 47.65625 37.796875 51.625 33 
Q 55.609375 28.21875 55.609375 21.1875 
Q 55.609375 10.40625 48.1875 4.484375 
Q 40.765625 -1.421875 27.09375 -1.421875 
Q 22.515625 -1.421875 17.65625 -0.515625 
Q 12.796875 0.390625 7.625 2.203125 
L 7.625 11.71875 
Q 11.71875 9.328125 16.59375 8.109375 
Q 21.484375 6.890625 26.8125 6.890625 
Q 36.078125 6.890625 40.9375 10.546875 
Q 45.796875 14.203125 45.796875 21.1875 
Q 45.796875 27.640625 41.28125 31.265625 
Q 36.765625 34.90625 28.71875 34.90625 
L 20.21875 34.90625 
L 20.21875 43.015625 
L 29.109375 43.015625 
Q 36.375 43.015625 40.234375 45.921875 
Q 44.09375 48.828125 44.09375 54.296875 
Q 44.09375 59.90625 40.109375 62.90625 
Q 36.140625 65.921875 28.71875 65.921875 
Q 24.65625 65.921875 20.015625 65.03125 
Q 15.375 64.15625 9.8125 62.3125 
L 9.8125 71.09375 
Q 15.4375 72.65625 20.34375 73.4375 
Q 25.25 74.21875 29.59375 74.21875 
Q 40.828125 74.21875 47.359375 69.109375 
Q 53.90625 64.015625 53.90625 55.328125 
Q 53.90625 49.265625 50.4375 45.09375 
Q 46.96875 40.921875 40.578125 39.3125 
z
" id="DejaVuSans-51"/>
        <path d="M 31.78125 66.40625 
Q 24.171875 66.40625 20.328125 58.90625 
Q 16.5 51.421875 16.5 36.375 
Q 16.5 21.390625 20.328125 13.890625 
Q 24.171875 6.390625 31.78125 6.390625 
Q 39.453125 6.390625 43.28125 13.890625 
Q 47.125 21.390625 47.125 36.375 
Q 47.125 51.421875 43.28125 58.90625 
Q 39.453125 66.40625 31.78125 66.40625 
z
M 31.78125 74.21875 
Q 44.046875 74.21875 50.515625 64.515625 
Q 56.984375 54.828125 56.984375 36.375 
Q 56.984375 17.96875 50.515625 8.265625 
Q 44.046875 -1.421875 31.78125 -1.421875 
Q 19.53125 -1.421875 13.0625 8.265625 
Q 6.59375 17.96875 6.59375 36.375 
Q 6.59375 54.828125 13.0625 64.515625 
Q 19.53125 74.21875 31.78125 74.21875 
z
" id="DejaVuSans-48"/>
       </defs>
       <use xlink:href="#DejaVuSans-51"/>
       <use x="63.623047" xlink:href="#DejaVuSans-46"/>
       <use x="95.410156" xlink:href="#DejaVuSans-48"/>
      </g>
     </g>
    </g>
    <g id="xtick_6">
     <g id="line2d_6">
      <g>
       <use style="stroke:#000000;stroke-width:0.8;" x="414.618442" xlink:href="#m492827030f" y="320.4"/>
      </g>
     </g>
     <g id="text_6">
      <!-- 3.2 -->
      <g transform="translate(406.66688 334.998438)scale(0.1 -0.1)">
       <use xlink:href="#DejaVuSans-51"/>
       <use x="63.623047" xlink:href="#DejaVuSans-46"/>
       <use x="95.410156" xlink:href="#DejaVuSans-50"/>
      </g>
     </g>
    </g>
    <g id="xtick_7">
     <g id="line2d_7">
      <g>
       <use style="stroke:#000000;stroke-width:0.8;" x="472.657834" xlink:href="#m492827030f" y="320.4"/>
      </g>
     </g>
     <g id="text_7">
      <!-- 3.4 -->
      <g transform="translate(464.706272 334.998438)scale(0.1 -0.1)">
       <use xlink:href="#DejaVuSans-51"/>
       <use x="63.623047" xlink:href="#DejaVuSans-46"/>
       <use x="95.410156" xlink:href="#DejaVuSans-52"/>
      </g>
     </g>
    </g>
    <g id="text_8">
     <!-- Temperature / MK -->
     <g transform="translate(251.075 348.676562)scale(0.1 -0.1)">
      <defs>
       <path d="M -0.296875 72.90625 
L 61.375 72.90625 
L 61.375 64.59375 
L 35.5 64.59375 
L 35.5 0 
L 25.59375 0 
L 25.59375 64.59375 
L -0.296875 64.59375 
z
" id="DejaVuSans-84"/>
       <path d="M 56.203125 29.59375 
L 56.203125 25.203125 
L 14.890625 25.203125 
Q 15.484375 15.921875 20.484375 11.0625 
Q 25.484375 6.203125 34.421875 6.203125 
Q 39.59375 6.203125 44.453125 7.46875 
Q 49.3125 8.734375 54.109375 11.28125 
L 54.109375 2.78125 
Q 49.265625 0.734375 44.1875 -0.34375 
Q 39.109375 -1.421875 33.890625 -1.421875 
Q 20.796875 -1.421875 13.15625 6.1875 
Q 5.515625 13.8125 5.515625 26.8125 
Q 5.515625 40.234375 12.765625 48.109375 
Q 20.015625 56 32.328125 56 
Q 43.359375 56 49.78125 48.890625 
Q 56.203125 41.796875 56.203125 29.59375 
z
M 47.21875 32.234375 
Q 47.125 39.59375 43.09375 43.984375 
Q 39.0625 48.390625 32.421875 48.390625 
Q 24.90625 48.390625 20.390625 44.140625 
Q 15.875 39.890625 15.1875 32.171875 
z
" id="DejaVuSans-101"/>
       <path d="M 52 44.1875 
Q 55.375 50.25 60.0625 53.125 
Q 64.75 56 71.09375 56 
Q 79.640625 56 84.28125 50.015625 
Q 88.921875 44.046875 88.921875 33.015625 
L 88.921875 0 
L 79.890625 0 
L 79.890625 32.71875 
Q 79.890625 40.578125 77.09375 44.375 
Q 74.3125 48.1875 68.609375 48.1875 
Q 61.625 48.1875 57.5625 43.546875 
Q 53.515625 38.921875 53.515625 30.90625 
L 53.515625 0 
L 44.484375 0 
L 44.484375 32.71875 
Q 44.484375 40.625 41.703125 44.40625 
Q 38.921875 48.1875 33.109375 48.1875 
Q 26.21875 48.1875 22.15625 43.53125 
Q 18.109375 38.875 18.109375 30.90625 
L 18.109375 0 
L 9.078125 0 
L 9.078125 54.6875 
L 18.109375 54.6875 
L 18.109375 46.1875 
Q 21.1875 51.21875 25.484375 53.609375 
Q 29.78125 56 35.6875 56 
Q 41.65625 56 45.828125 52.96875 
Q 50 49.953125 52 44.1875 
z
" id="DejaVuSans-109"/>
       <path d="M 18.109375 8.203125 
L 18.109375 -20.796875 
L 9.078125 -20.796875 
L 9.078125 54.6875 
L 18.109375 54.6875 
L 18.109375 46.390625 
Q 20.953125 51.265625 25.265625 53.625 
Q 29.59375 56 35.59375 56 
Q 45.5625 56 51.78125 48.09375 
Q 58.015625 40.1875 58.015625 27.296875 
Q 58.015625 14.40625 51.78125 6.484375 
Q 45.5625 -1.421875 35.59375 -1.421875 
Q 29.59375 -1.421875 25.265625 0.953125 
Q 20.953125 3.328125 18.109375 8.203125 
z
M 48.6875 27.296875 
Q 48.6875 37.203125 44.609375 42.84375 
Q 40.53125 48.484375 33.40625 48.484375 
Q 26.265625 48.484375 22.1875 42.84375 
Q 18.109375 37.203125 18.109375 27.296875 
Q 18.109375 17.390625 22.1875 11.75 
Q 26.265625 6.109375 33.40625 6.109375 
Q 40.53125 6.109375 44.609375 11.75 
Q 48.6875 17.390625 48.6875 27.296875 
z
" id="DejaVuSans-112"/>
       <path d="M 41.109375 46.296875 
Q 39.59375 47.171875 37.8125 47.578125 
Q 36.03125 48 33.890625 48 
Q 26.265625 48 22.1875 43.046875 
Q 18.109375 38.09375 18.109375 28.8125 
L 18.109375 0 
L 9.078125 0 
L 9.078125 54.6875 
L 18.109375 54.6875 
L 18.109375 46.1875 
Q 20.953125 51.171875 25.484375 53.578125 
Q 30.03125 56 36.53125 56 
Q 37.453125 56 38.578125 55.875 
Q 39.703125 55.765625 41.0625 55.515625 
z
" id="DejaVuSans-114"/>
       <path d="M 34.28125 27.484375 
Q 23.390625 27.484375 19.1875 25 
Q 14.984375 22.515625 14.984375 16.5 
Q 14.984375 11.71875 18.140625 8.90625 
Q 21.296875 6.109375 26.703125 6.109375 
Q 34.1875 6.109375 38.703125 11.40625 
Q 43.21875 16.703125 43.21875 25.484375 
L 43.21875 27.484375 
z
M 52.203125 31.203125 
L 52.203125 0 
L 43.21875 0 
L 43.21875 8.296875 
Q 40.140625 3.328125 35.546875 0.953125 
Q 30.953125 -1.421875 24.3125 -1.421875 
Q 15.921875 -1.421875 10.953125 3.296875 
Q 6 8.015625 6 15.921875 
Q 6 25.140625 12.171875 29.828125 
Q 18.359375 34.515625 30.609375 34.515625 
L 43.21875 34.515625 
L 43.21875 35.40625 
Q 43.21875 41.609375 39.140625 45 
Q 35.0625 48.390625 27.6875 48.390625 
Q 23 48.390625 18.546875 47.265625 
Q 14.109375 46.140625 10.015625 43.890625 
L 10.015625 52.203125 
Q 14.9375 54.109375 19.578125 55.046875 
Q 24.21875 56 28.609375 56 
Q 40.484375 56 46.34375 49.84375 
Q 52.203125 43.703125 52.203125 31.203125 
z
" id="DejaVuSans-97"/>
       <path d="M 18.3125 70.21875 
L 18.3125 54.6875 
L 36.8125 54.6875 
L 36.8125 47.703125 
L 18.3125 47.703125 
L 18.3125 18.015625 
Q 18.3125 11.328125 20.140625 9.421875 
Q 21.96875 7.515625 27.59375 7.515625 
L 36.8125 7.515625 
L 36.8125 0 
L 27.59375 0 
Q 17.1875 0 13.234375 3.875 
Q 9.28125 7.765625 9.28125 18.015625 
L 9.28125 47.703125 
L 2.6875 47.703125 
L 2.6875 54.6875 
L 9.28125 54.6875 
L 9.28125 70.21875 
z
" id="DejaVuSans-116"/>
       <path d="M 8.5 21.578125 
L 8.5 54.6875 
L 17.484375 54.6875 
L 17.484375 21.921875 
Q 17.484375 14.15625 20.5 10.265625 
Q 23.53125 6.390625 29.59375 6.390625 
Q 36.859375 6.390625 41.078125 11.03125 
Q 45.3125 15.671875 45.3125 23.6875 
L 45.3125 54.6875 
L 54.296875 54.6875 
L 54.296875 0 
L 45.3125 0 
L 45.3125 8.40625 
Q 42.046875 3.421875 37.71875 1 
Q 33.40625 -1.421875 27.6875 -1.421875 
Q 18.265625 -1.421875 13.375 4.4375 
Q 8.5 10.296875 8.5 21.578125 
z
M 31.109375 56 
z
" id="DejaVuSans-117"/>
       <path id="DejaVuSans-32"/>
       <path d="M 25.390625 72.90625 
L 33.6875 72.90625 
L 8.296875 -9.28125 
L 0 -9.28125 
z
" id="DejaVuSans-47"/>
       <path d="M 9.8125 72.90625 
L 24.515625 72.90625 
L 43.109375 23.296875 
L 61.8125 72.90625 
L 76.515625 72.90625 
L 76.515625 0 
L 66.890625 0 
L 66.890625 64.015625 
L 48.09375 14.015625 
L 38.1875 14.015625 
L 19.390625 64.015625 
L 19.390625 0 
L 9.8125 0 
z
" id="DejaVuSans-77"/>
       <path d="M 9.8125 72.90625 
L 19.671875 72.90625 
L 19.671875 42.09375 
L 52.390625 72.90625 
L 65.09375 72.90625 
L 28.90625 38.921875 
L 67.671875 0 
L 54.6875 0 
L 19.671875 35.109375 
L 19.671875 0 
L 9.8125 0 
z
" id="DejaVuSans-75"/>
      </defs>
      <use xlink:href="#DejaVuSans-84"/>
      <use x="44.083984" xlink:href="#DejaVuSans-101"/>
      <use x="105.607422" xlink:href="#DejaVuSans-109"/>
      <use x="203.019531" xlink:href="#DejaVuSans-112"/>
      <use x="266.496094" xlink:href="#DejaVuSans-101"/>
      <use x="328.019531" xlink:href="#DejaVuSans-114"/>
      <use x="369.132812" xlink:href="#DejaVuSans-97"/>
      <use x="430.412109" xlink:href="#DejaVuSans-116"/>
      <use x="469.621094" xlink:href="#DejaVuSans-117"/>
      <use x="533" xlink:href="#DejaVuSans-114"/>
      <use x="571.863281" xlink:href="#DejaVuSans-101"/>
      <use x="633.386719" xlink:href="#DejaVuSans-32"/>
      <use x="665.173828" xlink:href="#DejaVuSans-47"/>
      <use x="698.865234" xlink:href="#DejaVuSans-32"/>
      <use x="730.652344" xlink:href="#DejaVuSans-77"/>
      <use x="816.931641" xlink:href="#DejaVuSans-75"/>
     </g>
    </g>
   </g>
   <g id="matplotlib.axis_2">
    <g id="ytick_1">
     <g id="line2d_8">
      <defs>
       <path d="M 0 0 
L -3.5 0 
" id="m942303a928" style="stroke:#000000;stroke-width:0.8;"/>
      </defs>
      <g>
       <use style="stroke:#000000;stroke-width:0.8;" x="72" xlink:href="#m942303a928" y="319.383935"/>
      </g>
     </g>
     <g id="text_9">
      <!-- 2.2 -->
      <g transform="translate(49.096875 323.183154)scale(0.1 -0.1)">
       <use xlink:href="#DejaVuSans-50"/>
       <use x="63.623047" xlink:href="#DejaVuSans-46"/>
       <use x="95.410156" xlink:href="#DejaVuSans-50"/>
      </g>
     </g>
    </g>
    <g id="ytick_2">
     <g id="line2d_9">
      <g>
       <use style="stroke:#000000;stroke-width:0.8;" x="72" xlink:href="#m942303a928" y="280.415927"/>
      </g>
     </g>
     <g id="text_10">
      <!-- 2.4 -->
      <g transform="translate(49.096875 284.215145)scale(0.1 -0.1)">
       <use xlink:href="#DejaVuSans-50"/>
       <use x="63.623047" xlink:href="#DejaVuSans-46"/>
       <use x="95.410156" xlink:href="#DejaVuSans-52"/>
      </g>
     </g>
    </g>
    <g id="ytick_3">
     <g id="line2d_10">
      <g>
       <use style="stroke:#000000;stroke-width:0.8;" x="72" xlink:href="#m942303a928" y="241.447918"/>
      </g>
     </g>
     <g id="text_11">
      <!-- 2.6 -->
      <g transform="translate(49.096875 245.247136)scale(0.1 -0.1)">
       <use xlink:href="#DejaVuSans-50"/>
       <use x="63.623047" xlink:href="#DejaVuSans-46"/>
       <use x="95.410156" xlink:href="#DejaVuSans-54"/>
      </g>
     </g>
    </g>
    <g id="ytick_4">
     <g id="line2d_11">
      <g>
       <use style="stroke:#000000;stroke-width:0.8;" x="72" xlink:href="#m942303a928" y="202.479909"/>
      </g>
     </g>
     <g id="text_12">
      <!-- 2.8 -->
      <g transform="translate(49.096875 206.279127)scale(0.1 -0.1)">
       <use xlink:href="#DejaVuSans-50"/>
       <use x="63.623047" xlink:href="#DejaVuSans-46"/>
       <use x="95.410156" xlink:href="#DejaVuSans-56"/>
      </g>
     </g>
    </g>
    <g id="ytick_5">
     <g id="line2d_12">
      <g>
       <use style="stroke:#000000;stroke-width:0.8;" x="72" xlink:href="#m942303a928" y="163.5119"/>
      </g>
     </g>
     <g id="text_13">
      <!-- 3.0 -->
      <g transform="translate(49.096875 167.311118)scale(0.1 -0.1)">
       <use xlink:href="#DejaVuSans-51"/>
       <use x="63.623047" xlink:href="#DejaVuSans-46"/>
       <use x="95.410156" xlink:href="#DejaVuSans-48"/>
      </g>
     </g>
    </g>
    <g id="ytick_6">
     <g id="line2d_13">
      <g>
       <use style="stroke:#000000;stroke-width:0.8;" x="72" xlink:href="#m942303a928" y="124.543891"/>
      </g>
     </g>
     <g id="text_14">
      <!-- 3.2 -->
      <g transform="translate(49.096875 128.343109)scale(0.1 -0.1)">
       <use xlink:href="#DejaVuSans-51"/>
       <use x="63.623047" xlink:href="#DejaVuSans-46"/>
       <use x="95.410156" xlink:href="#DejaVuSans-50"/>
      </g>
     </g>
    </g>
    <g id="ytick_7">
     <g id="line2d_14">
      <g>
       <use style="stroke:#000000;stroke-width:0.8;" x="72" xlink:href="#m942303a928" y="85.575882"/>
      </g>
     </g>
     <g id="text_15">
      <!-- 3.4 -->
      <g transform="translate(49.096875 89.3751)scale(0.1 -0.1)">
       <use xlink:href="#DejaVuSans-51"/>
       <use x="63.623047" xlink:href="#DejaVuSans-46"/>
       <use x="95.410156" xlink:href="#DejaVuSans-52"/>
      </g>
     </g>
    </g>
    <g id="ytick_8">
     <g id="line2d_15">
      <g>
       <use style="stroke:#000000;stroke-width:0.8;" x="72" xlink:href="#m942303a928" y="46.607873"/>
      </g>
     </g>
     <g id="text_16">
      <!-- 3.6 -->
      <g transform="translate(49.096875 50.407091)scale(0.1 -0.1)">
       <use xlink:href="#DejaVuSans-51"/>
       <use x="63.623047" xlink:href="#DejaVuSans-46"/>
       <use x="95.410156" xlink:href="#DejaVuSans-54"/>
      </g>
     </g>
    </g>
    <g id="text_17">
     <!-- Density / $10^{-12}$kgm$^{-3}$ -->
     <g transform="translate(42.996875 235.9)rotate(-90)scale(0.1 -0.1)">
      <defs>
       <path d="M 19.671875 64.796875 
L 19.671875 8.109375 
L 31.59375 8.109375 
Q 46.6875 8.109375 53.6875 14.9375 
Q 60.6875 21.78125 60.6875 36.53125 
Q 60.6875 51.171875 53.6875 57.984375 
Q 46.6875 64.796875 31.59375 64.796875 
z
M 9.8125 72.90625 
L 30.078125 72.90625 
Q 51.265625 72.90625 61.171875 64.09375 
Q 71.09375 55.28125 71.09375 36.53125 
Q 71.09375 17.671875 61.125 8.828125 
Q 51.171875 0 30.078125 0 
L 9.8125 0 
z
" id="DejaVuSans-68"/>
       <path d="M 54.890625 33.015625 
L 54.890625 0 
L 45.90625 0 
L 45.90625 32.71875 
Q 45.90625 40.484375 42.875 44.328125 
Q 39.84375 48.1875 33.796875 48.1875 
Q 26.515625 48.1875 22.3125 43.546875 
Q 18.109375 38.921875 18.109375 30.90625 
L 18.109375 0 
L 9.078125 0 
L 9.078125 54.6875 
L 18.109375 54.6875 
L 18.109375 46.1875 
Q 21.34375 51.125 25.703125 53.5625 
Q 30.078125 56 35.796875 56 
Q 45.21875 56 50.046875 50.171875 
Q 54.890625 44.34375 54.890625 33.015625 
z
" id="DejaVuSans-110"/>
       <path d="M 44.28125 53.078125 
L 44.28125 44.578125 
Q 40.484375 46.53125 36.375 47.5 
Q 32.28125 48.484375 27.875 48.484375 
Q 21.1875 48.484375 17.84375 46.4375 
Q 14.5 44.390625 14.5 40.28125 
Q 14.5 37.15625 16.890625 35.375 
Q 19.28125 33.59375 26.515625 31.984375 
L 29.59375 31.296875 
Q 39.15625 29.25 43.1875 25.515625 
Q 47.21875 21.78125 47.21875 15.09375 
Q 47.21875 7.46875 41.1875 3.015625 
Q 35.15625 -1.421875 24.609375 -1.421875 
Q 20.21875 -1.421875 15.453125 -0.5625 
Q 10.6875 0.296875 5.421875 2 
L 5.421875 11.28125 
Q 10.40625 8.6875 15.234375 7.390625 
Q 20.0625 6.109375 24.8125 6.109375 
Q 31.15625 6.109375 34.5625 8.28125 
Q 37.984375 10.453125 37.984375 14.40625 
Q 37.984375 18.0625 35.515625 20.015625 
Q 33.0625 21.96875 24.703125 23.78125 
L 21.578125 24.515625 
Q 13.234375 26.265625 9.515625 29.90625 
Q 5.8125 33.546875 5.8125 39.890625 
Q 5.8125 47.609375 11.28125 51.796875 
Q 16.75 56 26.8125 56 
Q 31.78125 56 36.171875 55.265625 
Q 40.578125 54.546875 44.28125 53.078125 
z
" id="DejaVuSans-115"/>
       <path d="M 9.421875 54.6875 
L 18.40625 54.6875 
L 18.40625 0 
L 9.421875 0 
z
M 9.421875 75.984375 
L 18.40625 75.984375 
L 18.40625 64.59375 
L 9.421875 64.59375 
z
" id="DejaVuSans-105"/>
       <path d="M 32.171875 -5.078125 
Q 28.375 -14.84375 24.75 -17.8125 
Q 21.140625 -20.796875 15.09375 -20.796875 
L 7.90625 -20.796875 
L 7.90625 -13.28125 
L 13.1875 -13.28125 
Q 16.890625 -13.28125 18.9375 -11.515625 
Q 21 -9.765625 23.484375 -3.21875 
L 25.09375 0.875 
L 2.984375 54.6875 
L 12.5 54.6875 
L 29.59375 11.921875 
L 46.6875 54.6875 
L 56.203125 54.6875 
z
" id="DejaVuSans-121"/>
       <path d="M 12.40625 8.296875 
L 28.515625 8.296875 
L 28.515625 63.921875 
L 10.984375 60.40625 
L 10.984375 69.390625 
L 28.421875 72.90625 
L 38.28125 72.90625 
L 38.28125 8.296875 
L 54.390625 8.296875 
L 54.390625 0 
L 12.40625 0 
z
" id="DejaVuSans-49"/>
       <path d="M 10.59375 35.5 
L 73.1875 35.5 
L 73.1875 27.203125 
L 10.59375 27.203125 
z
" id="DejaVuSans-8722"/>
       <path d="M 9.078125 75.984375 
L 18.109375 75.984375 
L 18.109375 31.109375 
L 44.921875 54.6875 
L 56.390625 54.6875 
L 27.390625 29.109375 
L 57.625 0 
L 45.90625 0 
L 18.109375 26.703125 
L 18.109375 0 
L 9.078125 0 
z
" id="DejaVuSans-107"/>
       <path d="M 45.40625 27.984375 
Q 45.40625 37.75 41.375 43.109375 
Q 37.359375 48.484375 30.078125 48.484375 
Q 22.859375 48.484375 18.828125 43.109375 
Q 14.796875 37.75 14.796875 27.984375 
Q 14.796875 18.265625 18.828125 12.890625 
Q 22.859375 7.515625 30.078125 7.515625 
Q 37.359375 7.515625 41.375 12.890625 
Q 45.40625 18.265625 45.40625 27.984375 
z
M 54.390625 6.78125 
Q 54.390625 -7.171875 48.1875 -13.984375 
Q 42 -20.796875 29.203125 -20.796875 
Q 24.46875 -20.796875 20.265625 -20.09375 
Q 16.0625 -19.390625 12.109375 -17.921875 
L 12.109375 -9.1875 
Q 16.0625 -11.328125 19.921875 -12.34375 
Q 23.78125 -13.375 27.78125 -13.375 
Q 36.625 -13.375 41.015625 -8.765625 
Q 45.40625 -4.15625 45.40625 5.171875 
L 45.40625 9.625 
Q 42.625 4.78125 38.28125 2.390625 
Q 33.9375 0 27.875 0 
Q 17.828125 0 11.671875 7.65625 
Q 5.515625 15.328125 5.515625 27.984375 
Q 5.515625 40.671875 11.671875 48.328125 
Q 17.828125 56 27.875 56 
Q 33.9375 56 38.28125 53.609375 
Q 42.625 51.21875 45.40625 46.390625 
L 45.40625 54.6875 
L 54.390625 54.6875 
z
" id="DejaVuSans-103"/>
      </defs>
      <use transform="translate(0 0.765625)" xlink:href="#DejaVuSans-68"/>
      <use transform="translate(77.001953 0.765625)" xlink:href="#DejaVuSans-101"/>
      <use transform="translate(138.525391 0.765625)" xlink:href="#DejaVuSans-110"/>
      <use transform="translate(201.904297 0.765625)" xlink:href="#DejaVuSans-115"/>
      <use transform="translate(254.003906 0.765625)" xlink:href="#DejaVuSans-105"/>
      <use transform="translate(281.787109 0.765625)" xlink:href="#DejaVuSans-116"/>
      <use transform="translate(320.996094 0.765625)" xlink:href="#DejaVuSans-121"/>
      <use transform="translate(380.175781 0.765625)" xlink:href="#DejaVuSans-32"/>
      <use transform="translate(411.962891 0.765625)" xlink:href="#DejaVuSans-47"/>
      <use transform="translate(445.654297 0.765625)" xlink:href="#DejaVuSans-32"/>
      <use transform="translate(477.441406 0.765625)" xlink:href="#DejaVuSans-49"/>
      <use transform="translate(541.064453 0.765625)" xlink:href="#DejaVuSans-48"/>
      <use transform="translate(605.644531 39.046875)scale(0.7)" xlink:href="#DejaVuSans-8722"/>
      <use transform="translate(664.296875 39.046875)scale(0.7)" xlink:href="#DejaVuSans-49"/>
      <use transform="translate(708.833008 39.046875)scale(0.7)" xlink:href="#DejaVuSans-50"/>
      <use transform="translate(756.103516 0.765625)" xlink:href="#DejaVuSans-107"/>
      <use transform="translate(814.013672 0.765625)" xlink:href="#DejaVuSans-103"/>
      <use transform="translate(877.490234 0.765625)" xlink:href="#DejaVuSans-109"/>
      <use transform="translate(975.859375 39.046875)scale(0.7)" xlink:href="#DejaVuSans-8722"/>
      <use transform="translate(1034.511719 39.046875)scale(0.7)" xlink:href="#DejaVuSans-51"/>
     </g>
    </g>
   </g>
   <g id="line2d_16">
    <path clip-path="url(#p29674820aa)" d="M 110.893017 171.375775 
L 113.780381 171.530516 
L 121.910422 173.161841 
L 133.286751 176.915105 
L 147.149347 182.381495 
L 199.763985 204.503466 
L 220.267703 212.47002 
L 242.270942 219.942239 
L 265.8086 226.039952 
L 290.207278 229.72638 
L 314.725895 230.88052 
L 334.116096 231.349939 
L 347.041271 230.712465 
L 353.010181 223.685612 
L 356.558594 212.893813 
L 357.351879 201.813309 
L 355.810183 190.401696 
L 351.933213 179.870711 
L 345.096923 173.104118 
L 335.159875 161.87306 
L 323.354176 145.905997 
L 311.116231 133.508605 
L 295.426514 126.672797 
L 281.40558 118.843729 
L 270.604594 110.738542 
L 252.676946 96.384117 
L 244.530466 90.584298 
L 236.552106 85.992265 
L 228.676636 82.733782 
L 221.057405 80.847431 
L 207.755378 78.824035 
L 202.1914 77.609016 
L 197.069008 75.866308 
L 192.284 74.382071 
L 183.552625 71.136384 
L 179.132831 69.944999 
L 174.560052 69.53985 
L 169.88857 69.965356 
L 165.195304 71.139648 
L 160.494106 72.941866 
L 155.842135 75.354651 
L 152.270485 78.164987 
L 151.072348 79.386219 
L 150.927475 76.532624 
L 147.144371 71.24904 
L 143.075085 74.356994 
L 138.651004 77.202479 
L 134.109958 81.459238 
L 131.601449 86.567844 
L 131.885264 88.391287 
L 129.346905 80.451143 
L 122.185056 92.009718 
L 120.898998 95.019334 
L 118.462249 94.049487 
L 116.790667 96.849834 
L 116.017322 99.133902 
L 112.394796 96.807796 
L 109.226871 105.23079 
L 109.978284 110.341462 
L 110.654428 100.168606 
L 105.873588 107.517923 
L 103.368984 114.717099 
L 104.887486 119.401295 
L 107.316709 109.973367 
L 104.924487 112.560316 
L 100.722818 120.422979 
L 99.560652 123.018925 
L 97.987827 127.600846 
L 95.258241 132.555623 
L 93.53415 137.003532 
L 94.15524 141.315684 
L 97.982896 141.112559 
L 100.433299 131.396069 
L 97.721776 133.751121 
L 95.565157 138.254367 
L 93.119096 142.825039 
L 92.290909 148.569135 
L 94.954164 152.236775 
L 96.952093 141.317295 
L 94.838358 147.382609 
L 94.02153 151.191413 
L 94.301569 153.726068 
L 95.707474 154.384514 
L 97.140912 152.757578 
L 97.26716 151.661604 
L 96.383148 153.254173 
L 95.534714 156.238296 
L 95.333459 158.825669 
L 95.734113 160.331021 
L 96.668688 161.187581 
L 95.751597 164.554169 
L 95.58475 167.167122 
L 96.284509 169.154156 
L 97.637978 169.073804 
L 98.820967 167.994413 
L 101.11514 169.125426 
L 101.320793 162.513363 
L 100.510338 166.558119 
L 100.452576 169.182341 
L 100.425122 171.390532 
L 100.618362 172.542346 
L 101.153324 173.308607 
L 102.023677 173.421778 
L 103.026371 172.868998 
L 104.27147 171.48862 
L 104.296243 171.569727 
L 104.108042 172.298954 
L 104.004106 173.365028 
L 104.071831 174.181158 
L 104.259687 174.780185 
L 104.573299 175.22745 
L 105.0419 175.428009 
L 105.626816 175.313689 
L 106.677003 174.530241 
L 107.027912 174.344967 
L 107.030102 175.180912 
L 107.132447 175.59264 
L 107.323716 175.86805 
L 107.59906 175.992446 
L 107.941489 175.959517 
L 108.657357 175.5112 
L 109.135309 175.13403 
L 109.224613 175.781005 
L 109.368579 175.917083 
L 109.583215 175.919097 
L 110.099562 175.554467 
L 110.543265 175.027112 
L 110.65003 174.763461 
L 110.649791 174.931269 
L 110.774039 175.017492 
L 111.044366 174.809163 
L 111.398476 174.209246 
L 111.609049 173.801974 
L 111.773542 173.250747 
L 111.768578 172.95785 
L 111.814915 172.453466 
L 111.720633 172.152887 
L 111.65277 171.84147 
L 111.534916 171.622266 
L 111.381528 171.40681 
L 111.154146 171.211483 
L 110.933098 171.181564 
L 110.847642 171.322127 
L 110.849612 171.327316 
L 110.858148 171.353353 
L 110.858148 171.353353 
" style="fill:none;stroke:#1f77b4;stroke-linecap:square;stroke-width:1.5;"/>
   </g>
   <g id="line2d_17">
    <path clip-path="url(#p29674820aa)" d="M 147.188275 204.737694 
L 150.711602 204.960803 
L 160.900716 207.399717 
L 175.428559 212.833561 
L 193.550627 220.577363 
L 238.927316 240.562799 
L 265.707559 251.847151 
L 295.110159 263.401605 
L 327.22873 274.669004 
L 362.168432 284.849643 
L 399.313584 293.313204 
L 434.908486 304.092855 
L 472.642132 305.208752 
L 488.604507 307.8 
L 495.020354 304.989708 
L 498.109091 296.46911 
L 495.371833 286.485834 
L 486.810514 276.02627 
L 472.455779 265.35836 
L 456.536219 251.358664 
L 441.56972 235.508043 
L 416.021703 228.14315 
L 397.287073 212.125809 
L 372.127806 200.926886 
L 349.893543 190.230383 
L 333.092549 180.690457 
L 307.208466 165.560879 
L 296.198827 159.714833 
L 285.762548 155.172294 
L 275.54445 152.101936 
L 265.037229 151.027374 
L 254.553988 152.110854 
L 245.056525 157.262642 
L 247.414441 144.859514 
L 229.706157 138.325201 
L 224.530073 136.852888 
L 219.273788 135.971602 
L 213.784457 135.982622 
L 208.026126 137.018674 
L 201.912566 139.174264 
L 195.150572 143.217069 
L 189.549256 150.616435 
L 198.295964 138.519162 
L 195.138454 132.493277 
L 190.597717 133.190184 
L 186.642908 134.120155 
L 182.818018 135.266351 
L 178.895364 136.876881 
L 174.62372 139.286791 
L 169.764534 142.903654 
L 163.819792 149.992506 
L 167.375392 149.371908 
L 167.674165 144.3125 
L 167.706372 141.594721 
L 166.126111 140.028037 
L 163.186445 141.187257 
L 160.181218 143.244164 
L 157.100066 145.697281 
L 153.491472 148.999173 
L 148.71437 154.600139 
L 146.694192 162.361077 
L 148.576894 156.368819 
L 144.258149 163.634472 
L 152.406515 157.906298 
L 153.242238 150.010665 
L 150.455374 151.532264 
L 147.860318 154.032365 
L 145.40615 156.883347 
L 143.089591 159.914712 
L 140.896978 163.178695 
L 139.089063 166.523503 
L 138.343225 169.016603 
L 138.776025 169.680549 
L 139.681735 169.533797 
L 141.662415 167.283031 
L 142.311505 165.023313 
L 140.955205 165.803044 
L 139.118271 168.063447 
L 134.565829 174.633622 
L 131.130381 180.982254 
L 135.1212 182.308391 
L 136.45349 177.683275 
L 135.366015 179.828133 
L 135.477727 181.27193 
L 136.790254 180.802223 
L 137.796069 179.491025 
L 137.358115 179.707907 
L 135.792298 181.708387 
L 133.201037 185.344459 
L 129.333764 192.123905 
L 130.090242 199.117654 
L 138.449178 187.546348 
L 138.067657 186.651298 
L 137.600549 187.660492 
L 137.620736 188.468208 
L 137.964837 188.629352 
L 137.94789 188.881731 
L 136.102056 192.040587 
L 134.860928 194.717024 
L 133.952711 197.648804 
L 134.659414 199.426487 
L 137.240122 197.619539 
L 139.330302 195.137227 
L 139.478373 195.240264 
L 139.442256 195.578208 
L 136.753843 201.458261 
L 135.256058 204.221331 
L 133.255297 208.820972 
L 134.315744 212.342236 
L 140.29177 206.979246 
L 143.054526 202.599284 
L 143.895195 200.642078 
L 143.549326 200.606115 
L 142.745811 201.564231 
L 140.362522 205.224283 
L 138.10332 208.38192 
L 134.783436 215.407346 
L 141.664358 213.478967 
L 144.318369 207.561331 
L 145.538799 206.086727 
L 146.585165 204.254002 
L 146.587883 203.584105 
L 145.992681 203.942681 
L 145.09195 204.956074 
L 144.047 206.468543 
L 143.024495 208.291061 
L 142.301678 210.220559 
L 142.556375 211.495598 
L 144.492964 210.53912 
L 146.593524 207.878986 
L 147.496656 206.146607 
L 147.708184 205.317333 
L 147.445068 205.190525 
L 146.87428 205.62648 
L 146.144683 206.508846 
L 145.468995 207.60207 
L 145.039271 208.646979 
L 145.062884 209.300241 
L 145.602504 209.315328 
L 146.613602 208.48798 
L 147.606741 207.178441 
L 148.167857 206.067467 
L 148.182683 205.542359 
L 147.826278 205.631594 
L 147.32879 206.098298 
L 146.478354 207.403416 
L 146.334241 207.914708 
L 146.512793 208.086987 
L 146.995756 207.765948 
L 147.559569 207.132008 
L 148.044154 206.378622 
L 148.275076 205.772553 
L 148.172622 205.551342 
L 147.859096 205.717317 
L 147.201947 206.524889 
L 147.05327 207.055844 
L 147.242202 207.001108 
L 147.900489 206.239527 
L 148.197666 205.416473 
L 148.056788 205.364767 
L 147.589158 205.766868 
L 147.367352 206.161283 
L 147.412632 206.187261 
L 147.734882 205.83132 
L 147.990465 205.266117 
L 147.955584 205.133579 
L 147.667407 205.272661 
L 147.434483 205.600256 
L 147.757116 205.099073 
L 147.731508 204.888946 
L 147.442833 205.089522 
L 147.40388 205.148982 
L 147.573033 204.794252 
L 147.518908 204.692028 
L 147.30673 204.844999 
L 147.380436 204.667466 
L 147.370527 204.563667 
L 147.329229 204.564222 
L 147.193329 204.664615 
L 147.232211 204.511583 
L 147.161641 204.505677 
L 147.120235 204.534397 
L 146.982971 204.459658 
L 147.126938 204.450488 
L 146.98816 204.435641 
L 146.970042 204.431875 
L 146.914912 204.501034 
L 146.914912 204.501034 
" style="fill:none;stroke:#ff7f0e;stroke-linecap:square;stroke-width:1.5;"/>
   </g>
   <g id="line2d_18">
    <path clip-path="url(#p29674820aa)" d="M 130.594196 155.952996 
L 133.385379 156.103714 
L 141.260061 157.679465 
L 152.347105 161.308936 
L 165.964445 166.638465 
L 181.737091 173.250725 
L 199.425464 180.79202 
L 218.890397 188.945367 
L 240.131706 197.374613 
L 263.387785 205.563818 
L 288.901723 212.552161 
L 315.945775 217.353862 
L 343.707712 220.911964 
L 368.084058 225.564683 
L 383.236497 220.692132 
L 392.896239 221.383044 
L 398.047652 214.750234 
L 400.222972 205.857007 
L 400.010955 195.972789 
L 397.465416 187.710145 
L 391.989555 177.99433 
L 383.138454 164.822839 
L 371.889072 152.411889 
L 359.99682 147.315668 
L 344.947638 135.245192 
L 330.968699 127.314335 
L 320.14982 119.62567 
L 310.918597 112.008939 
L 302.567959 104.828012 
L 294.581985 98.347416 
L 286.610038 92.97235 
L 278.58986 89.0202 
L 270.86372 86.50595 
L 263.97607 84.635168 
L 258.105538 82.224035 
L 238.277969 68.484971 
L 233.39809 65.737595 
L 228.365483 63.793333 
L 223.294268 62.63937 
L 218.364757 62.051004 
L 213.760109 61.698993 
L 209.571051 61.168249 
L 205.74946 60.332493 
L 198.588965 58.145964 
L 195.026774 57.32066 
L 191.389824 56.852955 
L 187.595103 56.849613 
L 183.562636 57.563125 
L 179.12625 59.128122 
L 174.435838 61.965193 
L 171.458727 65.43573 
L 171.494971 66.456816 
L 170.885432 55.8 
L 166.774185 59.097333 
L 163.596749 60.94966 
L 160.509024 62.366102 
L 156.946793 64.191924 
L 152.525367 67.472312 
L 149.134075 72.579508 
L 148.793872 76.830666 
L 147.768821 67.58982 
L 143.315982 75.027726 
L 142.991062 79.782838 
L 145.315335 76.645462 
L 142.544938 69.847298 
L 139.138882 74.549519 
L 133.428664 81.612916 
L 130.721187 85.295445 
L 128.172105 89.156326 
L 126.17343 92.967955 
L 125.066842 96.615587 
L 124.318359 96.464418 
L 125.300121 98.46486 
L 127.69192 95.327562 
L 125.112089 90.444588 
L 122.012312 96.244266 
L 115.774447 106.279452 
L 114.23359 112.560957 
L 116.049022 116.877217 
L 115.489126 108.199099 
L 113.229852 116.202035 
L 115.297665 120.307689 
L 119.600971 114.602339 
L 118.485035 108.804053 
L 116.664663 111.96304 
L 114.521368 115.382666 
L 112.454566 119.867504 
L 111.025287 124.132403 
L 110.347732 127.438107 
L 110.323329 129.531531 
L 110.784813 130.784855 
L 111.569318 131.03365 
L 112.577394 130.852836 
L 113.704968 130.040407 
L 114.071171 128.866275 
L 113.145214 129.565206 
L 111.13049 132.749812 
L 108.477159 137.629498 
L 107.709723 143.771517 
L 110.866446 147.517052 
L 113.082238 136.259112 
L 112.433424 140.830592 
L 112.831421 142.158351 
L 113.478172 142.407179 
L 113.935552 142.375829 
L 113.872386 142.804193 
L 113.0795 144.266165 
L 111.28489 147.245155 
L 109.116001 152.096044 
L 109.670128 157.653735 
L 114.455528 158.914649 
L 117.344732 145.403987 
L 116.689086 149.568438 
L 116.724467 151.498758 
L 115.524376 156.21634 
L 115.476145 158.282197 
L 116.278148 159.561606 
L 117.921352 159.217809 
L 119.573388 157.259132 
L 120.322967 155.530295 
L 120.286824 155.5662 
L 120.054072 158.434974 
L 119.975388 159.449672 
L 120.004779 160.55189 
L 120.339101 161.445414 
L 121.053431 161.772363 
L 122.043789 161.385084 
L 122.985255 160.461366 
L 123.733158 159.471045 
L 123.656634 161.351075 
L 123.75745 161.974778 
L 123.985095 162.477605 
L 124.395784 162.769278 
L 124.986637 162.693979 
L 125.644828 162.274682 
L 126.723445 161.196105 
L 127.034521 162.408446 
L 127.278028 162.55658 
L 127.613244 162.552629 
L 128.018953 162.362043 
L 128.762863 161.645061 
L 129.082391 161.301835 
L 129.392874 161.774533 
L 129.815662 161.635139 
L 130.301407 161.185332 
L 130.851154 160.624882 
L 131.07038 160.49279 
L 131.480629 159.952083 
L 132.085874 158.531536 
L 132.150331 157.296127 
L 132.068213 156.764751 
L 131.900977 156.394344 
L 131.260993 155.545627 
L 130.740814 155.451214 
L 130.502189 155.640439 
L 130.466605 155.728948 
L 130.466605 155.728948 
" style="fill:none;stroke:#2ca02c;stroke-linecap:square;stroke-width:1.5;"/>
   </g>
   <g id="patch_3">
    <path d="M 72 320.4 
L 72 43.2 
" style="fill:none;stroke:#000000;stroke-linecap:square;stroke-linejoin:miter;stroke-width:0.8;"/>
   </g>
   <g id="patch_4">
    <path d="M 518.4 320.4 
L 518.4 43.2 
" style="fill:none;stroke:#000000;stroke-linecap:square;stroke-linejoin:miter;stroke-width:0.8;"/>
   </g>
   <g id="patch_5">
    <path d="M 72 320.4 
L 518.4 320.4 
" style="fill:none;stroke:#000000;stroke-linecap:square;stroke-linejoin:miter;stroke-width:0.8;"/>
   </g>
   <g id="patch_6">
    <path d="M 72 43.2 
L 518.4 43.2 
" style="fill:none;stroke:#000000;stroke-linecap:square;stroke-linejoin:miter;stroke-width:0.8;"/>
   </g>
   <g id="patch_7">
    <path d="M 267.783249 226.338305 
Q 278.005726 227.882832 287.122717 229.26033 
" style="fill:none;stroke:#1f77b4;stroke-linecap:round;"/>
    <path d="M 277.981921 222.822486 
L 287.122717 229.26033 
L 276.487964 232.710261 
L 277.981921 222.822486 
z
" style="fill:#1f77b4;stroke:#1f77b4;stroke-linecap:round;"/>
   </g>
   <g id="patch_8">
    <path d="M 343.769881 171.604268 
Q 340.128075 167.488223 337.227129 164.209513 
" style="fill:none;stroke:#1f77b4;stroke-linecap:round;"/>
    <path d="M 340.1089 175.012077 
L 337.227129 164.209513 
L 347.598243 168.385635 
L 340.1089 175.012077 
z
" style="fill:#1f77b4;stroke:#1f77b4;stroke-linecap:round;"/>
   </g>
   <g id="patch_9">
    <path d="M 234.702447 85.226967 
Q 232.614892 84.363239 231.560434 83.926956 
" style="fill:none;stroke:#1f77b4;stroke-linecap:round;"/>
    <path d="M 238.889148 92.370294 
L 231.560434 83.926956 
L 242.712333 83.129988 
L 238.889148 92.370294 
z
" style="fill:#1f77b4;stroke:#1f77b4;stroke-linecap:round;"/>
   </g>
   <g id="patch_10">
    <path d="M 364.122724 285.29493 
Q 380.745165 289.082371 396.27751 292.621431 
" style="fill:none;stroke:#ff7f0e;stroke-linecap:round;"/>
    <path d="M 387.638188 285.524805 
L 396.27751 292.621431 
L 385.416615 295.274913 
L 387.638188 285.524805 
z
" style="fill:#ff7f0e;stroke:#ff7f0e;stroke-linecap:round;"/>
   </g>
   <g id="patch_11">
    <path d="M 455.164168 249.905562 
Q 449.052309 243.432654 443.708022 237.772662 
" style="fill:none;stroke:#ff7f0e;stroke-linecap:round;"/>
    <path d="M 446.937931 248.476292 
L 443.708022 237.772662 
L 454.208871 241.610913 
L 446.937931 248.476292 
z
" style="fill:#ff7f0e;stroke:#ff7f0e;stroke-linecap:round;"/>
   </g>
   <g id="patch_12">
    <path d="M 283.849149 154.597351 
Q 280.655814 153.63781 278.533219 153.000008 
" style="fill:none;stroke:#ff7f0e;stroke-linecap:round;"/>
    <path d="M 286.671351 160.66622 
L 278.533219 153.000008 
L 289.549068 151.089229 
L 286.671351 160.66622 
z
" style="fill:#ff7f0e;stroke:#ff7f0e;stroke-linecap:round;"/>
   </g>
   <g id="patch_13">
    <path d="M 290.872585 212.90209 
Q 302.425168 214.953263 312.876933 216.808986 
" style="fill:none;stroke:#2ca02c;stroke-linecap:round;"/>
    <path d="M 303.905008 210.137811 
L 312.876933 216.808986 
L 302.156838 219.983821 
L 303.905008 210.137811 
z
" style="fill:#2ca02c;stroke:#2ca02c;stroke-linecap:round;"/>
   </g>
   <g id="patch_14">
    <path d="M 390.872363 176.331815 
Q 387.56336 171.407625 384.877947 167.41141 
" style="fill:none;stroke:#2ca02c;stroke-linecap:round;"/>
    <path d="M 386.305468 178.500242 
L 384.877947 167.41141 
L 394.605524 172.922693 
L 386.305468 178.500242 
z
" style="fill:#2ca02c;stroke:#2ca02c;stroke-linecap:round;"/>
   </g>
   <g id="patch_15">
    <path d="M 284.812547 92.08659 
Q 282.599057 90.995835 281.388448 90.399277 
" style="fill:none;stroke:#2ca02c;stroke-linecap:round;"/>
    <path d="M 288.14838 99.304518 
L 281.388448 90.399277 
L 292.5686 90.334476 
L 288.14838 99.304518 
z
" style="fill:#2ca02c;stroke:#2ca02c;stroke-linecap:round;"/>
   </g>
   <g id="legend_1">
    <g id="patch_16">
     <path d="M 422.746875 95.234375 
L 511.4 95.234375 
Q 513.4 95.234375 513.4 93.234375 
L 513.4 50.2 
Q 513.4 48.2 511.4 48.2 
L 422.746875 48.2 
Q 420.746875 48.2 420.746875 50.2 
L 420.746875 93.234375 
Q 420.746875 95.234375 422.746875 95.234375 
z
" style="fill:#ffffff;opacity:0.8;stroke:#cccccc;stroke-linejoin:miter;"/>
    </g>
    <g id="line2d_19">
     <path d="M 424.746875 56.298437 
L 444.746875 56.298437 
" style="fill:none;stroke:#1f77b4;stroke-linecap:square;stroke-width:1.5;"/>
    </g>
    <g id="line2d_20"/>
    <g id="text_18">
     <!-- SH -->
     <g transform="translate(452.746875 59.798437)scale(0.1 -0.1)">
      <defs>
       <path d="M 53.515625 70.515625 
L 53.515625 60.890625 
Q 47.90625 63.578125 42.921875 64.890625 
Q 37.9375 66.21875 33.296875 66.21875 
Q 25.25 66.21875 20.875 63.09375 
Q 16.5 59.96875 16.5 54.203125 
Q 16.5 49.359375 19.40625 46.890625 
Q 22.3125 44.4375 30.421875 42.921875 
L 36.375 41.703125 
Q 47.40625 39.59375 52.65625 34.296875 
Q 57.90625 29 57.90625 20.125 
Q 57.90625 9.515625 50.796875 4.046875 
Q 43.703125 -1.421875 29.984375 -1.421875 
Q 24.8125 -1.421875 18.96875 -0.25 
Q 13.140625 0.921875 6.890625 3.21875 
L 6.890625 13.375 
Q 12.890625 10.015625 18.65625 8.296875 
Q 24.421875 6.59375 29.984375 6.59375 
Q 38.421875 6.59375 43.015625 9.90625 
Q 47.609375 13.234375 47.609375 19.390625 
Q 47.609375 24.75 44.3125 27.78125 
Q 41.015625 30.8125 33.5 32.328125 
L 27.484375 33.5 
Q 16.453125 35.6875 11.515625 40.375 
Q 6.59375 45.0625 6.59375 53.421875 
Q 6.59375 63.09375 13.40625 68.65625 
Q 20.21875 74.21875 32.171875 74.21875 
Q 37.3125 74.21875 42.625 73.28125 
Q 47.953125 72.359375 53.515625 70.515625 
z
" id="DejaVuSans-83"/>
       <path d="M 9.8125 72.90625 
L 19.671875 72.90625 
L 19.671875 43.015625 
L 55.515625 43.015625 
L 55.515625 72.90625 
L 65.375 72.90625 
L 65.375 0 
L 55.515625 0 
L 55.515625 34.71875 
L 19.671875 34.71875 
L 19.671875 0 
L 9.8125 0 
z
" id="DejaVuSans-72"/>
      </defs>
      <use xlink:href="#DejaVuSans-83"/>
      <use x="63.476562" xlink:href="#DejaVuSans-72"/>
     </g>
    </g>
    <g id="line2d_21">
     <path d="M 424.746875 70.976562 
L 444.746875 70.976562 
" style="fill:none;stroke:#ff7f0e;stroke-linecap:square;stroke-width:1.5;"/>
    </g>
    <g id="line2d_22"/>
    <g id="text_19">
     <!-- SNB -->
     <g transform="translate(452.746875 74.476562)scale(0.1 -0.1)">
      <defs>
       <path d="M 9.8125 72.90625 
L 23.09375 72.90625 
L 55.421875 11.921875 
L 55.421875 72.90625 
L 64.984375 72.90625 
L 64.984375 0 
L 51.703125 0 
L 19.390625 60.984375 
L 19.390625 0 
L 9.8125 0 
z
" id="DejaVuSans-78"/>
       <path d="M 19.671875 34.8125 
L 19.671875 8.109375 
L 35.5 8.109375 
Q 43.453125 8.109375 47.28125 11.40625 
Q 51.125 14.703125 51.125 21.484375 
Q 51.125 28.328125 47.28125 31.5625 
Q 43.453125 34.8125 35.5 34.8125 
z
M 19.671875 64.796875 
L 19.671875 42.828125 
L 34.28125 42.828125 
Q 41.5 42.828125 45.03125 45.53125 
Q 48.578125 48.25 48.578125 53.8125 
Q 48.578125 59.328125 45.03125 62.0625 
Q 41.5 64.796875 34.28125 64.796875 
z
M 9.8125 72.90625 
L 35.015625 72.90625 
Q 46.296875 72.90625 52.390625 68.21875 
Q 58.5 63.53125 58.5 54.890625 
Q 58.5 48.1875 55.375 44.234375 
Q 52.25 40.28125 46.1875 39.3125 
Q 53.46875 37.75 57.5 32.78125 
Q 61.53125 27.828125 61.53125 20.40625 
Q 61.53125 10.640625 54.890625 5.3125 
Q 48.25 0 35.984375 0 
L 9.8125 0 
z
" id="DejaVuSans-66"/>
      </defs>
      <use xlink:href="#DejaVuSans-83"/>
      <use x="63.476562" xlink:href="#DejaVuSans-78"/>
      <use x="138.28125" xlink:href="#DejaVuSans-66"/>
     </g>
    </g>
    <g id="line2d_23">
     <path d="M 424.746875 85.654687 
L 444.746875 85.654687 
" style="fill:none;stroke:#2ca02c;stroke-linecap:square;stroke-width:1.5;"/>
    </g>
    <g id="line2d_24"/>
    <g id="text_20">
     <!-- Flux-limiter -->
     <g transform="translate(452.746875 89.154687)scale(0.1 -0.1)">
      <defs>
       <path d="M 9.8125 72.90625 
L 51.703125 72.90625 
L 51.703125 64.59375 
L 19.671875 64.59375 
L 19.671875 43.109375 
L 48.578125 43.109375 
L 48.578125 34.8125 
L 19.671875 34.8125 
L 19.671875 0 
L 9.8125 0 
z
" id="DejaVuSans-70"/>
       <path d="M 9.421875 75.984375 
L 18.40625 75.984375 
L 18.40625 0 
L 9.421875 0 
z
" id="DejaVuSans-108"/>
       <path d="M 54.890625 54.6875 
L 35.109375 28.078125 
L 55.90625 0 
L 45.3125 0 
L 29.390625 21.484375 
L 13.484375 0 
L 2.875 0 
L 24.125 28.609375 
L 4.6875 54.6875 
L 15.28125 54.6875 
L 29.78125 35.203125 
L 44.28125 54.6875 
z
" id="DejaVuSans-120"/>
       <path d="M 4.890625 31.390625 
L 31.203125 31.390625 
L 31.203125 23.390625 
L 4.890625 23.390625 
z
" id="DejaVuSans-45"/>
      </defs>
      <use xlink:href="#DejaVuSans-70"/>
      <use x="57.519531" xlink:href="#DejaVuSans-108"/>
      <use x="85.302734" xlink:href="#DejaVuSans-117"/>
      <use x="148.681641" xlink:href="#DejaVuSans-120"/>
      <use x="207.861328" xlink:href="#DejaVuSans-45"/>
      <use x="243.945312" xlink:href="#DejaVuSans-108"/>
      <use x="271.728516" xlink:href="#DejaVuSans-105"/>
      <use x="299.511719" xlink:href="#DejaVuSans-109"/>
      <use x="396.923828" xlink:href="#DejaVuSans-105"/>
      <use x="424.707031" xlink:href="#DejaVuSans-116"/>
      <use x="463.916016" xlink:href="#DejaVuSans-101"/>
      <use x="525.439453" xlink:href="#DejaVuSans-114"/>
     </g>
    </g>
   </g>
  </g>
 </g>
 <defs>
  <clipPath id="p29674820aa">
   <rect height="277.2" width="446.4" x="72" y="43.2"/>
  </clipPath>
 </defs>
</svg>
